<svg width="121" height="30" viewBox="0 0 121 30" fill="none" xmlns="http://www.w3.org/2000/svg">
<path d="M4.78516 6.63184H2.22852L2.21484 5.22363H4.36133C4.73958 5.22363 5.04948 5.17578 5.29102 5.08008C5.53255 4.97982 5.71257 4.83626 5.83105 4.64941C5.9541 4.45801 6.01562 4.22559 6.01562 3.95215C6.01562 3.64225 5.95638 3.3916 5.83789 3.2002C5.72396 3.00879 5.54395 2.86979 5.29785 2.7832C5.05632 2.69661 4.74414 2.65332 4.36133 2.65332H2.93945V11H0.888672V1.04688H4.36133C4.9401 1.04688 5.45736 1.10156 5.91309 1.21094C6.37337 1.32031 6.76302 1.48665 7.08203 1.70996C7.40104 1.93327 7.64486 2.21582 7.81348 2.55762C7.9821 2.89486 8.06641 3.2959 8.06641 3.76074C8.06641 4.1709 7.97298 4.54915 7.78613 4.89551C7.60384 5.24186 7.31445 5.52441 6.91797 5.74316C6.52604 5.96191 6.01335 6.08268 5.37988 6.10547L4.78516 6.63184ZM4.69629 11H1.66797L2.46777 9.40039H4.69629C5.05632 9.40039 5.35026 9.34342 5.57812 9.22949C5.80599 9.111 5.97461 8.9515 6.08398 8.75098C6.19336 8.55046 6.24805 8.32031 6.24805 8.06055C6.24805 7.76888 6.19792 7.51595 6.09766 7.30176C6.00195 7.08757 5.84701 6.9235 5.63281 6.80957C5.41862 6.69108 5.13607 6.63184 4.78516 6.63184H2.80957L2.82324 5.22363H5.28418L5.75586 5.77734C6.36198 5.76823 6.84961 5.87533 7.21875 6.09863C7.59245 6.31738 7.86361 6.60221 8.03223 6.95312C8.2054 7.30404 8.29199 7.68001 8.29199 8.08105C8.29199 8.71908 8.15299 9.25684 7.875 9.69434C7.59701 10.1273 7.18913 10.4531 6.65137 10.6719C6.11816 10.8906 5.46647 11 4.69629 11ZM13.6992 9.33203V6.03711C13.6992 5.80013 13.6605 5.59733 13.583 5.42871C13.5055 5.25553 13.3848 5.12109 13.2207 5.02539C13.0612 4.92969 12.8538 4.88184 12.5986 4.88184C12.3799 4.88184 12.1908 4.92057 12.0312 4.99805C11.8717 5.07096 11.7487 5.17806 11.6621 5.31934C11.5755 5.45605 11.5322 5.61784 11.5322 5.80469H9.56348C9.56348 5.49023 9.63639 5.19173 9.78223 4.90918C9.92806 4.62663 10.14 4.37826 10.418 4.16406C10.696 3.94531 11.0264 3.77441 11.4092 3.65137C11.7965 3.52832 12.2295 3.4668 12.708 3.4668C13.2822 3.4668 13.7926 3.5625 14.2393 3.75391C14.6859 3.94531 15.0368 4.23242 15.292 4.61523C15.5518 4.99805 15.6816 5.47656 15.6816 6.05078V9.21582C15.6816 9.62142 15.7067 9.9541 15.7568 10.2139C15.807 10.4691 15.8799 10.6924 15.9756 10.8838V11H13.9863C13.8906 10.7995 13.8177 10.5488 13.7676 10.248C13.722 9.94271 13.6992 9.63737 13.6992 9.33203ZM13.959 6.49512L13.9727 7.60938H12.8721C12.6123 7.60938 12.3867 7.639 12.1953 7.69824C12.0039 7.75749 11.8467 7.8418 11.7236 7.95117C11.6006 8.05599 11.5094 8.17904 11.4502 8.32031C11.3955 8.46159 11.3682 8.61654 11.3682 8.78516C11.3682 8.95378 11.4069 9.10645 11.4844 9.24316C11.5618 9.37533 11.6735 9.48014 11.8193 9.55762C11.9652 9.63053 12.1361 9.66699 12.332 9.66699C12.6283 9.66699 12.8857 9.60775 13.1045 9.48926C13.3232 9.37077 13.4919 9.22493 13.6104 9.05176C13.7334 8.87858 13.7972 8.71452 13.8018 8.55957L14.3213 9.39355C14.2484 9.5804 14.1481 9.77409 14.0205 9.97461C13.8975 10.1751 13.7402 10.3643 13.5488 10.542C13.3574 10.7152 13.1273 10.8587 12.8584 10.9727C12.5895 11.082 12.2705 11.1367 11.9014 11.1367C11.432 11.1367 11.0059 11.0433 10.623 10.8564C10.2448 10.665 9.94401 10.403 9.7207 10.0703C9.50195 9.73307 9.39258 9.35026 9.39258 8.92188C9.39258 8.53451 9.46549 8.19043 9.61133 7.88965C9.75716 7.58887 9.97135 7.33594 10.2539 7.13086C10.541 6.92122 10.8988 6.764 11.3271 6.65918C11.7555 6.5498 12.2523 6.49512 12.8174 6.49512H13.959ZM17.1992 0.5H19.168V9.30469L18.9697 11H17.1992V0.5ZM23.8506 7.22656V7.37012C23.8506 7.92155 23.7913 8.42741 23.6729 8.8877C23.5589 9.34798 23.3812 9.74674 23.1396 10.084C22.8981 10.4167 22.5973 10.6764 22.2373 10.8633C21.8818 11.0456 21.4626 11.1367 20.9795 11.1367C20.5283 11.1367 20.1364 11.0456 19.8037 10.8633C19.4756 10.681 19.1999 10.4235 18.9766 10.0908C18.7533 9.75814 18.5732 9.36849 18.4365 8.92188C18.2998 8.47526 18.1973 7.98763 18.1289 7.45898V7.14453C18.1973 6.61589 18.2998 6.12826 18.4365 5.68164C18.5732 5.23503 18.7533 4.84538 18.9766 4.5127C19.1999 4.18001 19.4756 3.92253 19.8037 3.74023C20.1318 3.55794 20.5192 3.4668 20.9658 3.4668C21.4535 3.4668 21.8773 3.56022 22.2373 3.74707C22.6019 3.92936 22.9027 4.18913 23.1396 4.52637C23.3812 4.85905 23.5589 5.25553 23.6729 5.71582C23.7913 6.17155 23.8506 6.67513 23.8506 7.22656ZM21.8818 7.37012V7.22656C21.8818 6.92578 21.859 6.64323 21.8135 6.37891C21.7725 6.11003 21.6995 5.87533 21.5947 5.6748C21.4899 5.46973 21.3464 5.30794 21.1641 5.18945C20.9863 5.07096 20.7562 5.01172 20.4736 5.01172C20.2048 5.01172 19.9769 5.05729 19.79 5.14844C19.6032 5.23958 19.4482 5.36719 19.3252 5.53125C19.2067 5.69531 19.1178 5.89128 19.0586 6.11914C18.9993 6.34245 18.9629 6.58854 18.9492 6.85742V7.75293C18.9629 8.11296 19.0221 8.43197 19.127 8.70996C19.2363 8.9834 19.4004 9.19987 19.6191 9.35938C19.8424 9.51432 20.1318 9.5918 20.4873 9.5918C20.7653 9.5918 20.9954 9.53711 21.1777 9.42773C21.36 9.31836 21.5013 9.16341 21.6016 8.96289C21.7064 8.76237 21.7793 8.52767 21.8203 8.25879C21.8613 7.98535 21.8818 7.68913 21.8818 7.37012ZM28.1299 9.59863C28.3714 9.59863 28.5856 9.55306 28.7725 9.46191C28.9593 9.36621 29.1051 9.23405 29.21 9.06543C29.3193 8.89225 29.3763 8.68945 29.3809 8.45703H31.2334C31.2288 8.97656 31.0898 9.43913 30.8164 9.84473C30.543 10.2458 30.1761 10.5625 29.7158 10.7949C29.2555 11.0228 28.7406 11.1367 28.1709 11.1367C27.5967 11.1367 27.0954 11.041 26.667 10.8496C26.2432 10.6582 25.89 10.3939 25.6074 10.0566C25.3249 9.71484 25.113 9.31836 24.9717 8.86719C24.8304 8.41146 24.7598 7.92383 24.7598 7.4043V7.20605C24.7598 6.68197 24.8304 6.19434 24.9717 5.74316C25.113 5.28743 25.3249 4.89095 25.6074 4.55371C25.89 4.21191 26.2432 3.94531 26.667 3.75391C27.0908 3.5625 27.5876 3.4668 28.1572 3.4668C28.7633 3.4668 29.2943 3.58301 29.75 3.81543C30.2103 4.04785 30.5703 4.38053 30.8301 4.81348C31.0944 5.24186 31.2288 5.75 31.2334 6.33789H29.3809C29.3763 6.0918 29.3239 5.86849 29.2236 5.66797C29.1279 5.46745 28.9867 5.30794 28.7998 5.18945C28.6175 5.06641 28.3919 5.00488 28.123 5.00488C27.8359 5.00488 27.6012 5.06641 27.4189 5.18945C27.2367 5.30794 27.0954 5.47201 26.9951 5.68164C26.8949 5.88672 26.8242 6.12142 26.7832 6.38574C26.7467 6.64551 26.7285 6.91895 26.7285 7.20605V7.4043C26.7285 7.69141 26.7467 7.96712 26.7832 8.23145C26.8197 8.49577 26.888 8.73047 26.9883 8.93555C27.0931 9.14062 27.2367 9.30241 27.4189 9.4209C27.6012 9.53939 27.8382 9.59863 28.1299 9.59863ZM32.0605 7.37695V7.2334C32.0605 6.69108 32.138 6.19206 32.293 5.73633C32.4479 5.27604 32.6735 4.87728 32.9697 4.54004C33.266 4.2028 33.6305 3.94076 34.0635 3.75391C34.4964 3.5625 34.9932 3.4668 35.5537 3.4668C36.1143 3.4668 36.6133 3.5625 37.0508 3.75391C37.4883 3.94076 37.8551 4.2028 38.1514 4.54004C38.4521 4.87728 38.68 5.27604 38.835 5.73633C38.9899 6.19206 39.0674 6.69108 39.0674 7.2334V7.37695C39.0674 7.91471 38.9899 8.41374 38.835 8.87402C38.68 9.32975 38.4521 9.72852 38.1514 10.0703C37.8551 10.4076 37.4906 10.6696 37.0576 10.8564C36.6247 11.0433 36.1279 11.1367 35.5674 11.1367C35.0068 11.1367 34.5078 11.0433 34.0703 10.8564C33.6374 10.6696 33.2705 10.4076 32.9697 10.0703C32.6735 9.72852 32.4479 9.32975 32.293 8.87402C32.138 8.41374 32.0605 7.91471 32.0605 7.37695ZM34.0293 7.2334V7.37695C34.0293 7.68685 34.0566 7.97624 34.1113 8.24512C34.166 8.514 34.2526 8.75098 34.3711 8.95605C34.4941 9.15658 34.6536 9.3138 34.8496 9.42773C35.0456 9.54167 35.2848 9.59863 35.5674 9.59863C35.8408 9.59863 36.0755 9.54167 36.2715 9.42773C36.4674 9.3138 36.6247 9.15658 36.7432 8.95605C36.8617 8.75098 36.9482 8.514 37.0029 8.24512C37.0622 7.97624 37.0918 7.68685 37.0918 7.37695V7.2334C37.0918 6.93262 37.0622 6.65007 37.0029 6.38574C36.9482 6.11686 36.8594 5.87988 36.7363 5.6748C36.6178 5.46517 36.4606 5.30111 36.2646 5.18262C36.0687 5.06413 35.8317 5.00488 35.5537 5.00488C35.2757 5.00488 35.0387 5.06413 34.8428 5.18262C34.6514 5.30111 34.4941 5.46517 34.3711 5.6748C34.2526 5.87988 34.166 6.11686 34.1113 6.38574C34.0566 6.65007 34.0293 6.93262 34.0293 7.2334ZM43.333 9.59863C43.5745 9.59863 43.7887 9.55306 43.9756 9.46191C44.1624 9.36621 44.3083 9.23405 44.4131 9.06543C44.5225 8.89225 44.5794 8.68945 44.584 8.45703H46.4365C46.432 8.97656 46.293 9.43913 46.0195 9.84473C45.7461 10.2458 45.3792 10.5625 44.9189 10.7949C44.4587 11.0228 43.9437 11.1367 43.374 11.1367C42.7998 11.1367 42.2985 11.041 41.8701 10.8496C41.4463 10.6582 41.0931 10.3939 40.8105 10.0566C40.528 9.71484 40.3161 9.31836 40.1748 8.86719C40.0335 8.41146 39.9629 7.92383 39.9629 7.4043V7.20605C39.9629 6.68197 40.0335 6.19434 40.1748 5.74316C40.3161 5.28743 40.528 4.89095 40.8105 4.55371C41.0931 4.21191 41.4463 3.94531 41.8701 3.75391C42.2939 3.5625 42.7907 3.4668 43.3604 3.4668C43.9665 3.4668 44.4974 3.58301 44.9531 3.81543C45.4134 4.04785 45.7734 4.38053 46.0332 4.81348C46.2975 5.24186 46.432 5.75 46.4365 6.33789H44.584C44.5794 6.0918 44.527 5.86849 44.4268 5.66797C44.3311 5.46745 44.1898 5.30794 44.0029 5.18945C43.8206 5.06641 43.5951 5.00488 43.3262 5.00488C43.0391 5.00488 42.8044 5.06641 42.6221 5.18945C42.4398 5.30794 42.2985 5.47201 42.1982 5.68164C42.098 5.88672 42.0273 6.12142 41.9863 6.38574C41.9499 6.64551 41.9316 6.91895 41.9316 7.20605V7.4043C41.9316 7.69141 41.9499 7.96712 41.9863 8.23145C42.0228 8.49577 42.0911 8.73047 42.1914 8.93555C42.2962 9.14062 42.4398 9.30241 42.6221 9.4209C42.8044 9.53939 43.0413 9.59863 43.333 9.59863ZM49.5469 0.493164V11H47.5781V0.493164H49.5469ZM54.209 3.60352L50.9961 7.26758L49.2734 9.01074L48.5557 7.58887L49.9229 5.85254L51.8438 3.60352H54.209ZM52.165 11L49.9775 7.58203L51.3379 6.39258L54.4346 11H52.165ZM64.1621 1.04688H66.2061V7.62305C66.2061 8.38867 66.042 9.03353 65.7139 9.55762C65.3903 10.0817 64.9414 10.4759 64.3672 10.7402C63.7975 11.0046 63.1413 11.1367 62.3984 11.1367C61.6556 11.1367 60.9948 11.0046 60.416 10.7402C59.8418 10.4759 59.3906 10.0817 59.0625 9.55762C58.7389 9.03353 58.5771 8.38867 58.5771 7.62305V1.04688H60.6279V7.62305C60.6279 8.06966 60.6986 8.43424 60.8398 8.7168C60.9811 8.99935 61.1839 9.20671 61.4482 9.33887C61.7171 9.47103 62.0339 9.53711 62.3984 9.53711C62.7721 9.53711 63.0889 9.47103 63.3486 9.33887C63.613 9.20671 63.8135 8.99935 63.9502 8.7168C64.0915 8.43424 64.1621 8.06966 64.1621 7.62305V1.04688ZM69.6992 5.18262V11H67.7305V3.60352H69.5762L69.6992 5.18262ZM69.4121 7.04199H68.8789C68.8789 6.49512 68.9495 6.00293 69.0908 5.56543C69.2321 5.12337 69.4303 4.7474 69.6855 4.4375C69.9408 4.12305 70.2438 3.88379 70.5947 3.71973C70.9502 3.55111 71.3467 3.4668 71.7842 3.4668C72.1305 3.4668 72.4473 3.51693 72.7344 3.61719C73.0215 3.71745 73.2676 3.87695 73.4727 4.0957C73.6823 4.31445 73.8418 4.60384 73.9512 4.96387C74.0651 5.32389 74.1221 5.76367 74.1221 6.2832V11H72.1396V6.27637C72.1396 5.94824 72.0941 5.69303 72.0029 5.51074C71.9118 5.32845 71.7773 5.20085 71.5996 5.12793C71.4264 5.05046 71.2122 5.01172 70.957 5.01172C70.6927 5.01172 70.4626 5.06413 70.2666 5.16895C70.0752 5.27376 69.9157 5.4196 69.7881 5.60645C69.665 5.78874 69.5716 6.00293 69.5078 6.24902C69.444 6.49512 69.4121 6.75944 69.4121 7.04199ZM77.6973 3.60352V11H75.7217V3.60352H77.6973ZM75.5986 1.67578C75.5986 1.38867 75.6989 1.15169 75.8994 0.964844C76.0999 0.777995 76.3688 0.68457 76.7061 0.68457C77.0387 0.68457 77.3053 0.777995 77.5059 0.964844C77.7109 1.15169 77.8135 1.38867 77.8135 1.67578C77.8135 1.96289 77.7109 2.19987 77.5059 2.38672C77.3053 2.57357 77.0387 2.66699 76.7061 2.66699C76.3688 2.66699 76.0999 2.57357 75.8994 2.38672C75.6989 2.19987 75.5986 1.96289 75.5986 1.67578ZM81.8398 9.56445L83.4805 3.60352H85.5381L83.043 11H81.7988L81.8398 9.56445ZM80.7119 3.60352L82.3594 9.57129L82.3936 11H81.1426L78.6475 3.60352H80.7119ZM89.7285 11.1367C89.1543 11.1367 88.6393 11.0456 88.1836 10.8633C87.7279 10.6764 87.3405 10.4189 87.0215 10.0908C86.707 9.7627 86.4655 9.38216 86.2969 8.94922C86.1283 8.51172 86.0439 8.04688 86.0439 7.55469V7.28125C86.0439 6.7207 86.1237 6.20801 86.2832 5.74316C86.4427 5.27832 86.6706 4.875 86.9668 4.5332C87.2676 4.19141 87.6322 3.92936 88.0605 3.74707C88.4889 3.56022 88.972 3.4668 89.5098 3.4668C90.0339 3.4668 90.4987 3.55339 90.9043 3.72656C91.3099 3.89974 91.6494 4.14583 91.9229 4.46484C92.2008 4.78385 92.4105 5.16667 92.5518 5.61328C92.693 6.05534 92.7637 6.54753 92.7637 7.08984V7.91016H86.8848V6.59766H90.8291V6.44727C90.8291 6.17383 90.779 5.93001 90.6787 5.71582C90.583 5.49707 90.4372 5.32389 90.2412 5.19629C90.0452 5.06868 89.7946 5.00488 89.4893 5.00488C89.2295 5.00488 89.0062 5.06185 88.8193 5.17578C88.6325 5.28971 88.4798 5.44922 88.3613 5.6543C88.2474 5.85938 88.1608 6.10091 88.1016 6.37891C88.0469 6.65234 88.0195 6.95312 88.0195 7.28125V7.55469C88.0195 7.85091 88.0605 8.12435 88.1426 8.375C88.2292 8.62565 88.3499 8.84212 88.5049 9.02441C88.6644 9.20671 88.8558 9.34798 89.0791 9.44824C89.307 9.5485 89.5645 9.59863 89.8516 9.59863C90.207 9.59863 90.5374 9.53027 90.8428 9.39355C91.1527 9.25228 91.4193 9.04036 91.6426 8.75781L92.5996 9.79688C92.4447 10.0202 92.2327 10.2344 91.9639 10.4395C91.6995 10.6445 91.3805 10.8132 91.0068 10.9453C90.6331 11.0729 90.207 11.1367 89.7285 11.1367ZM95.8535 5.2168V11H93.8848V3.60352H95.7373L95.8535 5.2168ZM98.082 3.55566L98.0479 5.38086C97.9521 5.36719 97.8359 5.35579 97.6992 5.34668C97.5671 5.33301 97.4463 5.32617 97.3369 5.32617C97.0589 5.32617 96.8174 5.36263 96.6123 5.43555C96.4118 5.50391 96.2432 5.60645 96.1064 5.74316C95.9743 5.87988 95.874 6.04622 95.8057 6.24219C95.7419 6.43815 95.7054 6.66146 95.6963 6.91211L95.2998 6.78906C95.2998 6.31055 95.3477 5.87077 95.4434 5.46973C95.5391 5.06413 95.6781 4.71094 95.8604 4.41016C96.0472 4.10938 96.2751 3.87695 96.5439 3.71289C96.8128 3.54883 97.1204 3.4668 97.4668 3.4668C97.5762 3.4668 97.6878 3.47591 97.8018 3.49414C97.9157 3.50781 98.0091 3.52832 98.082 3.55566ZM103.011 8.95605C103.011 8.81478 102.97 8.68717 102.888 8.57324C102.806 8.45931 102.653 8.35449 102.43 8.25879C102.211 8.15853 101.894 8.06738 101.479 7.98535C101.106 7.90332 100.757 7.80078 100.434 7.67773C100.115 7.55013 99.8366 7.39746 99.5996 7.21973C99.3672 7.04199 99.1849 6.83236 99.0527 6.59082C98.9206 6.34473 98.8545 6.06445 98.8545 5.75C98.8545 5.4401 98.9206 5.14844 99.0527 4.875C99.1895 4.60156 99.3831 4.36003 99.6338 4.15039C99.889 3.9362 100.199 3.76986 100.563 3.65137C100.933 3.52832 101.347 3.4668 101.808 3.4668C102.45 3.4668 103.002 3.56934 103.462 3.77441C103.927 3.97949 104.282 4.26204 104.528 4.62207C104.779 4.97754 104.904 5.38314 104.904 5.83887H102.936C102.936 5.64746 102.895 5.47656 102.812 5.32617C102.735 5.17122 102.612 5.05046 102.443 4.96387C102.279 4.87272 102.065 4.82715 101.801 4.82715C101.582 4.82715 101.393 4.86589 101.233 4.94336C101.074 5.01628 100.951 5.11654 100.864 5.24414C100.782 5.36719 100.741 5.50391 100.741 5.6543C100.741 5.76823 100.764 5.87077 100.81 5.96191C100.86 6.0485 100.939 6.12826 101.049 6.20117C101.158 6.27409 101.299 6.34245 101.473 6.40625C101.65 6.46549 101.869 6.52018 102.129 6.57031C102.662 6.67969 103.138 6.82324 103.558 7.00098C103.977 7.17415 104.31 7.41113 104.556 7.71191C104.802 8.00814 104.925 8.39779 104.925 8.88086C104.925 9.20898 104.852 9.50977 104.706 9.7832C104.56 10.0566 104.351 10.2959 104.077 10.501C103.804 10.7015 103.476 10.8587 103.093 10.9727C102.715 11.082 102.288 11.1367 101.814 11.1367C101.126 11.1367 100.543 11.0137 100.064 10.7676C99.5905 10.5215 99.2305 10.2093 98.9844 9.83105C98.7428 9.44824 98.6221 9.05632 98.6221 8.65527H100.488C100.497 8.92415 100.566 9.14062 100.693 9.30469C100.826 9.46875 100.992 9.58724 101.192 9.66016C101.397 9.73307 101.618 9.76953 101.855 9.76953C102.111 9.76953 102.323 9.73535 102.491 9.66699C102.66 9.59408 102.787 9.49837 102.874 9.37988C102.965 9.25684 103.011 9.11556 103.011 8.95605ZM108.281 3.60352V11H106.306V3.60352H108.281ZM106.183 1.67578C106.183 1.38867 106.283 1.15169 106.483 0.964844C106.684 0.777995 106.953 0.68457 107.29 0.68457C107.623 0.68457 107.889 0.777995 108.09 0.964844C108.295 1.15169 108.397 1.38867 108.397 1.67578C108.397 1.96289 108.295 2.19987 108.09 2.38672C107.889 2.57357 107.623 2.66699 107.29 2.66699C106.953 2.66699 106.684 2.57357 106.483 2.38672C106.283 2.19987 106.183 1.96289 106.183 1.67578ZM113.531 3.60352V4.99805H109.225V3.60352H113.531ZM110.291 1.77832H112.26V8.77148C112.26 8.98568 112.287 9.14974 112.342 9.26367C112.401 9.3776 112.488 9.45736 112.602 9.50293C112.715 9.54395 112.859 9.56445 113.032 9.56445C113.155 9.56445 113.265 9.5599 113.36 9.55078C113.461 9.53711 113.545 9.52344 113.613 9.50977L113.62 10.959C113.451 11.0137 113.269 11.057 113.073 11.0889C112.877 11.1208 112.661 11.1367 112.424 11.1367C111.991 11.1367 111.613 11.0661 111.289 10.9248C110.97 10.779 110.724 10.5465 110.551 10.2275C110.378 9.90853 110.291 9.48926 110.291 8.96973V1.77832ZM116.847 10.166L118.809 3.60352H120.921L117.947 12.1143C117.883 12.3011 117.797 12.5016 117.688 12.7158C117.583 12.93 117.439 13.1328 117.257 13.3242C117.079 13.5202 116.854 13.6797 116.58 13.8027C116.311 13.9258 115.981 13.9873 115.589 13.9873C115.402 13.9873 115.249 13.9759 115.131 13.9531C115.012 13.9303 114.871 13.8984 114.707 13.8574V12.415C114.757 12.415 114.81 12.415 114.864 12.415C114.919 12.4196 114.971 12.4219 115.021 12.4219C115.281 12.4219 115.493 12.3923 115.657 12.333C115.821 12.2738 115.953 12.1826 116.054 12.0596C116.154 11.9411 116.234 11.7861 116.293 11.5947L116.847 10.166ZM116.026 3.60352L117.633 8.96289L117.913 11.0479L116.573 11.1914L113.914 3.60352H116.026ZM6.6582 23.6982H8.70215C8.66113 24.3682 8.47656 24.9629 8.14844 25.4824C7.82487 26.002 7.37142 26.4076 6.78809 26.6992C6.20931 26.9909 5.51204 27.1367 4.69629 27.1367C4.05827 27.1367 3.48633 27.0273 2.98047 26.8086C2.47461 26.5853 2.04167 26.2663 1.68164 25.8516C1.32617 25.4368 1.05501 24.9355 0.868164 24.3477C0.681315 23.7598 0.587891 23.1012 0.587891 22.3721V21.6816C0.587891 20.9525 0.683594 20.2939 0.875 19.7061C1.07096 19.1136 1.34896 18.61 1.70898 18.1953C2.07357 17.7806 2.50879 17.4616 3.01465 17.2383C3.52051 17.015 4.08561 16.9033 4.70996 16.9033C5.53939 16.9033 6.23893 17.0537 6.80859 17.3545C7.38281 17.6553 7.82715 18.07 8.1416 18.5986C8.46061 19.1273 8.65202 19.7288 8.71582 20.4033H6.66504C6.64225 20.0023 6.5625 19.6628 6.42578 19.3848C6.28906 19.1022 6.08171 18.8903 5.80371 18.749C5.53027 18.6032 5.16569 18.5303 4.70996 18.5303C4.36816 18.5303 4.06966 18.5941 3.81445 18.7217C3.55924 18.8493 3.34505 19.043 3.17188 19.3027C2.9987 19.5625 2.86882 19.8906 2.78223 20.2871C2.7002 20.679 2.65918 21.1393 2.65918 21.668V22.3721C2.65918 22.887 2.69792 23.3405 2.77539 23.7324C2.85286 24.1198 2.97135 24.4479 3.13086 24.7168C3.29492 24.9811 3.50456 25.1816 3.75977 25.3184C4.01953 25.4505 4.33171 25.5166 4.69629 25.5166C5.12467 25.5166 5.47786 25.4482 5.75586 25.3115C6.03385 25.1748 6.24577 24.972 6.3916 24.7031C6.54199 24.4342 6.63086 24.0993 6.6582 23.6982ZM9.61133 23.377V23.2334C9.61133 22.6911 9.6888 22.1921 9.84375 21.7363C9.9987 21.276 10.2243 20.8773 10.5205 20.54C10.8167 20.2028 11.1813 19.9408 11.6143 19.7539C12.0472 19.5625 12.5439 19.4668 13.1045 19.4668C13.665 19.4668 14.1641 19.5625 14.6016 19.7539C15.0391 19.9408 15.4059 20.2028 15.7021 20.54C16.0029 20.8773 16.2308 21.276 16.3857 21.7363C16.5407 22.1921 16.6182 22.6911 16.6182 23.2334V23.377C16.6182 23.9147 16.5407 24.4137 16.3857 24.874C16.2308 25.3298 16.0029 25.7285 15.7021 26.0703C15.4059 26.4076 15.0413 26.6696 14.6084 26.8564C14.1755 27.0433 13.6787 27.1367 13.1182 27.1367C12.5576 27.1367 12.0586 27.0433 11.6211 26.8564C11.1882 26.6696 10.8213 26.4076 10.5205 26.0703C10.2243 25.7285 9.9987 25.3298 9.84375 24.874C9.6888 24.4137 9.61133 23.9147 9.61133 23.377ZM11.5801 23.2334V23.377C11.5801 23.6868 11.6074 23.9762 11.6621 24.2451C11.7168 24.514 11.8034 24.751 11.9219 24.9561C12.0449 25.1566 12.2044 25.3138 12.4004 25.4277C12.5964 25.5417 12.8356 25.5986 13.1182 25.5986C13.3916 25.5986 13.6263 25.5417 13.8223 25.4277C14.0182 25.3138 14.1755 25.1566 14.2939 24.9561C14.4124 24.751 14.499 24.514 14.5537 24.2451C14.613 23.9762 14.6426 23.6868 14.6426 23.377V23.2334C14.6426 22.9326 14.613 22.6501 14.5537 22.3857C14.499 22.1169 14.4102 21.8799 14.2871 21.6748C14.1686 21.4652 14.0114 21.3011 13.8154 21.1826C13.6195 21.0641 13.3825 21.0049 13.1045 21.0049C12.8265 21.0049 12.5895 21.0641 12.3936 21.1826C12.2021 21.3011 12.0449 21.4652 11.9219 21.6748C11.8034 21.8799 11.7168 22.1169 11.6621 22.3857C11.6074 22.6501 11.5801 22.9326 11.5801 23.2334ZM19.7969 21.1348V27H17.8213V19.6035H19.6738L19.7969 21.1348ZM19.5234 23.042H18.9766C18.9766 22.527 19.0381 22.0531 19.1611 21.6201C19.2887 21.1826 19.4733 20.8044 19.7148 20.4854C19.9609 20.1618 20.264 19.9111 20.624 19.7334C20.984 19.5557 21.401 19.4668 21.875 19.4668C22.2031 19.4668 22.5039 19.5169 22.7773 19.6172C23.0508 19.7129 23.2855 19.8656 23.4814 20.0752C23.682 20.2803 23.8369 20.5492 23.9463 20.8818C24.0557 21.21 24.1104 21.6042 24.1104 22.0645V27H22.1416V22.2832C22.1416 21.946 22.096 21.6862 22.0049 21.5039C21.9137 21.3216 21.7839 21.194 21.6152 21.1211C21.4512 21.0482 21.2529 21.0117 21.0205 21.0117C20.7653 21.0117 20.542 21.0641 20.3506 21.1689C20.1637 21.2738 20.0088 21.4196 19.8857 21.6064C19.7627 21.7887 19.6715 22.0029 19.6123 22.249C19.5531 22.4951 19.5234 22.7594 19.5234 23.042ZM23.9258 22.8164L23.2217 22.9053C23.2217 22.4222 23.2809 21.9733 23.3994 21.5586C23.5225 21.1439 23.7025 20.7793 23.9395 20.4648C24.181 20.1504 24.4795 19.9066 24.835 19.7334C25.1904 19.5557 25.6006 19.4668 26.0654 19.4668C26.4209 19.4668 26.7445 19.5192 27.0361 19.624C27.3278 19.7243 27.5762 19.8861 27.7812 20.1094C27.9909 20.3281 28.1504 20.6152 28.2598 20.9707C28.3737 21.3262 28.4307 21.7614 28.4307 22.2764V27H26.4551V22.2764C26.4551 21.9346 26.4095 21.6748 26.3184 21.4971C26.2318 21.3148 26.1042 21.1895 25.9355 21.1211C25.7715 21.0482 25.5755 21.0117 25.3477 21.0117C25.1107 21.0117 24.9033 21.0596 24.7256 21.1553C24.5479 21.2464 24.3997 21.374 24.2812 21.5381C24.1628 21.7021 24.0739 21.8936 24.0146 22.1123C23.9554 22.3265 23.9258 22.5612 23.9258 22.8164ZM31.9238 21.0254V29.8438H29.9551V19.6035H31.7803L31.9238 21.0254ZM36.6064 23.2197V23.3633C36.6064 23.901 36.5426 24.4001 36.415 24.8604C36.292 25.3206 36.1097 25.7217 35.8682 26.0635C35.6266 26.4007 35.3258 26.665 34.9658 26.8564C34.6104 27.0433 34.2002 27.1367 33.7354 27.1367C33.2842 27.1367 32.8923 27.0456 32.5596 26.8633C32.2269 26.681 31.9466 26.4258 31.7188 26.0977C31.4954 25.765 31.3154 25.3799 31.1787 24.9424C31.042 24.5049 30.9372 24.0355 30.8643 23.5342V23.1582C30.9372 22.6204 31.042 22.1283 31.1787 21.6816C31.3154 21.2305 31.4954 20.8408 31.7188 20.5127C31.9466 20.18 32.2246 19.9225 32.5527 19.7402C32.8854 19.5579 33.2751 19.4668 33.7217 19.4668C34.1911 19.4668 34.6035 19.5557 34.959 19.7334C35.319 19.9111 35.6198 20.1663 35.8613 20.499C36.1074 20.8317 36.292 21.2282 36.415 21.6885C36.5426 22.1488 36.6064 22.6592 36.6064 23.2197ZM34.6309 23.3633V23.2197C34.6309 22.9053 34.6035 22.6159 34.5488 22.3516C34.4987 22.0827 34.4167 21.848 34.3027 21.6475C34.1934 21.4469 34.0475 21.292 33.8652 21.1826C33.6875 21.0687 33.471 21.0117 33.2158 21.0117C32.9469 21.0117 32.7168 21.055 32.5254 21.1416C32.3385 21.2282 32.1859 21.3535 32.0674 21.5176C31.9489 21.6816 31.86 21.8776 31.8008 22.1055C31.7415 22.3333 31.7051 22.5908 31.6914 22.8779V23.8281C31.7142 24.1654 31.778 24.4684 31.8828 24.7373C31.9876 25.0016 32.1494 25.2113 32.3682 25.3662C32.5869 25.5212 32.874 25.5986 33.2295 25.5986C33.4893 25.5986 33.708 25.5417 33.8857 25.4277C34.0635 25.3092 34.207 25.1475 34.3164 24.9424C34.4303 24.7373 34.5101 24.5003 34.5557 24.2314C34.6058 23.9626 34.6309 23.6732 34.6309 23.3633ZM42.2051 25.2295V19.6035H44.1738V27H42.3213L42.2051 25.2295ZM42.4238 23.7119L43.0049 23.6982C43.0049 24.1904 42.9479 24.6484 42.834 25.0723C42.7201 25.4915 42.5492 25.8561 42.3213 26.166C42.0934 26.4714 41.8063 26.7106 41.46 26.8838C41.1136 27.0524 40.7057 27.1367 40.2363 27.1367C39.8763 27.1367 39.5436 27.0866 39.2383 26.9863C38.9375 26.8815 38.6777 26.7197 38.459 26.501C38.2448 26.2777 38.0762 25.9928 37.9531 25.6465C37.8346 25.2956 37.7754 24.874 37.7754 24.3818V19.6035H39.7441V24.3955C39.7441 24.6143 39.7692 24.7988 39.8193 24.9492C39.874 25.0996 39.9492 25.2227 40.0449 25.3184C40.1406 25.4141 40.2523 25.4824 40.3799 25.5234C40.512 25.5645 40.6579 25.585 40.8174 25.585C41.223 25.585 41.542 25.5029 41.7744 25.3389C42.0114 25.1748 42.1777 24.9515 42.2734 24.6689C42.3737 24.3818 42.4238 24.0628 42.4238 23.7119ZM49.3008 19.6035V20.998H44.9941V19.6035H49.3008ZM46.0605 17.7783H48.0293V24.7715C48.0293 24.9857 48.0566 25.1497 48.1113 25.2637C48.1706 25.3776 48.2572 25.4574 48.3711 25.5029C48.485 25.5439 48.6286 25.5645 48.8018 25.5645C48.9248 25.5645 49.0342 25.5599 49.1299 25.5508C49.2301 25.5371 49.3145 25.5234 49.3828 25.5098L49.3896 26.959C49.221 27.0137 49.0387 27.057 48.8428 27.0889C48.6468 27.1208 48.4303 27.1367 48.1934 27.1367C47.7604 27.1367 47.3822 27.0661 47.0586 26.9248C46.7396 26.779 46.4935 26.5465 46.3203 26.2275C46.1471 25.9085 46.0605 25.4893 46.0605 24.9697V17.7783ZM53.8262 27.1367C53.252 27.1367 52.737 27.0456 52.2812 26.8633C51.8255 26.6764 51.4382 26.4189 51.1191 26.0908C50.8047 25.7627 50.5632 25.3822 50.3945 24.9492C50.2259 24.5117 50.1416 24.0469 50.1416 23.5547V23.2812C50.1416 22.7207 50.2214 22.208 50.3809 21.7432C50.5404 21.2783 50.7682 20.875 51.0645 20.5332C51.3652 20.1914 51.7298 19.9294 52.1582 19.7471C52.5866 19.5602 53.0697 19.4668 53.6074 19.4668C54.1315 19.4668 54.5964 19.5534 55.002 19.7266C55.4076 19.8997 55.7471 20.1458 56.0205 20.4648C56.2985 20.7839 56.5081 21.1667 56.6494 21.6133C56.7907 22.0553 56.8613 22.5475 56.8613 23.0898V23.9102H50.9824V22.5977H54.9268V22.4473C54.9268 22.1738 54.8766 21.93 54.7764 21.7158C54.6807 21.4971 54.5348 21.3239 54.3389 21.1963C54.1429 21.0687 53.8923 21.0049 53.5869 21.0049C53.3271 21.0049 53.1038 21.0618 52.917 21.1758C52.7301 21.2897 52.5775 21.4492 52.459 21.6543C52.3451 21.8594 52.2585 22.1009 52.1992 22.3789C52.1445 22.6523 52.1172 22.9531 52.1172 23.2812V23.5547C52.1172 23.8509 52.1582 24.1243 52.2402 24.375C52.3268 24.6257 52.4476 24.8421 52.6025 25.0244C52.762 25.2067 52.9535 25.348 53.1768 25.4482C53.4046 25.5485 53.6621 25.5986 53.9492 25.5986C54.3047 25.5986 54.6351 25.5303 54.9404 25.3936C55.2503 25.2523 55.5169 25.0404 55.7402 24.7578L56.6973 25.7969C56.5423 26.0202 56.3304 26.2344 56.0615 26.4395C55.7972 26.6445 55.4782 26.8132 55.1045 26.9453C54.7308 27.0729 54.3047 27.1367 53.8262 27.1367ZM59.9512 21.2168V27H57.9824V19.6035H59.835L59.9512 21.2168ZM62.1797 19.5557L62.1455 21.3809C62.0498 21.3672 61.9336 21.3558 61.7969 21.3467C61.6647 21.333 61.5439 21.3262 61.4346 21.3262C61.1566 21.3262 60.915 21.3626 60.71 21.4355C60.5094 21.5039 60.3408 21.6064 60.2041 21.7432C60.0719 21.8799 59.9717 22.0462 59.9033 22.2422C59.8395 22.4382 59.8031 22.6615 59.7939 22.9121L59.3975 22.7891C59.3975 22.3105 59.4453 21.8708 59.541 21.4697C59.6367 21.0641 59.7757 20.7109 59.958 20.4102C60.1449 20.1094 60.3727 19.877 60.6416 19.7129C60.9105 19.5488 61.2181 19.4668 61.5645 19.4668C61.6738 19.4668 61.7855 19.4759 61.8994 19.4941C62.0133 19.5078 62.1068 19.5283 62.1797 19.5557ZM72.4883 23.6982H74.5322C74.4912 24.3682 74.3066 24.9629 73.9785 25.4824C73.6549 26.002 73.2015 26.4076 72.6182 26.6992C72.0394 26.9909 71.3421 27.1367 70.5264 27.1367C69.8883 27.1367 69.3164 27.0273 68.8105 26.8086C68.3047 26.5853 67.8717 26.2663 67.5117 25.8516C67.1562 25.4368 66.8851 24.9355 66.6982 24.3477C66.5114 23.7598 66.418 23.1012 66.418 22.3721V21.6816C66.418 20.9525 66.5137 20.2939 66.7051 19.7061C66.901 19.1136 67.179 18.61 67.5391 18.1953C67.9036 17.7806 68.3389 17.4616 68.8447 17.2383C69.3506 17.015 69.9157 16.9033 70.54 16.9033C71.3695 16.9033 72.069 17.0537 72.6387 17.3545C73.2129 17.6553 73.6572 18.07 73.9717 18.5986C74.2907 19.1273 74.4821 19.7288 74.5459 20.4033H72.4951C72.4723 20.0023 72.3926 19.6628 72.2559 19.3848C72.1191 19.1022 71.9118 18.8903 71.6338 18.749C71.3604 18.6032 70.9958 18.5303 70.54 18.5303C70.1982 18.5303 69.8997 18.5941 69.6445 18.7217C69.3893 18.8493 69.1751 19.043 69.002 19.3027C68.8288 19.5625 68.6989 19.8906 68.6123 20.2871C68.5303 20.679 68.4893 21.1393 68.4893 21.668V22.3721C68.4893 22.887 68.528 23.3405 68.6055 23.7324C68.6829 24.1198 68.8014 24.4479 68.9609 24.7168C69.125 24.9811 69.3346 25.1816 69.5898 25.3184C69.8496 25.4505 70.1618 25.5166 70.5264 25.5166C70.9548 25.5166 71.3079 25.4482 71.5859 25.3115C71.8639 25.1748 72.0758 24.972 72.2217 24.7031C72.3721 24.4342 72.4609 24.0993 72.4883 23.6982ZM77.834 16.5V27H75.8584V16.5H77.834ZM83.8359 25.2295V19.6035H85.8047V27H83.9521L83.8359 25.2295ZM84.0547 23.7119L84.6357 23.6982C84.6357 24.1904 84.5788 24.6484 84.4648 25.0723C84.3509 25.4915 84.18 25.8561 83.9521 26.166C83.7243 26.4714 83.4372 26.7106 83.0908 26.8838C82.7445 27.0524 82.3366 27.1367 81.8672 27.1367C81.5072 27.1367 81.1745 27.0866 80.8691 26.9863C80.5684 26.8815 80.3086 26.7197 80.0898 26.501C79.8757 26.2777 79.707 25.9928 79.584 25.6465C79.4655 25.2956 79.4062 24.874 79.4062 24.3818V19.6035H81.375V24.3955C81.375 24.6143 81.4001 24.7988 81.4502 24.9492C81.5049 25.0996 81.5801 25.2227 81.6758 25.3184C81.7715 25.4141 81.8831 25.4824 82.0107 25.5234C82.1429 25.5645 82.2887 25.585 82.4482 25.585C82.8538 25.585 83.1729 25.5029 83.4053 25.3389C83.6423 25.1748 83.8086 24.9515 83.9043 24.6689C84.0046 24.3818 84.0547 24.0628 84.0547 23.7119ZM87.3086 16.5H89.2773V25.3047L89.0791 27H87.3086V16.5ZM93.96 23.2266V23.3701C93.96 23.9215 93.9007 24.4274 93.7822 24.8877C93.6683 25.348 93.4906 25.7467 93.249 26.084C93.0075 26.4167 92.7067 26.6764 92.3467 26.8633C91.9912 27.0456 91.5719 27.1367 91.0889 27.1367C90.6377 27.1367 90.2458 27.0456 89.9131 26.8633C89.585 26.681 89.3092 26.4235 89.0859 26.0908C88.8626 25.7581 88.6826 25.3685 88.5459 24.9219C88.4092 24.4753 88.3066 23.9876 88.2383 23.459V23.1445C88.3066 22.6159 88.4092 22.1283 88.5459 21.6816C88.6826 21.235 88.8626 20.8454 89.0859 20.5127C89.3092 20.18 89.585 19.9225 89.9131 19.7402C90.2412 19.5579 90.6286 19.4668 91.0752 19.4668C91.5628 19.4668 91.9867 19.5602 92.3467 19.7471C92.7113 19.9294 93.012 20.1891 93.249 20.5264C93.4906 20.859 93.6683 21.2555 93.7822 21.7158C93.9007 22.1715 93.96 22.6751 93.96 23.2266ZM91.9912 23.3701V23.2266C91.9912 22.9258 91.9684 22.6432 91.9229 22.3789C91.8818 22.11 91.8089 21.8753 91.7041 21.6748C91.5993 21.4697 91.4557 21.3079 91.2734 21.1895C91.0957 21.071 90.8656 21.0117 90.583 21.0117C90.3141 21.0117 90.0863 21.0573 89.8994 21.1484C89.7126 21.2396 89.5576 21.3672 89.4346 21.5312C89.3161 21.6953 89.2272 21.8913 89.168 22.1191C89.1087 22.3424 89.0723 22.5885 89.0586 22.8574V23.7529C89.0723 24.113 89.1315 24.432 89.2363 24.71C89.3457 24.9834 89.5098 25.1999 89.7285 25.3594C89.9518 25.5143 90.2412 25.5918 90.5967 25.5918C90.8747 25.5918 91.1048 25.5371 91.2871 25.4277C91.4694 25.3184 91.6107 25.1634 91.7109 24.9629C91.8158 24.7624 91.8887 24.5277 91.9297 24.2588C91.9707 23.9854 91.9912 23.6891 91.9912 23.3701Z" fill="#20448F"/>
</svg>
