<svg width="254" height="215" viewBox="0 0 254 215" fill="none" xmlns="http://www.w3.org/2000/svg">
<path d="M63.7734 146.288V142.768H57.6934V141.308H63.6334V137.788H57.6934V136.468H63.7734V132.948H53.6534V146.288H63.7734ZM75.1474 146.288L71.9674 141.328L74.9274 136.628H70.9874L69.6874 138.888L68.3874 136.628H64.4474L67.4074 141.328L64.2474 146.288H68.1674L69.7074 143.728L71.2074 146.288H75.1474ZM82.2371 146.528C84.6371 146.528 86.4771 144.768 86.4771 141.448C86.4771 138.148 84.6371 136.388 82.2371 136.388C81.2371 136.388 80.2971 136.728 79.5171 137.648V136.628H75.9171V149.968H79.5171V145.268C80.3171 146.188 81.2371 146.528 82.2371 146.528ZM80.9971 143.348C80.5371 143.348 79.8371 143.088 79.5171 142.688V140.228C79.8571 139.808 80.5371 139.568 80.9971 139.568C81.9571 139.568 82.7971 140.248 82.7971 141.448C82.7971 142.668 81.9571 143.348 80.9971 143.348ZM92.5316 146.528C93.9716 146.528 95.6916 146.148 96.6516 145.328L95.1716 143.108C94.6916 143.528 93.4916 143.788 92.9516 143.788C91.7716 143.788 91.0716 143.188 90.8716 142.568H97.4316V141.828C97.4316 138.428 95.2516 136.388 92.4116 136.388C89.2916 136.388 87.1516 138.648 87.1516 141.448C87.1516 144.628 89.5116 146.528 92.5316 146.528ZM94.0116 140.288H90.8316C90.9516 139.848 91.3116 139.128 92.4116 139.128C93.5716 139.128 93.9116 139.868 94.0116 140.288ZM102.271 146.288V140.368C102.671 139.888 103.651 139.688 104.411 139.688C104.751 139.688 105.051 139.728 105.231 139.788V136.348C104.131 136.348 102.871 136.988 102.271 137.688V136.628H98.671V146.288H102.271ZM110.524 146.528C111.744 146.528 112.584 146.228 112.964 145.888L112.324 143.168C112.244 143.248 111.924 143.348 111.604 143.348C111.124 143.348 110.804 142.948 110.804 142.448V139.748H112.764V136.628H110.804V133.988H107.204V136.628H105.604V139.748H107.204V143.488C107.204 145.508 108.384 146.528 110.524 146.528ZM126.178 146.288V136.468H129.738V132.948H118.558V136.468H122.138V146.288H126.178ZM134.211 146.528C135.651 146.528 137.371 146.148 138.331 145.328L136.851 143.108C136.371 143.528 135.171 143.788 134.631 143.788C133.451 143.788 132.751 143.188 132.551 142.568H139.111V141.828C139.111 138.428 136.931 136.388 134.091 136.388C130.971 136.388 128.831 138.648 128.831 141.448C128.831 144.628 131.191 146.528 134.211 146.528ZM135.691 140.288H132.511C132.631 139.848 132.991 139.128 134.091 139.128C135.251 139.128 135.591 139.868 135.691 140.288ZM149.531 146.288V140.448C149.531 137.228 147.191 136.388 144.791 136.388C143.331 136.388 141.531 136.808 140.231 137.848L141.451 140.068C142.211 139.488 143.231 139.128 144.131 139.128C145.311 139.128 145.931 139.648 145.931 140.328V141.328C145.411 140.668 144.271 140.268 143.011 140.268C141.571 140.268 139.691 140.948 139.691 143.348C139.691 145.548 141.571 146.528 143.011 146.528C144.211 146.528 145.391 146.048 145.931 145.368V146.288H149.531ZM144.511 144.188C143.911 144.188 143.251 144.008 143.251 143.408C143.251 142.808 143.911 142.608 144.511 142.608C145.071 142.608 145.691 142.788 145.931 143.128V143.668C145.691 144.008 145.071 144.188 144.511 144.188ZM156.283 146.528C158.483 146.528 159.843 145.508 160.383 144.708L158.063 142.508C157.763 142.948 157.203 143.348 156.443 143.348C155.423 143.348 154.543 142.688 154.543 141.448C154.543 140.208 155.423 139.568 156.443 139.568C157.203 139.568 157.763 139.928 158.063 140.388L160.383 138.208C159.843 137.388 158.483 136.388 156.283 136.388C153.223 136.388 150.863 138.388 150.863 141.448C150.863 144.528 153.223 146.528 156.283 146.528ZM171.722 146.288V139.388C171.722 137.708 170.742 136.388 168.502 136.388C166.802 136.388 165.742 137.088 165.182 137.728V132.948H161.582V146.288H165.182V140.328C165.482 139.988 165.902 139.568 166.722 139.568C167.582 139.568 168.122 139.908 168.122 140.908V146.288H171.722ZM178.45 146.528C179.89 146.528 181.61 146.148 182.57 145.328L181.09 143.108C180.61 143.528 179.41 143.788 178.87 143.788C177.69 143.788 176.99 143.188 176.79 142.568H183.35V141.828C183.35 138.428 181.17 136.388 178.33 136.388C175.21 136.388 173.07 138.648 173.07 141.448C173.07 144.628 175.43 146.528 178.45 146.528ZM179.93 140.288H176.75C176.87 139.848 177.23 139.128 178.33 139.128C179.49 139.128 179.83 139.868 179.93 140.288ZM188.189 146.288V140.368C188.589 139.888 189.569 139.688 190.329 139.688C190.669 139.688 190.969 139.728 191.149 139.788V136.348C190.049 136.348 188.789 136.988 188.189 137.688V136.628H184.589V146.288H188.189ZM196.302 146.528C199.162 146.528 200.882 145.128 200.882 143.208C200.882 139.188 195.402 140.188 195.402 139.388C195.402 139.168 195.782 138.968 196.302 138.968C197.422 138.968 198.542 139.468 199.142 139.968L200.462 137.628C199.342 136.888 197.902 136.388 196.282 136.388C193.482 136.388 191.962 137.948 191.962 139.688C191.962 143.688 197.442 142.508 197.442 143.428C197.442 143.668 197.222 143.848 196.482 143.848C195.402 143.848 193.762 143.228 193.002 142.628L191.562 145.048C192.602 145.908 194.522 146.528 196.302 146.528Z" fill="#1F5FBC"/>
<path d="M3.6899 176.26H7.1059V177.296H2.4159V167.538H3.6899V176.26ZM15.4589 173.166C15.4589 173.409 15.4449 173.666 15.4169 173.936H9.28487C9.33153 174.692 9.5882 175.285 10.0549 175.714C10.5309 176.134 11.1049 176.344 11.7769 176.344C12.3275 176.344 12.7849 176.218 13.1489 175.966C13.5222 175.705 13.7835 175.36 13.9329 174.93H15.3049C15.0995 175.668 14.6889 176.27 14.0729 176.736C13.4569 177.194 12.6915 177.422 11.7769 177.422C11.0489 177.422 10.3955 177.259 9.81687 176.932C9.24753 176.606 8.79953 176.144 8.47287 175.546C8.1462 174.94 7.98287 174.24 7.98287 173.446C7.98287 172.653 8.14153 171.958 8.45887 171.36C8.7762 170.763 9.21953 170.306 9.78887 169.988C10.3675 169.662 11.0302 169.498 11.7769 169.498C12.5049 169.498 13.1489 169.657 13.7089 169.974C14.2689 170.292 14.6982 170.73 14.9969 171.29C15.3049 171.841 15.4589 172.466 15.4589 173.166ZM14.1429 172.9C14.1429 172.415 14.0355 172 13.8209 171.654C13.6062 171.3 13.3122 171.034 12.9389 170.856C12.5749 170.67 12.1689 170.576 11.7209 170.576C11.0769 170.576 10.5262 170.782 10.0689 171.192C9.62087 171.603 9.3642 172.172 9.29887 172.9H14.1429ZM16.6645 173.432C16.6645 172.648 16.8232 171.962 17.1405 171.374C17.4578 170.777 17.8918 170.315 18.4425 169.988C19.0025 169.662 19.6232 169.498 20.3045 169.498C20.9765 169.498 21.5598 169.643 22.0545 169.932C22.5492 170.222 22.9178 170.586 23.1605 171.024V169.624H24.4485V177.296H23.1605V175.868C22.9085 176.316 22.5305 176.69 22.0265 176.988C21.5318 177.278 20.9532 177.422 20.2905 177.422C19.6092 177.422 18.9932 177.254 18.4425 176.918C17.8918 176.582 17.4578 176.111 17.1405 175.504C16.8232 174.898 16.6645 174.207 16.6645 173.432ZM23.1605 173.446C23.1605 172.868 23.0438 172.364 22.8105 171.934C22.5772 171.505 22.2598 171.178 21.8585 170.954C21.4665 170.721 21.0325 170.604 20.5565 170.604C20.0805 170.604 19.6465 170.716 19.2545 170.94C18.8625 171.164 18.5498 171.491 18.3165 171.92C18.0832 172.35 17.9665 172.854 17.9665 173.432C17.9665 174.02 18.0832 174.534 18.3165 174.972C18.5498 175.402 18.8625 175.733 19.2545 175.966C19.6465 176.19 20.0805 176.302 20.5565 176.302C21.0325 176.302 21.4665 176.19 21.8585 175.966C22.2598 175.733 22.5772 175.402 22.8105 174.972C23.0438 174.534 23.1605 174.025 23.1605 173.446ZM27.8754 170.87C28.0994 170.432 28.4168 170.091 28.8274 169.848C29.2474 169.606 29.7561 169.484 30.3534 169.484V170.8H30.0174C28.5894 170.8 27.8754 171.575 27.8754 173.124V177.296H26.6014V169.624H27.8754V170.87ZM35.5621 169.484C36.4954 169.484 37.2514 169.769 37.8301 170.338C38.4088 170.898 38.6981 171.71 38.6981 172.774V177.296H37.4381V172.956C37.4381 172.191 37.2468 171.608 36.8641 171.206C36.4814 170.796 35.9588 170.59 35.2961 170.59C34.6241 170.59 34.0874 170.8 33.6861 171.22C33.2941 171.64 33.0981 172.252 33.0981 173.054V177.296H31.8241V169.624H33.0981V170.716C33.3501 170.324 33.6908 170.021 34.1201 169.806C34.5588 169.592 35.0394 169.484 35.5621 169.484ZM47.6336 170.674H46.0236V177.296H44.7496V170.674H43.7556V169.624H44.7496V169.078C44.7496 168.22 44.9689 167.594 45.4076 167.202C45.8556 166.801 46.5696 166.6 47.5496 166.6V167.664C46.9896 167.664 46.5929 167.776 46.3596 168C46.1356 168.215 46.0236 168.574 46.0236 169.078V169.624H47.6336V170.674ZM50.393 170.87C50.617 170.432 50.9344 170.091 51.345 169.848C51.765 169.606 52.2737 169.484 52.871 169.484V170.8H52.535C51.107 170.8 50.393 171.575 50.393 173.124V177.296H49.119V169.624H50.393V170.87ZM57.6877 177.422C56.969 177.422 56.3157 177.259 55.7277 176.932C55.149 176.606 54.6917 176.144 54.3557 175.546C54.029 174.94 53.8657 174.24 53.8657 173.446C53.8657 172.662 54.0337 171.972 54.3697 171.374C54.715 170.768 55.1817 170.306 55.7697 169.988C56.3577 169.662 57.0157 169.498 57.7437 169.498C58.4717 169.498 59.1297 169.662 59.7177 169.988C60.3057 170.306 60.7677 170.763 61.1037 171.36C61.449 171.958 61.6217 172.653 61.6217 173.446C61.6217 174.24 61.4443 174.94 61.0897 175.546C60.7443 176.144 60.273 176.606 59.6757 176.932C59.0783 177.259 58.4157 177.422 57.6877 177.422ZM57.6877 176.302C58.145 176.302 58.5743 176.195 58.9757 175.98C59.377 175.766 59.699 175.444 59.9417 175.014C60.1937 174.585 60.3197 174.062 60.3197 173.446C60.3197 172.83 60.1983 172.308 59.9557 171.878C59.713 171.449 59.3957 171.132 59.0037 170.926C58.6117 170.712 58.187 170.604 57.7297 170.604C57.263 170.604 56.8337 170.712 56.4417 170.926C56.059 171.132 55.751 171.449 55.5177 171.878C55.2843 172.308 55.1677 172.83 55.1677 173.446C55.1677 174.072 55.2797 174.599 55.5037 175.028C55.737 175.458 56.045 175.78 56.4277 175.994C56.8103 176.2 57.2303 176.302 57.6877 176.302ZM72.5228 169.484C73.1201 169.484 73.6521 169.61 74.1188 169.862C74.5854 170.105 74.9541 170.474 75.2248 170.968C75.4954 171.463 75.6308 172.065 75.6308 172.774V177.296H74.3708V172.956C74.3708 172.191 74.1794 171.608 73.7968 171.206C73.4234 170.796 72.9148 170.59 72.2708 170.59C71.6081 170.59 71.0808 170.805 70.6888 171.234C70.2968 171.654 70.1008 172.266 70.1008 173.068V177.296H68.8408V172.956C68.8408 172.191 68.6494 171.608 68.2668 171.206C67.8934 170.796 67.3848 170.59 66.7408 170.59C66.0781 170.59 65.5508 170.805 65.1588 171.234C64.7668 171.654 64.5708 172.266 64.5708 173.068V177.296H63.2968V169.624H64.5708V170.73C64.8228 170.329 65.1588 170.021 65.5788 169.806C66.0081 169.592 66.4794 169.484 66.9928 169.484C67.6368 169.484 68.2061 169.629 68.7008 169.918C69.1954 170.208 69.5641 170.632 69.8068 171.192C70.0214 170.651 70.3761 170.231 70.8708 169.932C71.3654 169.634 71.9161 169.484 72.5228 169.484ZM82.111 168.378C81.8683 168.378 81.663 168.294 81.495 168.126C81.327 167.958 81.243 167.753 81.243 167.51C81.243 167.268 81.327 167.062 81.495 166.894C81.663 166.726 81.8683 166.642 82.111 166.642C82.3443 166.642 82.5403 166.726 82.699 166.894C82.867 167.062 82.951 167.268 82.951 167.51C82.951 167.753 82.867 167.958 82.699 168.126C82.5403 168.294 82.3443 168.378 82.111 168.378ZM82.727 169.624V177.296H81.453V169.624H82.727ZM88.6363 169.484C89.5697 169.484 90.3257 169.769 90.9043 170.338C91.483 170.898 91.7723 171.71 91.7723 172.774V177.296H90.5123V172.956C90.5123 172.191 90.321 171.608 89.9383 171.206C89.5557 170.796 89.033 170.59 88.3703 170.59C87.6983 170.59 87.1617 170.8 86.7603 171.22C86.3683 171.64 86.1723 172.252 86.1723 173.054V177.296H84.8983V169.624H86.1723V170.716C86.4243 170.324 86.765 170.021 87.1943 169.806C87.633 169.592 88.1137 169.484 88.6363 169.484ZM93.3774 173.432C93.3774 172.648 93.5361 171.962 93.8534 171.374C94.1707 170.777 94.6047 170.315 95.1554 169.988C95.7154 169.662 96.3407 169.498 97.0314 169.498C97.6287 169.498 98.1841 169.638 98.6974 169.918C99.2107 170.189 99.6027 170.548 99.8734 170.996V166.936H101.161V177.296H99.8734V175.854C99.6214 176.312 99.2481 176.69 98.7534 176.988C98.2587 177.278 97.6801 177.422 97.0174 177.422C96.3361 177.422 95.7154 177.254 95.1554 176.918C94.6047 176.582 94.1707 176.111 93.8534 175.504C93.5361 174.898 93.3774 174.207 93.3774 173.432ZM99.8734 173.446C99.8734 172.868 99.7567 172.364 99.5234 171.934C99.2901 171.505 98.9727 171.178 98.5714 170.954C98.1794 170.721 97.7454 170.604 97.2694 170.604C96.7934 170.604 96.3594 170.716 95.9674 170.94C95.5754 171.164 95.2627 171.491 95.0294 171.92C94.7961 172.35 94.6794 172.854 94.6794 173.432C94.6794 174.02 94.7961 174.534 95.0294 174.972C95.2627 175.402 95.5754 175.733 95.9674 175.966C96.3594 176.19 96.7934 176.302 97.2694 176.302C97.7454 176.302 98.1794 176.19 98.5714 175.966C98.9727 175.733 99.2901 175.402 99.5234 174.972C99.7567 174.534 99.8734 174.025 99.8734 173.446ZM110.118 169.624V177.296H108.844V176.162C108.602 176.554 108.261 176.862 107.822 177.086C107.393 177.301 106.917 177.408 106.394 177.408C105.797 177.408 105.26 177.287 104.784 177.044C104.308 176.792 103.93 176.419 103.65 175.924C103.38 175.43 103.244 174.828 103.244 174.118V169.624H104.504V173.95C104.504 174.706 104.696 175.29 105.078 175.7C105.461 176.102 105.984 176.302 106.646 176.302C107.328 176.302 107.864 176.092 108.256 175.672C108.648 175.252 108.844 174.641 108.844 173.838V169.624H110.118ZM114.985 177.422C114.397 177.422 113.87 177.324 113.403 177.128C112.937 176.923 112.568 176.643 112.297 176.288C112.027 175.924 111.877 175.509 111.849 175.042H113.165C113.203 175.425 113.38 175.738 113.697 175.98C114.024 176.223 114.449 176.344 114.971 176.344C115.457 176.344 115.839 176.237 116.119 176.022C116.399 175.808 116.539 175.537 116.539 175.21C116.539 174.874 116.39 174.627 116.091 174.468C115.793 174.3 115.331 174.137 114.705 173.978C114.136 173.829 113.669 173.68 113.305 173.53C112.951 173.372 112.643 173.143 112.381 172.844C112.129 172.536 112.003 172.135 112.003 171.64C112.003 171.248 112.12 170.889 112.353 170.562C112.587 170.236 112.918 169.979 113.347 169.792C113.777 169.596 114.267 169.498 114.817 169.498C115.667 169.498 116.353 169.713 116.875 170.142C117.398 170.572 117.678 171.16 117.715 171.906H116.441C116.413 171.505 116.25 171.183 115.951 170.94C115.662 170.698 115.27 170.576 114.775 170.576C114.318 170.576 113.954 170.674 113.683 170.87C113.413 171.066 113.277 171.323 113.277 171.64C113.277 171.892 113.357 172.102 113.515 172.27C113.683 172.429 113.889 172.56 114.131 172.662C114.383 172.756 114.729 172.863 115.167 172.984C115.718 173.134 116.166 173.283 116.511 173.432C116.857 173.572 117.151 173.787 117.393 174.076C117.645 174.366 117.776 174.744 117.785 175.21C117.785 175.63 117.669 176.008 117.435 176.344C117.202 176.68 116.871 176.946 116.441 177.142C116.021 177.329 115.536 177.422 114.985 177.422ZM121.138 170.674V175.196C121.138 175.57 121.217 175.836 121.376 175.994C121.535 176.144 121.81 176.218 122.202 176.218H123.14V177.296H121.992C121.283 177.296 120.751 177.133 120.396 176.806C120.041 176.48 119.864 175.943 119.864 175.196V170.674H118.87V169.624H119.864V167.692H121.138V169.624H123.14V170.674H121.138ZM125.957 170.87C126.181 170.432 126.499 170.091 126.909 169.848C127.329 169.606 127.838 169.484 128.435 169.484V170.8H128.099C126.671 170.8 125.957 171.575 125.957 173.124V177.296H124.683V169.624H125.957V170.87ZM136.514 169.624L131.894 180.908H130.578L132.09 177.212L128.996 169.624H130.41L132.818 175.84L135.198 169.624H136.514ZM148.527 173.166C148.527 173.409 148.513 173.666 148.485 173.936H142.353C142.4 174.692 142.657 175.285 143.123 175.714C143.599 176.134 144.173 176.344 144.845 176.344C145.396 176.344 145.853 176.218 146.217 175.966C146.591 175.705 146.852 175.36 147.001 174.93H148.373C148.168 175.668 147.757 176.27 147.141 176.736C146.525 177.194 145.76 177.422 144.845 177.422C144.117 177.422 143.464 177.259 142.885 176.932C142.316 176.606 141.868 176.144 141.541 175.546C141.215 174.94 141.051 174.24 141.051 173.446C141.051 172.653 141.21 171.958 141.527 171.36C141.845 170.763 142.288 170.306 142.857 169.988C143.436 169.662 144.099 169.498 144.845 169.498C145.573 169.498 146.217 169.657 146.777 169.974C147.337 170.292 147.767 170.73 148.065 171.29C148.373 171.841 148.527 172.466 148.527 173.166ZM147.211 172.9C147.211 172.415 147.104 172 146.889 171.654C146.675 171.3 146.381 171.034 146.007 170.856C145.643 170.67 145.237 170.576 144.789 170.576C144.145 170.576 143.595 170.782 143.137 171.192C142.689 171.603 142.433 172.172 142.367 172.9H147.211ZM154.213 177.296L152.393 174.44L150.643 177.296H149.313L151.791 173.488L149.313 169.624H150.755L152.575 172.466L154.311 169.624H155.641L153.177 173.418L155.655 177.296H154.213ZM158.182 171.038C158.434 170.6 158.807 170.236 159.302 169.946C159.806 169.648 160.389 169.498 161.052 169.498C161.733 169.498 162.349 169.662 162.9 169.988C163.46 170.315 163.899 170.777 164.216 171.374C164.533 171.962 164.692 172.648 164.692 173.432C164.692 174.207 164.533 174.898 164.216 175.504C163.899 176.111 163.46 176.582 162.9 176.918C162.349 177.254 161.733 177.422 161.052 177.422C160.399 177.422 159.82 177.278 159.316 176.988C158.821 176.69 158.443 176.321 158.182 175.882V180.936H156.908V169.624H158.182V171.038ZM163.39 173.432C163.39 172.854 163.273 172.35 163.04 171.92C162.807 171.491 162.489 171.164 162.088 170.94C161.696 170.716 161.262 170.604 160.786 170.604C160.319 170.604 159.885 170.721 159.484 170.954C159.092 171.178 158.775 171.51 158.532 171.948C158.299 172.378 158.182 172.877 158.182 173.446C158.182 174.025 158.299 174.534 158.532 174.972C158.775 175.402 159.092 175.733 159.484 175.966C159.885 176.19 160.319 176.302 160.786 176.302C161.262 176.302 161.696 176.19 162.088 175.966C162.489 175.733 162.807 175.402 163.04 174.972C163.273 174.534 163.39 174.02 163.39 173.432ZM173.369 173.166C173.369 173.409 173.355 173.666 173.327 173.936H167.195C167.242 174.692 167.498 175.285 167.965 175.714C168.441 176.134 169.015 176.344 169.687 176.344C170.238 176.344 170.695 176.218 171.059 175.966C171.432 175.705 171.694 175.36 171.843 174.93H173.215C173.01 175.668 172.599 176.27 171.983 176.736C171.367 177.194 170.602 177.422 169.687 177.422C168.959 177.422 168.306 177.259 167.727 176.932C167.158 176.606 166.71 176.144 166.383 175.546C166.056 174.94 165.893 174.24 165.893 173.446C165.893 172.653 166.052 171.958 166.369 171.36C166.686 170.763 167.13 170.306 167.699 169.988C168.278 169.662 168.94 169.498 169.687 169.498C170.415 169.498 171.059 169.657 171.619 169.974C172.179 170.292 172.608 170.73 172.907 171.29C173.215 171.841 173.369 172.466 173.369 173.166ZM172.053 172.9C172.053 172.415 171.946 172 171.731 171.654C171.516 171.3 171.222 171.034 170.849 170.856C170.485 170.67 170.079 170.576 169.631 170.576C168.987 170.576 168.436 170.782 167.979 171.192C167.531 171.603 167.274 172.172 167.209 172.9H172.053ZM176.325 170.87C176.549 170.432 176.866 170.091 177.277 169.848C177.697 169.606 178.205 169.484 178.803 169.484V170.8H178.467C177.039 170.8 176.325 171.575 176.325 173.124V177.296H175.051V169.624H176.325V170.87ZM181.827 170.674V175.196C181.827 175.57 181.907 175.836 182.065 175.994C182.224 176.144 182.499 176.218 182.891 176.218H183.829V177.296H182.681C181.972 177.296 181.44 177.133 181.085 176.806C180.731 176.48 180.553 175.943 180.553 175.196V170.674H179.559V169.624H180.553V167.692H181.827V169.624H183.829V170.674H181.827ZM188.089 177.422C187.501 177.422 186.974 177.324 186.507 177.128C186.04 176.923 185.672 176.643 185.401 176.288C185.13 175.924 184.981 175.509 184.953 175.042H186.269C186.306 175.425 186.484 175.738 186.801 175.98C187.128 176.223 187.552 176.344 188.075 176.344C188.56 176.344 188.943 176.237 189.223 176.022C189.503 175.808 189.643 175.537 189.643 175.21C189.643 174.874 189.494 174.627 189.195 174.468C188.896 174.3 188.434 174.137 187.809 173.978C187.24 173.829 186.773 173.68 186.409 173.53C186.054 173.372 185.746 173.143 185.485 172.844C185.233 172.536 185.107 172.135 185.107 171.64C185.107 171.248 185.224 170.889 185.457 170.562C185.69 170.236 186.022 169.979 186.451 169.792C186.88 169.596 187.37 169.498 187.921 169.498C188.77 169.498 189.456 169.713 189.979 170.142C190.502 170.572 190.782 171.16 190.819 171.906H189.545C189.517 171.505 189.354 171.183 189.055 170.94C188.766 170.698 188.374 170.576 187.879 170.576C187.422 170.576 187.058 170.674 186.787 170.87C186.516 171.066 186.381 171.323 186.381 171.64C186.381 171.892 186.46 172.102 186.619 172.27C186.787 172.429 186.992 172.56 187.235 172.662C187.487 172.756 187.832 172.863 188.271 172.984C188.822 173.134 189.27 173.283 189.615 173.432C189.96 173.572 190.254 173.787 190.497 174.076C190.749 174.366 190.88 174.744 190.889 175.21C190.889 175.63 190.772 176.008 190.539 176.344C190.306 176.68 189.974 176.946 189.545 177.142C189.125 177.329 188.64 177.422 188.089 177.422ZM206.64 169.624L204.246 177.296H202.93L201.082 171.206L199.234 177.296H197.918L195.51 169.624H196.812L198.576 176.064L200.48 169.624H201.782L203.644 176.078L205.38 169.624H206.64ZM211.712 169.484C212.291 169.484 212.814 169.61 213.28 169.862C213.747 170.105 214.111 170.474 214.372 170.968C214.643 171.463 214.778 172.065 214.778 172.774V177.296H213.518V172.956C213.518 172.191 213.327 171.608 212.944 171.206C212.562 170.796 212.039 170.59 211.376 170.59C210.704 170.59 210.168 170.8 209.766 171.22C209.374 171.64 209.178 172.252 209.178 173.054V177.296H207.904V166.936H209.178V170.716C209.43 170.324 209.776 170.021 210.214 169.806C210.662 169.592 211.162 169.484 211.712 169.484ZM220.205 177.422C219.487 177.422 218.833 177.259 218.245 176.932C217.667 176.606 217.209 176.144 216.873 175.546C216.547 174.94 216.383 174.24 216.383 173.446C216.383 172.662 216.551 171.972 216.887 171.374C217.233 170.768 217.699 170.306 218.287 169.988C218.875 169.662 219.533 169.498 220.261 169.498C220.989 169.498 221.647 169.662 222.235 169.988C222.823 170.306 223.285 170.763 223.621 171.36C223.967 171.958 224.139 172.653 224.139 173.446C224.139 174.24 223.962 174.94 223.607 175.546C223.262 176.144 222.791 176.606 222.193 176.932C221.596 177.259 220.933 177.422 220.205 177.422ZM220.205 176.302C220.663 176.302 221.092 176.195 221.493 175.98C221.895 175.766 222.217 175.444 222.459 175.014C222.711 174.585 222.837 174.062 222.837 173.446C222.837 172.83 222.716 172.308 222.473 171.878C222.231 171.449 221.913 171.132 221.521 170.926C221.129 170.712 220.705 170.604 220.247 170.604C219.781 170.604 219.351 170.712 218.959 170.926C218.577 171.132 218.269 171.449 218.035 171.878C217.802 172.308 217.685 172.83 217.685 173.446C217.685 174.072 217.797 174.599 218.021 175.028C218.255 175.458 218.563 175.78 218.945 175.994C219.328 176.2 219.748 176.302 220.205 176.302ZM229.071 173.432C229.071 172.648 229.229 171.962 229.547 171.374C229.864 170.777 230.298 170.315 230.849 169.988C231.409 169.662 232.029 169.498 232.711 169.498C233.383 169.498 233.966 169.643 234.461 169.932C234.955 170.222 235.324 170.586 235.567 171.024V169.624H236.855V177.296H235.567V175.868C235.315 176.316 234.937 176.69 234.433 176.988C233.938 177.278 233.359 177.422 232.697 177.422C232.015 177.422 231.399 177.254 230.849 176.918C230.298 176.582 229.864 176.111 229.547 175.504C229.229 174.898 229.071 174.207 229.071 173.432ZM235.567 173.446C235.567 172.868 235.45 172.364 235.217 171.934C234.983 171.505 234.666 171.178 234.265 170.954C233.873 170.721 233.439 170.604 232.963 170.604C232.487 170.604 232.053 170.716 231.661 170.94C231.269 171.164 230.956 171.491 230.723 171.92C230.489 172.35 230.373 172.854 230.373 173.432C230.373 174.02 230.489 174.534 230.723 174.972C230.956 175.402 231.269 175.733 231.661 175.966C232.053 176.19 232.487 176.302 232.963 176.302C233.439 176.302 233.873 176.19 234.265 175.966C234.666 175.733 234.983 175.402 235.217 174.972C235.45 174.534 235.567 174.025 235.567 173.446ZM240.282 170.87C240.506 170.432 240.823 170.091 241.234 169.848C241.654 169.606 242.162 169.484 242.76 169.484V170.8H242.424C240.996 170.8 240.282 171.575 240.282 173.124V177.296H239.008V169.624H240.282V170.87ZM251.23 173.166C251.23 173.409 251.216 173.666 251.188 173.936H245.056C245.103 174.692 245.36 175.285 245.826 175.714C246.302 176.134 246.876 176.344 247.548 176.344C248.099 176.344 248.556 176.218 248.92 175.966C249.294 175.705 249.555 175.36 249.704 174.93H251.076C250.871 175.668 250.46 176.27 249.844 176.736C249.228 177.194 248.463 177.422 247.548 177.422C246.82 177.422 246.167 177.259 245.588 176.932C245.019 176.606 244.571 176.144 244.244 175.546C243.918 174.94 243.754 174.24 243.754 173.446C243.754 172.653 243.913 171.958 244.23 171.36C244.548 170.763 244.991 170.306 245.56 169.988C246.139 169.662 246.802 169.498 247.548 169.498C248.276 169.498 248.92 169.657 249.48 169.974C250.04 170.292 250.47 170.73 250.768 171.29C251.076 171.841 251.23 172.466 251.23 173.166ZM249.914 172.9C249.914 172.415 249.807 172 249.592 171.654C249.378 171.3 249.084 171.034 248.71 170.856C248.346 170.67 247.94 170.576 247.492 170.576C246.848 170.576 246.298 170.782 245.84 171.192C245.392 171.603 245.136 172.172 245.07 172.9H249.914ZM33.8842 192.038C34.1362 191.6 34.5096 191.236 35.0042 190.946C35.5082 190.648 36.0916 190.498 36.7542 190.498C37.4356 190.498 38.0516 190.662 38.6022 190.988C39.1622 191.315 39.6009 191.777 39.9182 192.374C40.2356 192.962 40.3942 193.648 40.3942 194.432C40.3942 195.207 40.2356 195.898 39.9182 196.504C39.6009 197.111 39.1622 197.582 38.6022 197.918C38.0516 198.254 37.4356 198.422 36.7542 198.422C36.1009 198.422 35.5222 198.278 35.0182 197.988C34.5236 197.69 34.1456 197.321 33.8842 196.882V201.936H32.6102V190.624H33.8842V192.038ZM39.0922 194.432C39.0922 193.854 38.9756 193.35 38.7422 192.92C38.5089 192.491 38.1916 192.164 37.7902 191.94C37.3982 191.716 36.9642 191.604 36.4882 191.604C36.0216 191.604 35.5876 191.721 35.1862 191.954C34.7942 192.178 34.4769 192.51 34.2342 192.948C34.0009 193.378 33.8842 193.877 33.8842 194.446C33.8842 195.025 34.0009 195.534 34.2342 195.972C34.4769 196.402 34.7942 196.733 35.1862 196.966C35.5876 197.19 36.0216 197.302 36.4882 197.302C36.9642 197.302 37.3982 197.19 37.7902 196.966C38.1916 196.733 38.5089 196.402 38.7422 195.972C38.9756 195.534 39.0922 195.02 39.0922 194.432ZM41.5952 194.432C41.5952 193.648 41.7538 192.962 42.0712 192.374C42.3885 191.777 42.8225 191.315 43.3732 190.988C43.9332 190.662 44.5538 190.498 45.2352 190.498C45.9072 190.498 46.4905 190.643 46.9852 190.932C47.4798 191.222 47.8485 191.586 48.0912 192.024V190.624H49.3792V198.296H48.0912V196.868C47.8392 197.316 47.4612 197.69 46.9572 197.988C46.4625 198.278 45.8838 198.422 45.2212 198.422C44.5398 198.422 43.9238 198.254 43.3732 197.918C42.8225 197.582 42.3885 197.111 42.0712 196.504C41.7538 195.898 41.5952 195.207 41.5952 194.432ZM48.0912 194.446C48.0912 193.868 47.9745 193.364 47.7412 192.934C47.5078 192.505 47.1905 192.178 46.7892 191.954C46.3972 191.721 45.9632 191.604 45.4872 191.604C45.0112 191.604 44.5772 191.716 44.1852 191.94C43.7932 192.164 43.4805 192.491 43.2472 192.92C43.0138 193.35 42.8972 193.854 42.8972 194.432C42.8972 195.02 43.0138 195.534 43.2472 195.972C43.4805 196.402 43.7932 196.733 44.1852 196.966C44.5772 197.19 45.0112 197.302 45.4872 197.302C45.9632 197.302 46.3972 197.19 46.7892 196.966C47.1905 196.733 47.5078 196.402 47.7412 195.972C47.9745 195.534 48.0912 195.025 48.0912 194.446ZM54.2481 198.422C53.6601 198.422 53.1328 198.324 52.6661 198.128C52.1994 197.923 51.8308 197.643 51.5601 197.288C51.2894 196.924 51.1401 196.509 51.1121 196.042H52.4281C52.4654 196.425 52.6428 196.738 52.9601 196.98C53.2868 197.223 53.7114 197.344 54.2341 197.344C54.7194 197.344 55.1021 197.237 55.3821 197.022C55.6621 196.808 55.8021 196.537 55.8021 196.21C55.8021 195.874 55.6528 195.627 55.3541 195.468C55.0554 195.3 54.5934 195.137 53.9681 194.978C53.3988 194.829 52.9321 194.68 52.5681 194.53C52.2134 194.372 51.9054 194.143 51.6441 193.844C51.3921 193.536 51.2661 193.135 51.2661 192.64C51.2661 192.248 51.3828 191.889 51.6161 191.562C51.8494 191.236 52.1808 190.979 52.6101 190.792C53.0394 190.596 53.5294 190.498 54.0801 190.498C54.9294 190.498 55.6154 190.713 56.1381 191.142C56.6608 191.572 56.9408 192.16 56.9781 192.906H55.7041C55.6761 192.505 55.5128 192.183 55.2141 191.94C54.9248 191.698 54.5328 191.576 54.0381 191.576C53.5808 191.576 53.2168 191.674 52.9461 191.87C52.6754 192.066 52.5401 192.323 52.5401 192.64C52.5401 192.892 52.6194 193.102 52.7781 193.27C52.9461 193.429 53.1514 193.56 53.3941 193.662C53.6461 193.756 53.9914 193.863 54.4301 193.984C54.9808 194.134 55.4288 194.283 55.7741 194.432C56.1194 194.572 56.4134 194.787 56.6561 195.076C56.9081 195.366 57.0388 195.744 57.0481 196.21C57.0481 196.63 56.9314 197.008 56.6981 197.344C56.4648 197.68 56.1334 197.946 55.7041 198.142C55.2841 198.329 54.7988 198.422 54.2481 198.422ZM61.5626 198.422C60.9746 198.422 60.4472 198.324 59.9806 198.128C59.5139 197.923 59.1452 197.643 58.8746 197.288C58.6039 196.924 58.4546 196.509 58.4266 196.042H59.7426C59.7799 196.425 59.9572 196.738 60.2746 196.98C60.6012 197.223 61.0259 197.344 61.5486 197.344C62.0339 197.344 62.4166 197.237 62.6966 197.022C62.9766 196.808 63.1166 196.537 63.1166 196.21C63.1166 195.874 62.9672 195.627 62.6686 195.468C62.3699 195.3 61.9079 195.137 61.2826 194.978C60.7132 194.829 60.2466 194.68 59.8826 194.53C59.5279 194.372 59.2199 194.143 58.9586 193.844C58.7066 193.536 58.5806 193.135 58.5806 192.64C58.5806 192.248 58.6972 191.889 58.9306 191.562C59.1639 191.236 59.4952 190.979 59.9246 190.792C60.3539 190.596 60.8439 190.498 61.3946 190.498C62.2439 190.498 62.9299 190.713 63.4526 191.142C63.9752 191.572 64.2552 192.16 64.2926 192.906H63.0186C62.9906 192.505 62.8272 192.183 62.5286 191.94C62.2392 191.698 61.8472 191.576 61.3526 191.576C60.8952 191.576 60.5312 191.674 60.2606 191.87C59.9899 192.066 59.8546 192.323 59.8546 192.64C59.8546 192.892 59.9339 193.102 60.0926 193.27C60.2606 193.429 60.4659 193.56 60.7086 193.662C60.9606 193.756 61.3059 193.863 61.7446 193.984C62.2952 194.134 62.7432 194.283 63.0886 194.432C63.4339 194.572 63.7279 194.787 63.9706 195.076C64.2226 195.366 64.3532 195.744 64.3626 196.21C64.3626 196.63 64.2459 197.008 64.0126 197.344C63.7792 197.68 63.4479 197.946 63.0186 198.142C62.5986 198.329 62.1132 198.422 61.5626 198.422ZM66.819 189.378C66.5763 189.378 66.371 189.294 66.203 189.126C66.035 188.958 65.951 188.753 65.951 188.51C65.951 188.268 66.035 188.062 66.203 187.894C66.371 187.726 66.5763 187.642 66.819 187.642C67.0523 187.642 67.2483 187.726 67.407 187.894C67.575 188.062 67.659 188.268 67.659 188.51C67.659 188.753 67.575 188.958 67.407 189.126C67.2483 189.294 67.0523 189.378 66.819 189.378ZM67.435 190.624V198.296H66.161V190.624H67.435ZM72.9523 198.422C72.2337 198.422 71.5803 198.259 70.9923 197.932C70.4137 197.606 69.9563 197.144 69.6203 196.546C69.2937 195.94 69.1303 195.24 69.1303 194.446C69.1303 193.662 69.2983 192.972 69.6343 192.374C69.9797 191.768 70.4463 191.306 71.0343 190.988C71.6223 190.662 72.2803 190.498 73.0083 190.498C73.7363 190.498 74.3943 190.662 74.9823 190.988C75.5703 191.306 76.0323 191.763 76.3683 192.36C76.7137 192.958 76.8863 193.653 76.8863 194.446C76.8863 195.24 76.709 195.94 76.3543 196.546C76.009 197.144 75.5377 197.606 74.9403 197.932C74.343 198.259 73.6803 198.422 72.9523 198.422ZM72.9523 197.302C73.4097 197.302 73.839 197.195 74.2403 196.98C74.6417 196.766 74.9637 196.444 75.2063 196.014C75.4583 195.585 75.5843 195.062 75.5843 194.446C75.5843 193.83 75.463 193.308 75.2203 192.878C74.9777 192.449 74.6603 192.132 74.2683 191.926C73.8763 191.712 73.4517 191.604 72.9943 191.604C72.5277 191.604 72.0983 191.712 71.7063 191.926C71.3237 192.132 71.0157 192.449 70.7823 192.878C70.549 193.308 70.4323 193.83 70.4323 194.446C70.4323 195.072 70.5443 195.599 70.7683 196.028C71.0017 196.458 71.3097 196.78 71.6923 196.994C72.075 197.2 72.495 197.302 72.9523 197.302ZM82.2994 190.484C83.2327 190.484 83.9887 190.769 84.5674 191.338C85.1461 191.898 85.4354 192.71 85.4354 193.774V198.296H84.1754V193.956C84.1754 193.191 83.9841 192.608 83.6014 192.206C83.2187 191.796 82.6961 191.59 82.0334 191.59C81.3614 191.59 80.8247 191.8 80.4234 192.22C80.0314 192.64 79.8354 193.252 79.8354 194.054V198.296H78.5614V190.624H79.8354V191.716C80.0874 191.324 80.4281 191.021 80.8574 190.806C81.2961 190.592 81.7767 190.484 82.2994 190.484ZM87.0405 194.432C87.0405 193.648 87.1992 192.962 87.5165 192.374C87.8338 191.777 88.2678 191.315 88.8185 190.988C89.3785 190.662 89.9992 190.498 90.6805 190.498C91.3525 190.498 91.9358 190.643 92.4305 190.932C92.9252 191.222 93.2938 191.586 93.5365 192.024V190.624H94.8245V198.296H93.5365V196.868C93.2845 197.316 92.9065 197.69 92.4025 197.988C91.9078 198.278 91.3292 198.422 90.6665 198.422C89.9852 198.422 89.3692 198.254 88.8185 197.918C88.2678 197.582 87.8338 197.111 87.5165 196.504C87.1992 195.898 87.0405 195.207 87.0405 194.432ZM93.5365 194.446C93.5365 193.868 93.4198 193.364 93.1865 192.934C92.9532 192.505 92.6358 192.178 92.2345 191.954C91.8425 191.721 91.4085 191.604 90.9325 191.604C90.4565 191.604 90.0225 191.716 89.6305 191.94C89.2385 192.164 88.9258 192.491 88.6925 192.92C88.4592 193.35 88.3425 193.854 88.3425 194.432C88.3425 195.02 88.4592 195.534 88.6925 195.972C88.9258 196.402 89.2385 196.733 89.6305 196.966C90.0225 197.19 90.4565 197.302 90.9325 197.302C91.4085 197.302 91.8425 197.19 92.2345 196.966C92.6358 196.733 92.9532 196.402 93.1865 195.972C93.4198 195.534 93.5365 195.025 93.5365 194.446ZM98.5314 191.674V196.196C98.5314 196.57 98.6108 196.836 98.7694 196.994C98.9281 197.144 99.2034 197.218 99.5954 197.218H100.533V198.296H99.3854C98.6761 198.296 98.1441 198.133 97.7894 197.806C97.4348 197.48 97.2574 196.943 97.2574 196.196V191.674H96.2634V190.624H97.2574V188.692H98.5314V190.624H100.533V191.674H98.5314ZM109.077 194.166C109.077 194.409 109.063 194.666 109.035 194.936H102.903C102.95 195.692 103.206 196.285 103.673 196.714C104.149 197.134 104.723 197.344 105.395 197.344C105.946 197.344 106.403 197.218 106.767 196.966C107.14 196.705 107.402 196.36 107.551 195.93H108.923C108.718 196.668 108.307 197.27 107.691 197.736C107.075 198.194 106.31 198.422 105.395 198.422C104.667 198.422 104.014 198.259 103.435 197.932C102.866 197.606 102.418 197.144 102.091 196.546C101.764 195.94 101.601 195.24 101.601 194.446C101.601 193.653 101.76 192.958 102.077 192.36C102.394 191.763 102.838 191.306 103.407 190.988C103.986 190.662 104.648 190.498 105.395 190.498C106.123 190.498 106.767 190.657 107.327 190.974C107.887 191.292 108.316 191.73 108.615 192.29C108.923 192.841 109.077 193.466 109.077 194.166ZM107.761 193.9C107.761 193.415 107.654 193 107.439 192.654C107.224 192.3 106.93 192.034 106.557 191.856C106.193 191.67 105.787 191.576 105.339 191.576C104.695 191.576 104.144 191.782 103.687 192.192C103.239 192.603 102.982 193.172 102.917 193.9H107.761ZM114.015 194.432C114.015 193.648 114.174 192.962 114.491 192.374C114.808 191.777 115.242 191.315 115.793 190.988C116.353 190.662 116.974 190.498 117.655 190.498C118.327 190.498 118.91 190.643 119.405 190.932C119.9 191.222 120.268 191.586 120.511 192.024V190.624H121.799V198.296H120.511V196.868C120.259 197.316 119.881 197.69 119.377 197.988C118.882 198.278 118.304 198.422 117.641 198.422C116.96 198.422 116.344 198.254 115.793 197.918C115.242 197.582 114.808 197.111 114.491 196.504C114.174 195.898 114.015 195.207 114.015 194.432ZM120.511 194.446C120.511 193.868 120.394 193.364 120.161 192.934C119.928 192.505 119.61 192.178 119.209 191.954C118.817 191.721 118.383 191.604 117.907 191.604C117.431 191.604 116.997 191.716 116.605 191.94C116.213 192.164 115.9 192.491 115.667 192.92C115.434 193.35 115.317 193.854 115.317 194.432C115.317 195.02 115.434 195.534 115.667 195.972C115.9 196.402 116.213 196.733 116.605 196.966C116.997 197.19 117.431 197.302 117.907 197.302C118.383 197.302 118.817 197.19 119.209 196.966C119.61 196.733 119.928 196.402 120.161 195.972C120.394 195.534 120.511 195.025 120.511 194.446ZM125.226 192.052C125.487 191.595 125.87 191.222 126.374 190.932C126.878 190.643 127.452 190.498 128.096 190.498C128.787 190.498 129.407 190.662 129.958 190.988C130.509 191.315 130.943 191.777 131.26 192.374C131.577 192.962 131.736 193.648 131.736 194.432C131.736 195.207 131.577 195.898 131.26 196.504C130.943 197.111 130.504 197.582 129.944 197.918C129.393 198.254 128.777 198.422 128.096 198.422C127.433 198.422 126.85 198.278 126.346 197.988C125.851 197.699 125.478 197.33 125.226 196.882V198.296H123.952V187.936H125.226V192.052ZM130.434 194.432C130.434 193.854 130.317 193.35 130.084 192.92C129.851 192.491 129.533 192.164 129.132 191.94C128.74 191.716 128.306 191.604 127.83 191.604C127.363 191.604 126.929 191.721 126.528 191.954C126.136 192.178 125.819 192.51 125.576 192.948C125.343 193.378 125.226 193.877 125.226 194.446C125.226 195.025 125.343 195.534 125.576 195.972C125.819 196.402 126.136 196.733 126.528 196.966C126.929 197.19 127.363 197.302 127.83 197.302C128.306 197.302 128.74 197.19 129.132 196.966C129.533 196.733 129.851 196.402 130.084 195.972C130.317 195.534 130.434 195.02 130.434 194.432ZM136.759 198.422C136.04 198.422 135.387 198.259 134.799 197.932C134.22 197.606 133.763 197.144 133.427 196.546C133.1 195.94 132.937 195.24 132.937 194.446C132.937 193.662 133.105 192.972 133.441 192.374C133.786 191.768 134.253 191.306 134.841 190.988C135.429 190.662 136.087 190.498 136.815 190.498C137.543 190.498 138.201 190.662 138.789 190.988C139.377 191.306 139.839 191.763 140.175 192.36C140.52 192.958 140.693 193.653 140.693 194.446C140.693 195.24 140.516 195.94 140.161 196.546C139.816 197.144 139.344 197.606 138.747 197.932C138.15 198.259 137.487 198.422 136.759 198.422ZM136.759 197.302C137.216 197.302 137.646 197.195 138.047 196.98C138.448 196.766 138.77 196.444 139.013 196.014C139.265 195.585 139.391 195.062 139.391 194.446C139.391 193.83 139.27 193.308 139.027 192.878C138.784 192.449 138.467 192.132 138.075 191.926C137.683 191.712 137.258 191.604 136.801 191.604C136.334 191.604 135.905 191.712 135.513 191.926C135.13 192.132 134.822 192.449 134.589 192.878C134.356 193.308 134.239 193.83 134.239 194.446C134.239 195.072 134.351 195.599 134.575 196.028C134.808 196.458 135.116 196.78 135.499 196.994C135.882 197.2 136.302 197.302 136.759 197.302ZM149.172 190.624V198.296H147.898V197.162C147.655 197.554 147.315 197.862 146.876 198.086C146.447 198.301 145.971 198.408 145.448 198.408C144.851 198.408 144.314 198.287 143.838 198.044C143.362 197.792 142.984 197.419 142.704 196.924C142.433 196.43 142.298 195.828 142.298 195.118V190.624H143.558V194.95C143.558 195.706 143.749 196.29 144.132 196.7C144.515 197.102 145.037 197.302 145.7 197.302C146.381 197.302 146.918 197.092 147.31 196.672C147.702 196.252 147.898 195.641 147.898 194.838V190.624H149.172ZM152.877 191.674V196.196C152.877 196.57 152.956 196.836 153.115 196.994C153.274 197.144 153.549 197.218 153.941 197.218H154.879V198.296H153.731C153.022 198.296 152.49 198.133 152.135 197.806C151.78 197.48 151.603 196.943 151.603 196.196V191.674H150.609V190.624H151.603V188.692H152.877V190.624H154.879V191.674H152.877ZM161.709 191.674V196.196C161.709 196.57 161.788 196.836 161.947 196.994C162.106 197.144 162.381 197.218 162.773 197.218H163.711V198.296H162.563C161.854 198.296 161.322 198.133 160.967 197.806C160.612 197.48 160.435 196.943 160.435 196.196V191.674H159.441V190.624H160.435V188.692H161.709V190.624H163.711V191.674H161.709ZM172.255 194.166C172.255 194.409 172.241 194.666 172.213 194.936H166.081C166.127 195.692 166.384 196.285 166.851 196.714C167.327 197.134 167.901 197.344 168.573 197.344C169.123 197.344 169.581 197.218 169.945 196.966C170.318 196.705 170.579 196.36 170.729 195.93H172.101C171.895 196.668 171.485 197.27 170.869 197.736C170.253 198.194 169.487 198.422 168.573 198.422C167.845 198.422 167.191 198.259 166.613 197.932C166.043 197.606 165.595 197.144 165.269 196.546C164.942 195.94 164.779 195.24 164.779 194.446C164.779 193.653 164.937 192.958 165.255 192.36C165.572 191.763 166.015 191.306 166.585 190.988C167.163 190.662 167.826 190.498 168.573 190.498C169.301 190.498 169.945 190.657 170.505 190.974C171.065 191.292 171.494 191.73 171.793 192.29C172.101 192.841 172.255 193.466 172.255 194.166ZM170.939 193.9C170.939 193.415 170.831 193 170.617 192.654C170.402 192.3 170.108 192.034 169.735 191.856C169.371 191.67 168.965 191.576 168.517 191.576C167.873 191.576 167.322 191.782 166.865 192.192C166.417 192.603 166.16 193.172 166.095 193.9H170.939ZM173.46 194.432C173.46 193.648 173.619 192.962 173.936 192.374C174.254 191.777 174.688 191.315 175.238 190.988C175.798 190.662 176.419 190.498 177.1 190.498C177.772 190.498 178.356 190.643 178.85 190.932C179.345 191.222 179.714 191.586 179.956 192.024V190.624H181.244V198.296H179.956V196.868C179.704 197.316 179.326 197.69 178.822 197.988C178.328 198.278 177.749 198.422 177.086 198.422C176.405 198.422 175.789 198.254 175.238 197.918C174.688 197.582 174.254 197.111 173.936 196.504C173.619 195.898 173.46 195.207 173.46 194.432ZM179.956 194.446C179.956 193.868 179.84 193.364 179.606 192.934C179.373 192.505 179.056 192.178 178.654 191.954C178.262 191.721 177.828 191.604 177.352 191.604C176.876 191.604 176.442 191.716 176.05 191.94C175.658 192.164 175.346 192.491 175.112 192.92C174.879 193.35 174.762 193.854 174.762 194.432C174.762 195.02 174.879 195.534 175.112 195.972C175.346 196.402 175.658 196.733 176.05 196.966C176.442 197.19 176.876 197.302 177.352 197.302C177.828 197.302 178.262 197.19 178.654 196.966C179.056 196.733 179.373 196.402 179.606 195.972C179.84 195.534 179.956 195.025 179.956 194.446ZM182.921 194.446C182.921 193.653 183.08 192.962 183.397 192.374C183.715 191.777 184.153 191.315 184.713 190.988C185.283 190.662 185.931 190.498 186.659 190.498C187.602 190.498 188.377 190.727 188.983 191.184C189.599 191.642 190.005 192.276 190.201 193.088H188.829C188.699 192.622 188.442 192.253 188.059 191.982C187.686 191.712 187.219 191.576 186.659 191.576C185.931 191.576 185.343 191.828 184.895 192.332C184.447 192.827 184.223 193.532 184.223 194.446C184.223 195.37 184.447 196.084 184.895 196.588C185.343 197.092 185.931 197.344 186.659 197.344C187.219 197.344 187.686 197.214 188.059 196.952C188.433 196.691 188.689 196.318 188.829 195.832H190.201C189.996 196.616 189.585 197.246 188.969 197.722C188.353 198.189 187.583 198.422 186.659 198.422C185.931 198.422 185.283 198.259 184.713 197.932C184.153 197.606 183.715 197.144 183.397 196.546C183.08 195.949 182.921 195.249 182.921 194.446ZM195.709 190.484C196.288 190.484 196.811 190.61 197.277 190.862C197.744 191.105 198.108 191.474 198.369 191.968C198.64 192.463 198.775 193.065 198.775 193.774V198.296H197.515V193.956C197.515 193.191 197.324 192.608 196.941 192.206C196.559 191.796 196.036 191.59 195.373 191.59C194.701 191.59 194.165 191.8 193.763 192.22C193.371 192.64 193.175 193.252 193.175 194.054V198.296H191.901V187.936H193.175V191.716C193.427 191.324 193.773 191.021 194.211 190.806C194.659 190.592 195.159 190.484 195.709 190.484ZM201.514 189.378C201.272 189.378 201.066 189.294 200.898 189.126C200.73 188.958 200.646 188.753 200.646 188.51C200.646 188.268 200.73 188.062 200.898 187.894C201.066 187.726 201.272 187.642 201.514 187.642C201.748 187.642 201.944 187.726 202.102 187.894C202.27 188.062 202.354 188.268 202.354 188.51C202.354 188.753 202.27 188.958 202.102 189.126C201.944 189.294 201.748 189.378 201.514 189.378ZM202.13 190.624V198.296H200.856V190.624H202.13ZM208.04 190.484C208.973 190.484 209.729 190.769 210.308 191.338C210.886 191.898 211.176 192.71 211.176 193.774V198.296H209.916V193.956C209.916 193.191 209.724 192.608 209.342 192.206C208.959 191.796 208.436 191.59 207.774 191.59C207.102 191.59 206.565 191.8 206.164 192.22C205.772 192.64 205.576 193.252 205.576 194.054V198.296H204.302V190.624H205.576V191.716C205.828 191.324 206.168 191.021 206.598 190.806C207.036 190.592 207.517 190.484 208.04 190.484ZM216.421 190.498C217.083 190.498 217.662 190.643 218.157 190.932C218.661 191.222 219.034 191.586 219.277 192.024V190.624H220.565V198.464C220.565 199.164 220.415 199.785 220.117 200.326C219.818 200.877 219.389 201.306 218.829 201.614C218.278 201.922 217.634 202.076 216.897 202.076C215.889 202.076 215.049 201.838 214.377 201.362C213.705 200.886 213.308 200.238 213.187 199.416H214.447C214.587 199.883 214.876 200.256 215.315 200.536C215.753 200.826 216.281 200.97 216.897 200.97C217.597 200.97 218.166 200.751 218.605 200.312C219.053 199.874 219.277 199.258 219.277 198.464V196.854C219.025 197.302 218.651 197.676 218.157 197.974C217.662 198.273 217.083 198.422 216.421 198.422C215.739 198.422 215.119 198.254 214.559 197.918C214.008 197.582 213.574 197.111 213.257 196.504C212.939 195.898 212.781 195.207 212.781 194.432C212.781 193.648 212.939 192.962 213.257 192.374C213.574 191.777 214.008 191.315 214.559 190.988C215.119 190.662 215.739 190.498 216.421 190.498ZM219.277 194.446C219.277 193.868 219.16 193.364 218.927 192.934C218.693 192.505 218.376 192.178 217.975 191.954C217.583 191.721 217.149 191.604 216.673 191.604C216.197 191.604 215.763 191.716 215.371 191.94C214.979 192.164 214.666 192.491 214.433 192.92C214.199 193.35 214.083 193.854 214.083 194.432C214.083 195.02 214.199 195.534 214.433 195.972C214.666 196.402 214.979 196.733 215.371 196.966C215.763 197.19 216.197 197.302 216.673 197.302C217.149 197.302 217.583 197.19 217.975 196.966C218.376 196.733 218.693 196.402 218.927 195.972C219.16 195.534 219.277 195.025 219.277 194.446Z" fill="#5C5C5C"/>
<rect x="61.9999" y="2" width="85" height="85" rx="42.5" fill="#EFB411"/>
<path d="M117.336 32.3318V28.5077V5.94656C117.336 3.68288 118.942 1.49792 121.322 1.49792H166.785C169.163 1.49792 170.77 3.68242 170.771 5.94643V5.94656V54.1074C170.771 56.3725 169.162 58.5542 166.785 58.5542H153.704L160.925 96.8654L117.336 32.3318ZM117.336 32.3318L119.595 29.246L121.573 26.5436L121.573 26.543C122.342 25.4912 123.333 24.8685 124.363 24.6094L125.308 24.3717V23.3971V10.394M117.336 32.3318L125.308 10.394M125.308 10.394H162.798V49.6598H125.308V43.9183V40.0937L123.049 43.1801L121.818 44.8625C121.818 44.8628 121.818 44.8632 121.817 44.8635C120.928 46.0764 119.712 46.7798 118.451 46.9176L117.336 47.0393V48.1602V54.1074C117.336 56.3721 118.943 58.5542 121.322 58.5542H134.579L127.357 96.8671L127.357 96.8673C126.928 99.1464 128.126 101.658 130.432 102.252L130.433 102.253C132.812 102.863 134.909 101.068 135.342 98.7548C135.342 98.7543 135.342 98.7538 135.343 98.7532L142.919 58.5544H145.363L152.94 98.7553L152.94 98.7555C153.319 100.766 154.913 102.371 156.932 102.368M125.308 10.394L159.697 97.0986L160.925 96.8671C161.357 99.1473 160.159 101.658 157.854 102.252L157.853 102.252C157.542 102.332 157.231 102.368 156.932 102.368M156.932 102.368C156.931 102.368 156.931 102.368 156.93 102.368V101.118L156.932 102.368Z" stroke="#5C5C5C" stroke-width="2.5"/>
<path d="M145.053 21.4235C144.838 20.7885 144.226 20.4766 143.683 20.728L127.565 27.3758C126.086 26.0375 123.951 26.2766 122.718 27.9531L117.603 34.9324L113.068 30.3899C113.098 30.765 113.166 31.1295 113.166 31.5144V41.3756L115.689 43.9018C117.186 45.4002 119.426 45.1686 120.678 43.4529L126.767 35.1331L131.678 31.7762L144.601 22.941C145.048 22.64 145.246 21.9967 145.053 21.4235Z" fill="#5C5C5C"/>
<path d="M103.211 23.193H100.173C97.8474 23.193 95.8024 24.5138 94.5026 26.527L85.179 36.5574C83.7263 38.0695 83.5945 40.6888 84.9027 42.3966L92.5095 52.3178C93.8064 54.0145 96.0513 54.1646 97.5039 52.6396C98.9603 51.1144 99.0833 48.502 97.7782 46.8023L92.535 39.9607L99.9824 32.1736L95.645 39.0595L99.8879 44.5948C102.232 47.6562 102.011 52.36 99.3926 55.1017C97.6047 56.9746 95.1648 57.414 93.0495 56.5503C93.0495 56.5503 93.0824 75.6757 93.0824 96.1578C93.0824 98.8973 94.9827 101.118 97.3274 101.118C99.6696 101.118 101.572 98.8973 101.572 96.1578C101.572 75.682 101.572 87.3666 101.572 66.5952H104.404C104.404 87.3515 104.404 75.6757 104.404 96.1578C104.404 97.588 104.063 98.9125 103.518 100.085C104.231 100.725 105.117 101.118 106.083 101.118C108.429 101.118 110.329 98.8973 110.329 96.1578C110.329 75.682 110.335 84.2656 110.335 31.5153C110.335 26.9189 107.146 23.193 103.211 23.193Z" fill="#5C5C5C"/>
<path d="M97.9101 20.2155C99.0452 20.9048 100.319 21.3326 101.688 21.3326C103.061 21.3326 104.335 20.9048 105.473 20.2142C108.13 18.6057 109.962 15.4034 109.962 11.6659C109.962 6.32684 106.258 2 101.688 2C97.1193 2 93.4161 6.32684 93.4161 11.6659C93.4163 15.4055 95.2496 18.609 97.9101 20.2155Z" fill="#5C5C5C"/>
</svg>
