<svg width="111" height="104" viewBox="0 0 111 104" fill="none" xmlns="http://www.w3.org/2000/svg">
<rect y="2" width="85" height="85" rx="42.5" fill="#EFB411"/>
<path d="M55.3364 32.3318V28.5077V5.94656C55.3364 3.68288 56.9423 1.49792 59.3222 1.49792H104.785C107.163 1.49792 108.771 3.68242 108.771 5.94643V5.94656V54.1074C108.771 56.3725 107.162 58.5542 104.785 58.5542H91.7037L98.9247 96.8654L55.3364 32.3318ZM55.3364 32.3318L57.595 29.246L59.5731 26.5436L59.5735 26.543C60.3425 25.4912 61.3328 24.8685 62.363 24.6094L63.3081 24.3717V23.3971V10.394M55.3364 32.3318L63.3081 10.394M63.3081 10.394H100.799V49.6598H63.3083V43.9183V40.0937L61.0496 43.1801L59.8183 44.8625C59.8181 44.8628 59.8179 44.8631 59.8177 44.8634C59.8176 44.8634 59.8176 44.8635 59.8176 44.8635C58.9277 46.0763 57.712 46.7798 56.4506 46.9176L55.3364 47.0393V48.1602V54.1074C55.3364 56.3721 56.9432 58.5542 59.3222 58.5542H72.5795L65.3575 96.8671L65.3575 96.8673C64.9283 99.1464 66.1256 101.658 68.4316 102.252L68.4326 102.253C70.8126 102.863 72.9102 101.068 73.3426 98.7539C73.3426 98.7537 73.3427 98.7534 73.3427 98.7532L80.9195 58.5544H83.3631L90.9402 98.7553L90.9403 98.7555C91.3196 100.766 92.9135 102.371 94.932 102.368M63.3081 10.394L98.925 96.8671C99.3573 99.1473 98.1596 101.658 95.8541 102.252L95.8535 102.252C95.5421 102.332 95.2315 102.368 94.932 102.368M94.932 102.368C94.9315 102.368 94.9309 102.368 94.9303 102.368V101.118L94.932 102.368Z" stroke="#5C5C5C" stroke-width="2.5"/>
<path d="M83.0536 21.4235C82.8379 20.7885 82.2266 20.4766 81.6835 20.728L65.565 27.3758C64.0857 26.0375 61.9514 26.2766 60.7178 27.9531L55.6033 34.9324L51.0682 30.3899C51.0981 30.765 51.166 31.1295 51.166 31.5144V41.3756L53.6892 43.9018C55.1865 45.4002 57.4263 45.1686 58.6783 43.4529L64.7671 35.1331L69.6777 31.7762L82.6011 22.941C83.048 22.64 83.246 21.9967 83.0536 21.4235Z" fill="#5C5C5C"/>
<path d="M41.2106 23.193H38.1732C35.8475 23.193 33.8026 24.5138 32.5027 26.527L23.1792 36.5574C21.7264 38.0695 21.5946 40.6888 22.9029 42.3966L30.5096 52.3178C31.8065 54.0145 34.0514 54.1646 35.504 52.6396C36.9604 51.1144 37.0834 48.502 35.7783 46.8023L30.5351 39.9607L37.9825 32.1736L33.6451 39.0595L37.888 44.5948C40.2325 47.6562 40.0115 52.36 37.3927 55.1017C35.6048 56.9746 33.1649 57.414 31.0496 56.5503C31.0496 56.5503 31.0825 75.6757 31.0825 96.1578C31.0825 98.8973 32.9828 101.118 35.3275 101.118C37.6697 101.118 39.5725 98.8973 39.5725 96.1578C39.5725 75.682 39.5725 87.3666 39.5725 66.5952H42.404C42.404 87.3515 42.404 75.6757 42.404 96.1578C42.404 97.588 42.0627 98.9125 41.5185 100.085C42.2309 100.725 43.1172 101.118 44.0833 101.118C46.4292 101.118 48.3295 98.8973 48.3295 96.1578C48.3295 75.682 48.3349 84.2656 48.3349 31.5153C48.3352 26.9189 45.1465 23.193 41.2106 23.193Z" fill="#5C5C5C"/>
<path d="M35.9103 20.2155C37.0453 20.9048 38.3196 21.3326 39.6885 21.3326C41.0608 21.3326 42.3352 20.9048 43.4735 20.2142C46.1305 18.6057 47.9619 15.4034 47.9619 11.6659C47.9619 6.32684 44.2578 2 39.6883 2C35.1195 2 31.4162 6.32684 31.4162 11.6659C31.4164 15.4055 33.2498 18.609 35.9103 20.2155Z" fill="#5C5C5C"/>
</svg>
