<svg width="276" height="206" viewBox="0 0 276 206" fill="none" xmlns="http://www.w3.org/2000/svg">
<path d="M71.3897 150V146.48H66.3297V136.66H62.2897V150H71.3897ZM77.6524 150.24C79.0924 150.24 80.8124 149.86 81.7724 149.04L80.2924 146.82C79.8124 147.24 78.6124 147.5 78.0724 147.5C76.8924 147.5 76.1924 146.9 75.9924 146.28H82.5524V145.54C82.5524 142.14 80.3724 140.1 77.5324 140.1C74.4124 140.1 72.2724 142.36 72.2724 145.16C72.2724 148.34 74.6324 150.24 77.6524 150.24ZM79.1324 144H75.9524C76.0724 143.56 76.4324 142.84 77.5324 142.84C78.6924 142.84 79.0324 143.58 79.1324 144ZM92.9718 150V144.16C92.9718 140.94 90.6318 140.1 88.2318 140.1C86.7718 140.1 84.9718 140.52 83.6718 141.56L84.8918 143.78C85.6518 143.2 86.6718 142.84 87.5718 142.84C88.7518 142.84 89.3718 143.36 89.3718 144.04V145.04C88.8518 144.38 87.7118 143.98 86.4518 143.98C85.0118 143.98 83.1318 144.66 83.1318 147.06C83.1318 149.26 85.0118 150.24 86.4518 150.24C87.6518 150.24 88.8318 149.76 89.3718 149.08V150H92.9718ZM87.9518 147.9C87.3518 147.9 86.6918 147.72 86.6918 147.12C86.6918 146.52 87.3518 146.32 87.9518 146.32C88.5118 146.32 89.1318 146.5 89.3718 146.84V147.38C89.1318 147.72 88.5118 147.9 87.9518 147.9ZM98.5636 150V144.08C98.9636 143.6 99.9436 143.4 100.704 143.4C101.044 143.4 101.344 143.44 101.524 143.5V140.06C100.424 140.06 99.1636 140.7 98.5636 141.4V140.34H94.9636V150H98.5636ZM112.897 150V143.14C112.897 141.46 111.917 140.1 109.677 140.1C107.977 140.1 106.917 140.8 106.357 141.44V140.34H102.757V150H106.357V144.04C106.657 143.7 107.077 143.28 107.897 143.28C108.757 143.28 109.297 143.66 109.297 144.66V150H112.897ZM133.563 150L128.643 136.66H123.563L118.643 150H123.223L123.703 148.44H128.503L128.983 150H133.563ZM127.423 144.92H124.783L126.103 140.62L127.423 144.92ZM144.342 150V143.14C144.342 141.46 143.362 140.1 141.122 140.1C139.422 140.1 138.362 140.8 137.802 141.44V140.34H134.202V150H137.802V144.04C138.102 143.7 138.522 143.28 139.342 143.28C140.202 143.28 140.742 143.66 140.742 144.66V150H144.342ZM146.25 153.76C146.59 153.86 147.39 153.92 147.65 153.92C149.69 153.86 151.29 153.44 152.15 151.2L156.35 140.34H152.55L150.69 145.86L148.85 140.34H145.05L148.85 150.16L148.77 150.36C148.65 150.62 148.21 150.74 147.51 150.74C147.27 150.74 146.97 150.68 146.75 150.56L146.25 153.76ZM169.593 150L172.393 140.34H168.673L167.393 145.66L165.713 140.34H162.493L160.793 145.66L159.513 140.34H155.813L158.613 150H162.533L164.093 144.6L165.673 150H169.593ZM183.307 150V143.1C183.307 141.42 182.327 140.1 180.087 140.1C178.387 140.1 177.327 140.8 176.767 141.44V136.66H173.167V150H176.767V144.04C177.067 143.7 177.487 143.28 178.307 143.28C179.167 143.28 179.707 143.62 179.707 144.62V150H183.307ZM190.035 150.24C191.475 150.24 193.195 149.86 194.155 149.04L192.675 146.82C192.195 147.24 190.995 147.5 190.455 147.5C189.275 147.5 188.575 146.9 188.375 146.28H194.935V145.54C194.935 142.14 192.755 140.1 189.915 140.1C186.795 140.1 184.655 142.36 184.655 145.16C184.655 148.34 187.015 150.24 190.035 150.24ZM191.515 144H188.335C188.455 143.56 188.815 142.84 189.915 142.84C191.075 142.84 191.415 143.58 191.515 144ZM199.775 150V144.08C200.175 143.6 201.155 143.4 201.915 143.4C202.255 143.4 202.555 143.44 202.735 143.5V140.06C201.635 140.06 200.375 140.7 199.775 141.4V140.34H196.175V150H199.775ZM208.688 150.24C210.128 150.24 211.848 149.86 212.808 149.04L211.328 146.82C210.848 147.24 209.648 147.5 209.108 147.5C207.928 147.5 207.228 146.9 207.028 146.28H213.588V145.54C213.588 142.14 211.408 140.1 208.568 140.1C205.448 140.1 203.308 142.36 203.308 145.16C203.308 148.34 205.668 150.24 208.688 150.24ZM210.168 144H206.988C207.108 143.56 207.468 142.84 208.568 142.84C209.728 142.84 210.068 143.58 210.168 144Z" fill="#1F5FBC"/>
<path d="M7.77051 180.902C7.12651 180.902 6.54784 180.79 6.03451 180.566C5.53051 180.333 5.13384 180.016 4.84451 179.614C4.55518 179.204 4.40584 178.732 4.39651 178.2H5.75451C5.80118 178.658 5.98784 179.045 6.31451 179.362C6.65051 179.67 7.13584 179.824 7.77051 179.824C8.37718 179.824 8.85318 179.675 9.19851 179.376C9.55318 179.068 9.73051 178.676 9.73051 178.2C9.73051 177.827 9.62784 177.524 9.42251 177.29C9.21718 177.057 8.96051 176.88 8.65251 176.758C8.34451 176.637 7.92918 176.506 7.40651 176.366C6.76251 176.198 6.24451 176.03 5.85251 175.862C5.46984 175.694 5.13851 175.433 4.85851 175.078C4.58784 174.714 4.45251 174.229 4.45251 173.622C4.45251 173.09 4.58784 172.619 4.85851 172.208C5.12918 171.798 5.50718 171.48 5.99251 171.256C6.48718 171.032 7.05184 170.92 7.68651 170.92C8.60118 170.92 9.34784 171.149 9.92651 171.606C10.5145 172.064 10.8458 172.67 10.9205 173.426H9.52051C9.47384 173.053 9.27784 172.726 8.93251 172.446C8.58718 172.157 8.12984 172.012 7.56051 172.012C7.02851 172.012 6.59451 172.152 6.25851 172.432C5.92251 172.703 5.75451 173.086 5.75451 173.58C5.75451 173.935 5.85251 174.224 6.04851 174.448C6.25384 174.672 6.50118 174.845 6.79051 174.966C7.08918 175.078 7.50451 175.209 8.03651 175.358C8.68051 175.536 9.19851 175.713 9.59051 175.89C9.98251 176.058 10.3185 176.324 10.5985 176.688C10.8785 177.043 11.0185 177.528 11.0185 178.144C11.0185 178.62 10.8925 179.068 10.6405 179.488C10.3885 179.908 10.0152 180.249 9.52051 180.51C9.02584 180.772 8.44251 180.902 7.77051 180.902ZM23.1133 173.132L20.7193 180.804H19.4033L17.5553 174.714L15.7073 180.804H14.3913L11.9833 173.132H13.2853L15.0493 179.572L16.9533 173.132H18.2553L20.1173 179.586L21.8533 173.132H23.1133ZM25.0357 171.886C24.793 171.886 24.5877 171.802 24.4197 171.634C24.2517 171.466 24.1677 171.261 24.1677 171.018C24.1677 170.776 24.2517 170.57 24.4197 170.402C24.5877 170.234 24.793 170.15 25.0357 170.15C25.269 170.15 25.465 170.234 25.6237 170.402C25.7917 170.57 25.8757 170.776 25.8757 171.018C25.8757 171.261 25.7917 171.466 25.6237 171.634C25.465 171.802 25.269 171.886 25.0357 171.886ZM25.6517 173.132V180.804H24.3777V173.132H25.6517ZM29.377 174.182V178.704C29.377 179.078 29.4563 179.344 29.615 179.502C29.7737 179.652 30.049 179.726 30.441 179.726H31.379V180.804H30.231C29.5217 180.804 28.9897 180.641 28.635 180.314C28.2803 179.988 28.103 179.451 28.103 178.704V174.182H27.109V173.132H28.103V171.2H29.377V173.132H31.379V174.182H29.377ZM32.4466 176.954C32.4466 176.161 32.6053 175.47 32.9226 174.882C33.2399 174.285 33.6786 173.823 34.2386 173.496C34.8079 173.17 35.4566 173.006 36.1846 173.006C37.1273 173.006 37.9019 173.235 38.5086 173.692C39.1246 174.15 39.5306 174.784 39.7266 175.596H38.3546C38.2239 175.13 37.9673 174.761 37.5846 174.49C37.2113 174.22 36.7446 174.084 36.1846 174.084C35.4566 174.084 34.8686 174.336 34.4206 174.84C33.9726 175.335 33.7486 176.04 33.7486 176.954C33.7486 177.878 33.9726 178.592 34.4206 179.096C34.8686 179.6 35.4566 179.852 36.1846 179.852C36.7446 179.852 37.2113 179.722 37.5846 179.46C37.9579 179.199 38.2146 178.826 38.3546 178.34H39.7266C39.5213 179.124 39.1106 179.754 38.4946 180.23C37.8786 180.697 37.1086 180.93 36.1846 180.93C35.4566 180.93 34.8079 180.767 34.2386 180.44C33.6786 180.114 33.2399 179.652 32.9226 179.054C32.6053 178.457 32.4466 177.757 32.4466 176.954ZM45.2345 172.992C45.8132 172.992 46.3358 173.118 46.8025 173.37C47.2692 173.613 47.6332 173.982 47.8945 174.476C48.1652 174.971 48.3005 175.573 48.3005 176.282V180.804H47.0405V176.464C47.0405 175.699 46.8492 175.116 46.4665 174.714C46.0838 174.304 45.5612 174.098 44.8985 174.098C44.2265 174.098 43.6898 174.308 43.2885 174.728C42.8965 175.148 42.7005 175.76 42.7005 176.562V180.804H41.4265V170.444H42.7005V174.224C42.9525 173.832 43.2978 173.529 43.7365 173.314C44.1845 173.1 44.6838 172.992 45.2345 172.992ZM55.388 174.56C55.6493 174.103 56.032 173.73 56.536 173.44C57.04 173.151 57.614 173.006 58.258 173.006C58.9487 173.006 59.5693 173.17 60.12 173.496C60.6707 173.823 61.1047 174.285 61.422 174.882C61.7393 175.47 61.898 176.156 61.898 176.94C61.898 177.715 61.7393 178.406 61.422 179.012C61.1047 179.619 60.666 180.09 60.106 180.426C59.5553 180.762 58.9393 180.93 58.258 180.93C57.5953 180.93 57.012 180.786 56.508 180.496C56.0133 180.207 55.64 179.838 55.388 179.39V180.804H54.114V170.444H55.388V174.56ZM60.596 176.94C60.596 176.362 60.4793 175.858 60.246 175.428C60.0127 174.999 59.6953 174.672 59.294 174.448C58.902 174.224 58.468 174.112 57.992 174.112C57.5253 174.112 57.0913 174.229 56.69 174.462C56.298 174.686 55.9807 175.018 55.738 175.456C55.5047 175.886 55.388 176.385 55.388 176.954C55.388 177.533 55.5047 178.042 55.738 178.48C55.9807 178.91 56.298 179.241 56.69 179.474C57.0913 179.698 57.5253 179.81 57.992 179.81C58.468 179.81 58.902 179.698 59.294 179.474C59.6953 179.241 60.0127 178.91 60.246 178.48C60.4793 178.042 60.596 177.528 60.596 176.94ZM70.5749 176.674C70.5749 176.917 70.5609 177.174 70.5329 177.444H64.4009C64.4476 178.2 64.7043 178.793 65.1709 179.222C65.6469 179.642 66.2209 179.852 66.8929 179.852C67.4436 179.852 67.9009 179.726 68.2649 179.474C68.6383 179.213 68.8996 178.868 69.0489 178.438H70.4209C70.2156 179.176 69.8049 179.778 69.1889 180.244C68.5729 180.702 67.8076 180.93 66.8929 180.93C66.1649 180.93 65.5116 180.767 64.9329 180.44C64.3636 180.114 63.9156 179.652 63.5889 179.054C63.2623 178.448 63.0989 177.748 63.0989 176.954C63.0989 176.161 63.2576 175.466 63.5749 174.868C63.8923 174.271 64.3356 173.814 64.9049 173.496C65.4836 173.17 66.1463 173.006 66.8929 173.006C67.6209 173.006 68.2649 173.165 68.8249 173.482C69.3849 173.8 69.8143 174.238 70.1129 174.798C70.4209 175.349 70.5749 175.974 70.5749 176.674ZM69.2589 176.408C69.2589 175.923 69.1516 175.508 68.9369 175.162C68.7223 174.808 68.4283 174.542 68.0549 174.364C67.6909 174.178 67.2849 174.084 66.8369 174.084C66.1929 174.084 65.6423 174.29 65.1849 174.7C64.7369 175.111 64.4803 175.68 64.4149 176.408H69.2589ZM73.8106 174.182V178.704C73.8106 179.078 73.8899 179.344 74.0486 179.502C74.2073 179.652 74.4826 179.726 74.8746 179.726H75.8126V180.804H74.6646C73.9553 180.804 73.4233 180.641 73.0686 180.314C72.7139 179.988 72.5366 179.451 72.5366 178.704V174.182H71.5426V173.132H72.5366V171.2H73.8106V173.132H75.8126V174.182H73.8106ZM87.5762 173.132L85.1822 180.804H83.8662L82.0182 174.714L80.1702 180.804H78.8542L76.4462 173.132H77.7482L79.5122 179.572L81.4162 173.132H82.7182L84.5802 179.586L86.3162 173.132H87.5762ZM95.8406 176.674C95.8406 176.917 95.8266 177.174 95.7986 177.444H89.6666C89.7132 178.2 89.9699 178.793 90.4366 179.222C90.9126 179.642 91.4866 179.852 92.1586 179.852C92.7092 179.852 93.1666 179.726 93.5306 179.474C93.9039 179.213 94.1652 178.868 94.3146 178.438H95.6866C95.4812 179.176 95.0706 179.778 94.4546 180.244C93.8386 180.702 93.0732 180.93 92.1586 180.93C91.4306 180.93 90.7772 180.767 90.1986 180.44C89.6292 180.114 89.1812 179.652 88.8546 179.054C88.5279 178.448 88.3646 177.748 88.3646 176.954C88.3646 176.161 88.5232 175.466 88.8406 174.868C89.1579 174.271 89.6012 173.814 90.1706 173.496C90.7492 173.17 91.4119 173.006 92.1586 173.006C92.8866 173.006 93.5306 173.165 94.0906 173.482C94.6506 173.8 95.0799 174.238 95.3786 174.798C95.6866 175.349 95.8406 175.974 95.8406 176.674ZM94.5246 176.408C94.5246 175.923 94.4172 175.508 94.2026 175.162C93.9879 174.808 93.6939 174.542 93.3206 174.364C92.9566 174.178 92.5506 174.084 92.1026 174.084C91.4586 174.084 90.9079 174.29 90.4506 174.7C90.0026 175.111 89.7459 175.68 89.6806 176.408H94.5246ZM104.522 176.674C104.522 176.917 104.508 177.174 104.48 177.444H98.3482C98.3949 178.2 98.6515 178.793 99.1182 179.222C99.5942 179.642 100.168 179.852 100.84 179.852C101.391 179.852 101.848 179.726 102.212 179.474C102.586 179.213 102.847 178.868 102.996 178.438H104.368C104.163 179.176 103.752 179.778 103.136 180.244C102.52 180.702 101.755 180.93 100.84 180.93C100.112 180.93 99.4589 180.767 98.8802 180.44C98.3109 180.114 97.8629 179.652 97.5362 179.054C97.2095 178.448 97.0462 177.748 97.0462 176.954C97.0462 176.161 97.2049 175.466 97.5222 174.868C97.8395 174.271 98.2829 173.814 98.8522 173.496C99.4309 173.17 100.094 173.006 100.84 173.006C101.568 173.006 102.212 173.165 102.772 173.482C103.332 173.8 103.762 174.238 104.06 174.798C104.368 175.349 104.522 175.974 104.522 176.674ZM103.206 176.408C103.206 175.923 103.099 175.508 102.884 175.162C102.67 174.808 102.376 174.542 102.002 174.364C101.638 174.178 101.232 174.084 100.784 174.084C100.14 174.084 99.5895 174.29 99.1322 174.7C98.6842 175.111 98.4275 175.68 98.3622 176.408H103.206ZM109.942 172.992C110.875 172.992 111.631 173.277 112.21 173.846C112.789 174.406 113.078 175.218 113.078 176.282V180.804H111.818V176.464C111.818 175.699 111.627 175.116 111.244 174.714C110.861 174.304 110.339 174.098 109.676 174.098C109.004 174.098 108.467 174.308 108.066 174.728C107.674 175.148 107.478 175.76 107.478 176.562V180.804H106.204V173.132H107.478V174.224C107.73 173.832 108.071 173.529 108.5 173.314C108.939 173.1 109.419 172.992 109.942 172.992ZM125.499 173.132L120.879 184.416H119.563L121.075 180.72L117.981 173.132H119.395L121.803 179.348L124.183 173.132H125.499ZM130.126 180.93C129.407 180.93 128.754 180.767 128.166 180.44C127.587 180.114 127.13 179.652 126.794 179.054C126.467 178.448 126.304 177.748 126.304 176.954C126.304 176.17 126.472 175.48 126.808 174.882C127.153 174.276 127.62 173.814 128.208 173.496C128.796 173.17 129.454 173.006 130.182 173.006C130.91 173.006 131.568 173.17 132.156 173.496C132.744 173.814 133.206 174.271 133.542 174.868C133.887 175.466 134.06 176.161 134.06 176.954C134.06 177.748 133.883 178.448 133.528 179.054C133.183 179.652 132.711 180.114 132.114 180.44C131.517 180.767 130.854 180.93 130.126 180.93ZM130.126 179.81C130.583 179.81 131.013 179.703 131.414 179.488C131.815 179.274 132.137 178.952 132.38 178.522C132.632 178.093 132.758 177.57 132.758 176.954C132.758 176.338 132.637 175.816 132.394 175.386C132.151 174.957 131.834 174.64 131.442 174.434C131.05 174.22 130.625 174.112 130.168 174.112C129.701 174.112 129.272 174.22 128.88 174.434C128.497 174.64 128.189 174.957 127.956 175.386C127.723 175.816 127.606 176.338 127.606 176.954C127.606 177.58 127.718 178.107 127.942 178.536C128.175 178.966 128.483 179.288 128.866 179.502C129.249 179.708 129.669 179.81 130.126 179.81ZM142.539 173.132V180.804H141.265V179.67C141.022 180.062 140.682 180.37 140.243 180.594C139.814 180.809 139.338 180.916 138.815 180.916C138.218 180.916 137.681 180.795 137.205 180.552C136.729 180.3 136.351 179.927 136.071 179.432C135.8 178.938 135.665 178.336 135.665 177.626V173.132H136.925V177.458C136.925 178.214 137.116 178.798 137.499 179.208C137.882 179.61 138.404 179.81 139.067 179.81C139.748 179.81 140.285 179.6 140.677 179.18C141.069 178.76 141.265 178.149 141.265 177.346V173.132H142.539ZM145.964 174.378C146.188 173.94 146.506 173.599 146.916 173.356C147.336 173.114 147.845 172.992 148.442 172.992V174.308H148.106C146.678 174.308 145.964 175.083 145.964 176.632V180.804H144.69V173.132H145.964V174.378ZM153.169 176.954C153.169 176.161 153.328 175.47 153.645 174.882C153.963 174.285 154.401 173.823 154.961 173.496C155.531 173.17 156.179 173.006 156.907 173.006C157.85 173.006 158.625 173.235 159.231 173.692C159.847 174.15 160.253 174.784 160.449 175.596H159.077C158.947 175.13 158.69 174.761 158.307 174.49C157.934 174.22 157.467 174.084 156.907 174.084C156.179 174.084 155.591 174.336 155.143 174.84C154.695 175.335 154.471 176.04 154.471 176.954C154.471 177.878 154.695 178.592 155.143 179.096C155.591 179.6 156.179 179.852 156.907 179.852C157.467 179.852 157.934 179.722 158.307 179.46C158.681 179.199 158.937 178.826 159.077 178.34H160.449C160.244 179.124 159.833 179.754 159.217 180.23C158.601 180.697 157.831 180.93 156.907 180.93C156.179 180.93 155.531 180.767 154.961 180.44C154.401 180.114 153.963 179.652 153.645 179.054C153.328 178.457 153.169 177.757 153.169 176.954ZM165.495 180.93C164.777 180.93 164.123 180.767 163.535 180.44C162.957 180.114 162.499 179.652 162.163 179.054C161.837 178.448 161.673 177.748 161.673 176.954C161.673 176.17 161.841 175.48 162.177 174.882C162.523 174.276 162.989 173.814 163.577 173.496C164.165 173.17 164.823 173.006 165.551 173.006C166.279 173.006 166.937 173.17 167.525 173.496C168.113 173.814 168.575 174.271 168.911 174.868C169.257 175.466 169.429 176.161 169.429 176.954C169.429 177.748 169.252 178.448 168.897 179.054C168.552 179.652 168.081 180.114 167.483 180.44C166.886 180.767 166.223 180.93 165.495 180.93ZM165.495 179.81C165.953 179.81 166.382 179.703 166.783 179.488C167.185 179.274 167.507 178.952 167.749 178.522C168.001 178.093 168.127 177.57 168.127 176.954C168.127 176.338 168.006 175.816 167.763 175.386C167.521 174.957 167.203 174.64 166.811 174.434C166.419 174.22 165.995 174.112 165.537 174.112C165.071 174.112 164.641 174.22 164.249 174.434C163.867 174.64 163.559 174.957 163.325 175.386C163.092 175.816 162.975 176.338 162.975 176.954C162.975 177.58 163.087 178.107 163.311 178.536C163.545 178.966 163.853 179.288 164.235 179.502C164.618 179.708 165.038 179.81 165.495 179.81ZM180.33 172.992C180.928 172.992 181.46 173.118 181.926 173.37C182.393 173.613 182.762 173.982 183.032 174.476C183.303 174.971 183.438 175.573 183.438 176.282V180.804H182.178V176.464C182.178 175.699 181.987 175.116 181.604 174.714C181.231 174.304 180.722 174.098 180.078 174.098C179.416 174.098 178.888 174.313 178.496 174.742C178.104 175.162 177.908 175.774 177.908 176.576V180.804H176.648V176.464C176.648 175.699 176.457 175.116 176.074 174.714C175.701 174.304 175.192 174.098 174.548 174.098C173.886 174.098 173.358 174.313 172.966 174.742C172.574 175.162 172.378 175.774 172.378 176.576V180.804H171.104V173.132H172.378V174.238C172.63 173.837 172.966 173.529 173.386 173.314C173.816 173.1 174.287 172.992 174.8 172.992C175.444 172.992 176.014 173.137 176.508 173.426C177.003 173.716 177.372 174.14 177.614 174.7C177.829 174.159 178.184 173.739 178.678 173.44C179.173 173.142 179.724 172.992 180.33 172.992ZM186.802 174.546C187.054 174.108 187.427 173.744 187.922 173.454C188.426 173.156 189.009 173.006 189.672 173.006C190.353 173.006 190.969 173.17 191.52 173.496C192.08 173.823 192.519 174.285 192.836 174.882C193.153 175.47 193.312 176.156 193.312 176.94C193.312 177.715 193.153 178.406 192.836 179.012C192.519 179.619 192.08 180.09 191.52 180.426C190.969 180.762 190.353 180.93 189.672 180.93C189.019 180.93 188.44 180.786 187.936 180.496C187.441 180.198 187.063 179.829 186.802 179.39V184.444H185.528V173.132H186.802V174.546ZM192.01 176.94C192.01 176.362 191.893 175.858 191.66 175.428C191.427 174.999 191.109 174.672 190.708 174.448C190.316 174.224 189.882 174.112 189.406 174.112C188.939 174.112 188.505 174.229 188.104 174.462C187.712 174.686 187.395 175.018 187.152 175.456C186.919 175.886 186.802 176.385 186.802 176.954C186.802 177.533 186.919 178.042 187.152 178.48C187.395 178.91 187.712 179.241 188.104 179.474C188.505 179.698 188.939 179.81 189.406 179.81C189.882 179.81 190.316 179.698 190.708 179.474C191.109 179.241 191.427 178.91 191.66 178.48C191.893 178.042 192.01 177.528 192.01 176.94ZM201.793 173.132V180.804H200.519V179.67C200.276 180.062 199.936 180.37 199.497 180.594C199.068 180.809 198.592 180.916 198.069 180.916C197.472 180.916 196.935 180.795 196.459 180.552C195.983 180.3 195.605 179.927 195.325 179.432C195.054 178.938 194.919 178.336 194.919 177.626V173.132H196.179V177.458C196.179 178.214 196.37 178.798 196.753 179.208C197.136 179.61 197.658 179.81 198.321 179.81C199.002 179.81 199.539 179.6 199.931 179.18C200.323 178.76 200.519 178.149 200.519 177.346V173.132H201.793ZM205.498 174.182V178.704C205.498 179.078 205.577 179.344 205.736 179.502C205.895 179.652 206.17 179.726 206.562 179.726H207.5V180.804H206.352C205.643 180.804 205.111 180.641 204.756 180.314C204.401 179.988 204.224 179.451 204.224 178.704V174.182H203.23V173.132H204.224V171.2H205.498V173.132H207.5V174.182H205.498ZM216.044 176.674C216.044 176.917 216.03 177.174 216.002 177.444H209.87C209.916 178.2 210.173 178.793 210.64 179.222C211.116 179.642 211.69 179.852 212.362 179.852C212.912 179.852 213.37 179.726 213.734 179.474C214.107 179.213 214.368 178.868 214.518 178.438H215.89C215.684 179.176 215.274 179.778 214.658 180.244C214.042 180.702 213.276 180.93 212.362 180.93C211.634 180.93 210.98 180.767 210.402 180.44C209.832 180.114 209.384 179.652 209.058 179.054C208.731 178.448 208.568 177.748 208.568 176.954C208.568 176.161 208.726 175.466 209.044 174.868C209.361 174.271 209.804 173.814 210.374 173.496C210.952 173.17 211.615 173.006 212.362 173.006C213.09 173.006 213.734 173.165 214.294 173.482C214.854 173.8 215.283 174.238 215.582 174.798C215.89 175.349 216.044 175.974 216.044 176.674ZM214.728 176.408C214.728 175.923 214.62 175.508 214.406 175.162C214.191 174.808 213.897 174.542 213.524 174.364C213.16 174.178 212.754 174.084 212.306 174.084C211.662 174.084 211.111 174.29 210.654 174.7C210.206 175.111 209.949 175.68 209.884 176.408H214.728ZM218.999 174.378C219.223 173.94 219.541 173.599 219.951 173.356C220.371 173.114 220.88 172.992 221.477 172.992V174.308H221.141C219.713 174.308 218.999 175.083 218.999 176.632V180.804H217.725V173.132H218.999V174.378ZM224.264 179.04L222.696 182.806H221.842L222.864 179.04H224.264ZM231.01 174.182V178.704C231.01 179.078 231.089 179.344 231.248 179.502C231.406 179.652 231.682 179.726 232.074 179.726H233.012V180.804H231.864C231.154 180.804 230.622 180.641 230.268 180.314C229.913 179.988 229.736 179.451 229.736 178.704V174.182H228.742V173.132H229.736V171.2H231.01V173.132H233.012V174.182H231.01ZM234.079 176.94C234.079 176.156 234.238 175.47 234.555 174.882C234.873 174.285 235.307 173.823 235.857 173.496C236.417 173.17 237.038 173.006 237.719 173.006C238.391 173.006 238.975 173.151 239.469 173.44C239.964 173.73 240.333 174.094 240.575 174.532V173.132H241.863V180.804H240.575V179.376C240.323 179.824 239.945 180.198 239.441 180.496C238.947 180.786 238.368 180.93 237.705 180.93C237.024 180.93 236.408 180.762 235.857 180.426C235.307 180.09 234.873 179.619 234.555 179.012C234.238 178.406 234.079 177.715 234.079 176.94ZM240.575 176.954C240.575 176.376 240.459 175.872 240.225 175.442C239.992 175.013 239.675 174.686 239.273 174.462C238.881 174.229 238.447 174.112 237.971 174.112C237.495 174.112 237.061 174.224 236.669 174.448C236.277 174.672 235.965 174.999 235.731 175.428C235.498 175.858 235.381 176.362 235.381 176.94C235.381 177.528 235.498 178.042 235.731 178.48C235.965 178.91 236.277 179.241 236.669 179.474C237.061 179.698 237.495 179.81 237.971 179.81C238.447 179.81 238.881 179.698 239.273 179.474C239.675 179.241 239.992 178.91 240.225 178.48C240.459 178.042 240.575 177.533 240.575 176.954ZM245.29 174.56C245.552 174.103 245.934 173.73 246.438 173.44C246.942 173.151 247.516 173.006 248.16 173.006C248.851 173.006 249.472 173.17 250.022 173.496C250.573 173.823 251.007 174.285 251.324 174.882C251.642 175.47 251.8 176.156 251.8 176.94C251.8 177.715 251.642 178.406 251.324 179.012C251.007 179.619 250.568 180.09 250.008 180.426C249.458 180.762 248.842 180.93 248.16 180.93C247.498 180.93 246.914 180.786 246.41 180.496C245.916 180.207 245.542 179.838 245.29 179.39V180.804H244.016V170.444H245.29V174.56ZM250.498 176.94C250.498 176.362 250.382 175.858 250.148 175.428C249.915 174.999 249.598 174.672 249.196 174.448C248.804 174.224 248.37 174.112 247.894 174.112C247.428 174.112 246.994 174.229 246.592 174.462C246.2 174.686 245.883 175.018 245.64 175.456C245.407 175.886 245.29 176.385 245.29 176.954C245.29 177.533 245.407 178.042 245.64 178.48C245.883 178.91 246.2 179.241 246.592 179.474C246.994 179.698 247.428 179.81 247.894 179.81C248.37 179.81 248.804 179.698 249.196 179.474C249.598 179.241 249.915 178.91 250.148 178.48C250.382 178.042 250.498 177.528 250.498 176.94ZM254.751 170.444V180.804H253.477V170.444H254.751ZM263.923 176.674C263.923 176.917 263.909 177.174 263.881 177.444H257.749C257.795 178.2 258.052 178.793 258.519 179.222C258.995 179.642 259.569 179.852 260.241 179.852C260.791 179.852 261.249 179.726 261.613 179.474C261.986 179.213 262.247 178.868 262.397 178.438H263.769C263.563 179.176 263.153 179.778 262.537 180.244C261.921 180.702 261.155 180.93 260.241 180.93C259.513 180.93 258.859 180.767 258.281 180.44C257.711 180.114 257.263 179.652 256.937 179.054C256.61 178.448 256.447 177.748 256.447 176.954C256.447 176.161 256.605 175.466 256.923 174.868C257.24 174.271 257.683 173.814 258.253 173.496C258.831 173.17 259.494 173.006 260.241 173.006C260.969 173.006 261.613 173.165 262.173 173.482C262.733 173.8 263.162 174.238 263.461 174.798C263.769 175.349 263.923 175.974 263.923 176.674ZM262.607 176.408C262.607 175.923 262.499 175.508 262.285 175.162C262.07 174.808 261.776 174.542 261.403 174.364C261.039 174.178 260.633 174.084 260.185 174.084C259.541 174.084 258.99 174.29 258.533 174.7C258.085 175.111 257.828 175.68 257.763 176.408H262.607ZM267.158 174.182V178.704C267.158 179.078 267.238 179.344 267.396 179.502C267.555 179.652 267.83 179.726 268.222 179.726H269.16V180.804H268.012C267.303 180.804 266.771 180.641 266.416 180.314C266.062 179.988 265.884 179.451 265.884 178.704V174.182H264.89V173.132H265.884V171.2H267.158V173.132H269.16V174.182H267.158ZM272.02 179.04L270.452 182.806H269.598L270.62 179.04H272.02ZM82.6163 201.93C81.8976 201.93 81.2443 201.767 80.6563 201.44C80.0776 201.114 79.6203 200.652 79.2843 200.054C78.9576 199.448 78.7943 198.748 78.7943 197.954C78.7943 197.17 78.9623 196.48 79.2983 195.882C79.6436 195.276 80.1103 194.814 80.6983 194.496C81.2863 194.17 81.9443 194.006 82.6723 194.006C83.4003 194.006 84.0583 194.17 84.6463 194.496C85.2343 194.814 85.6963 195.271 86.0323 195.868C86.3776 196.466 86.5503 197.161 86.5503 197.954C86.5503 198.748 86.3729 199.448 86.0183 200.054C85.6729 200.652 85.2016 201.114 84.6043 201.44C84.0069 201.767 83.3443 201.93 82.6163 201.93ZM82.6163 200.81C83.0736 200.81 83.5029 200.703 83.9043 200.488C84.3056 200.274 84.6276 199.952 84.8703 199.522C85.1223 199.093 85.2483 198.57 85.2483 197.954C85.2483 197.338 85.1269 196.816 84.8843 196.386C84.6416 195.957 84.3243 195.64 83.9323 195.434C83.5403 195.22 83.1156 195.112 82.6583 195.112C82.1916 195.112 81.7623 195.22 81.3703 195.434C80.9876 195.64 80.6796 195.957 80.4463 196.386C80.2129 196.816 80.0963 197.338 80.0963 197.954C80.0963 198.58 80.2083 199.107 80.4323 199.536C80.6656 199.966 80.9736 200.288 81.3563 200.502C81.7389 200.708 82.1589 200.81 82.6163 200.81ZM89.4993 195.378C89.7233 194.94 90.0407 194.599 90.4513 194.356C90.8713 194.114 91.38 193.992 91.9773 193.992V195.308H91.6413C90.2133 195.308 89.4993 196.083 89.4993 197.632V201.804H88.2253V194.132H89.4993V195.378ZM106.406 193.992C107.004 193.992 107.536 194.118 108.002 194.37C108.469 194.613 108.838 194.982 109.108 195.476C109.379 195.971 109.514 196.573 109.514 197.282V201.804H108.254V197.464C108.254 196.699 108.063 196.116 107.68 195.714C107.307 195.304 106.798 195.098 106.154 195.098C105.492 195.098 104.964 195.313 104.572 195.742C104.18 196.162 103.984 196.774 103.984 197.576V201.804H102.724V197.464C102.724 196.699 102.533 196.116 102.15 195.714C101.777 195.304 101.268 195.098 100.624 195.098C99.9618 195.098 99.4344 195.313 99.0424 195.742C98.6504 196.162 98.4544 196.774 98.4544 197.576V201.804H97.1804V194.132H98.4544V195.238C98.7064 194.837 99.0424 194.529 99.4624 194.314C99.8918 194.1 100.363 193.992 100.876 193.992C101.52 193.992 102.09 194.137 102.584 194.426C103.079 194.716 103.448 195.14 103.69 195.7C103.905 195.159 104.26 194.739 104.754 194.44C105.249 194.142 105.8 193.992 106.406 193.992ZM114.95 201.93C114.232 201.93 113.578 201.767 112.99 201.44C112.412 201.114 111.954 200.652 111.618 200.054C111.292 199.448 111.128 198.748 111.128 197.954C111.128 197.17 111.296 196.48 111.632 195.882C111.978 195.276 112.444 194.814 113.032 194.496C113.62 194.17 114.278 194.006 115.006 194.006C115.734 194.006 116.392 194.17 116.98 194.496C117.568 194.814 118.03 195.271 118.366 195.868C118.712 196.466 118.884 197.161 118.884 197.954C118.884 198.748 118.707 199.448 118.352 200.054C118.007 200.652 117.536 201.114 116.938 201.44C116.341 201.767 115.678 201.93 114.95 201.93ZM114.95 200.81C115.408 200.81 115.837 200.703 116.238 200.488C116.64 200.274 116.962 199.952 117.204 199.522C117.456 199.093 117.582 198.57 117.582 197.954C117.582 197.338 117.461 196.816 117.218 196.386C116.976 195.957 116.658 195.64 116.266 195.434C115.874 195.22 115.45 195.112 114.992 195.112C114.526 195.112 114.096 195.22 113.704 195.434C113.322 195.64 113.014 195.957 112.78 196.386C112.547 196.816 112.43 197.338 112.43 197.954C112.43 198.58 112.542 199.107 112.766 199.536C113 199.966 113.308 200.288 113.69 200.502C114.073 200.708 114.493 200.81 114.95 200.81ZM121.833 195.56C122.095 195.103 122.477 194.73 122.981 194.44C123.485 194.151 124.059 194.006 124.703 194.006C125.394 194.006 126.015 194.17 126.565 194.496C127.116 194.823 127.55 195.285 127.867 195.882C128.185 196.47 128.343 197.156 128.343 197.94C128.343 198.715 128.185 199.406 127.867 200.012C127.55 200.619 127.111 201.09 126.551 201.426C126.001 201.762 125.385 201.93 124.703 201.93C124.041 201.93 123.457 201.786 122.953 201.496C122.459 201.207 122.085 200.838 121.833 200.39V201.804H120.559V191.444H121.833V195.56ZM127.041 197.94C127.041 197.362 126.925 196.858 126.691 196.428C126.458 195.999 126.141 195.672 125.739 195.448C125.347 195.224 124.913 195.112 124.437 195.112C123.971 195.112 123.537 195.229 123.135 195.462C122.743 195.686 122.426 196.018 122.183 196.456C121.95 196.886 121.833 197.385 121.833 197.954C121.833 198.533 121.95 199.042 122.183 199.48C122.426 199.91 122.743 200.241 123.135 200.474C123.537 200.698 123.971 200.81 124.437 200.81C124.913 200.81 125.347 200.698 125.739 200.474C126.141 200.241 126.458 199.91 126.691 199.48C126.925 199.042 127.041 198.528 127.041 197.94ZM130.678 192.886C130.436 192.886 130.23 192.802 130.062 192.634C129.894 192.466 129.81 192.261 129.81 192.018C129.81 191.776 129.894 191.57 130.062 191.402C130.23 191.234 130.436 191.15 130.678 191.15C130.912 191.15 131.108 191.234 131.266 191.402C131.434 191.57 131.518 191.776 131.518 192.018C131.518 192.261 131.434 192.466 131.266 192.634C131.108 192.802 130.912 192.886 130.678 192.886ZM131.294 194.132V201.804H130.02V194.132H131.294ZM134.74 191.444V201.804H133.466V191.444H134.74ZM143.911 197.674C143.911 197.917 143.897 198.174 143.869 198.444H137.737C137.784 199.2 138.04 199.793 138.507 200.222C138.983 200.642 139.557 200.852 140.229 200.852C140.78 200.852 141.237 200.726 141.601 200.474C141.974 200.213 142.236 199.868 142.385 199.438H143.757C143.552 200.176 143.141 200.778 142.525 201.244C141.909 201.702 141.144 201.93 140.229 201.93C139.501 201.93 138.848 201.767 138.269 201.44C137.7 201.114 137.252 200.652 136.925 200.054C136.598 199.448 136.435 198.748 136.435 197.954C136.435 197.161 136.594 196.466 136.911 195.868C137.228 195.271 137.672 194.814 138.241 194.496C138.82 194.17 139.482 194.006 140.229 194.006C140.957 194.006 141.601 194.165 142.161 194.482C142.721 194.8 143.15 195.238 143.449 195.798C143.757 196.349 143.911 196.974 143.911 197.674ZM142.595 197.408C142.595 196.923 142.488 196.508 142.273 196.162C142.058 195.808 141.764 195.542 141.391 195.364C141.027 195.178 140.621 195.084 140.173 195.084C139.529 195.084 138.978 195.29 138.521 195.7C138.073 196.111 137.816 196.68 137.751 197.408H142.595ZM148.849 197.94C148.849 197.156 149.008 196.47 149.325 195.882C149.642 195.285 150.076 194.823 150.627 194.496C151.187 194.17 151.812 194.006 152.503 194.006C153.1 194.006 153.656 194.146 154.169 194.426C154.682 194.697 155.074 195.056 155.345 195.504V191.444H156.633V201.804H155.345V200.362C155.093 200.82 154.72 201.198 154.225 201.496C153.73 201.786 153.152 201.93 152.489 201.93C151.808 201.93 151.187 201.762 150.627 201.426C150.076 201.09 149.642 200.619 149.325 200.012C149.008 199.406 148.849 198.715 148.849 197.94ZM155.345 197.954C155.345 197.376 155.228 196.872 154.995 196.442C154.762 196.013 154.444 195.686 154.043 195.462C153.651 195.229 153.217 195.112 152.741 195.112C152.265 195.112 151.831 195.224 151.439 195.448C151.047 195.672 150.734 195.999 150.501 196.428C150.268 196.858 150.151 197.362 150.151 197.94C150.151 198.528 150.268 199.042 150.501 199.48C150.734 199.91 151.047 200.241 151.439 200.474C151.831 200.698 152.265 200.81 152.741 200.81C153.217 200.81 153.651 200.698 154.043 200.474C154.444 200.241 154.762 199.91 154.995 199.48C155.228 199.042 155.345 198.533 155.345 197.954ZM165.786 197.674C165.786 197.917 165.772 198.174 165.744 198.444H159.612C159.659 199.2 159.915 199.793 160.382 200.222C160.858 200.642 161.432 200.852 162.104 200.852C162.655 200.852 163.112 200.726 163.476 200.474C163.849 200.213 164.111 199.868 164.26 199.438H165.632C165.427 200.176 165.016 200.778 164.4 201.244C163.784 201.702 163.019 201.93 162.104 201.93C161.376 201.93 160.723 201.767 160.144 201.44C159.575 201.114 159.127 200.652 158.8 200.054C158.473 199.448 158.31 198.748 158.31 197.954C158.31 197.161 158.469 196.466 158.786 195.868C159.103 195.271 159.547 194.814 160.116 194.496C160.695 194.17 161.357 194.006 162.104 194.006C162.832 194.006 163.476 194.165 164.036 194.482C164.596 194.8 165.025 195.238 165.324 195.798C165.632 196.349 165.786 196.974 165.786 197.674ZM164.47 197.408C164.47 196.923 164.363 196.508 164.148 196.162C163.933 195.808 163.639 195.542 163.266 195.364C162.902 195.178 162.496 195.084 162.048 195.084C161.404 195.084 160.853 195.29 160.396 195.7C159.948 196.111 159.691 196.68 159.626 197.408H164.47ZM170.324 200.628L172.704 194.132H174.062L171.052 201.804H169.568L166.558 194.132H167.93L170.324 200.628ZM175.973 192.886C175.731 192.886 175.525 192.802 175.357 192.634C175.189 192.466 175.105 192.261 175.105 192.018C175.105 191.776 175.189 191.57 175.357 191.402C175.525 191.234 175.731 191.15 175.973 191.15C176.207 191.15 176.403 191.234 176.561 191.402C176.729 191.57 176.813 191.776 176.813 192.018C176.813 192.261 176.729 192.466 176.561 192.634C176.403 192.802 176.207 192.886 175.973 192.886ZM176.589 194.132V201.804H175.315V194.132H176.589ZM178.284 197.954C178.284 197.161 178.443 196.47 178.76 195.882C179.078 195.285 179.516 194.823 180.076 194.496C180.646 194.17 181.294 194.006 182.022 194.006C182.965 194.006 183.74 194.235 184.346 194.692C184.962 195.15 185.368 195.784 185.564 196.596H184.192C184.062 196.13 183.805 195.761 183.422 195.49C183.049 195.22 182.582 195.084 182.022 195.084C181.294 195.084 180.706 195.336 180.258 195.84C179.81 196.335 179.586 197.04 179.586 197.954C179.586 198.878 179.81 199.592 180.258 200.096C180.706 200.6 181.294 200.852 182.022 200.852C182.582 200.852 183.049 200.722 183.422 200.46C183.796 200.199 184.052 199.826 184.192 199.34H185.564C185.359 200.124 184.948 200.754 184.332 201.23C183.716 201.697 182.946 201.93 182.022 201.93C181.294 201.93 180.646 201.767 180.076 201.44C179.516 201.114 179.078 200.652 178.76 200.054C178.443 199.457 178.284 198.757 178.284 197.954ZM194.264 197.674C194.264 197.917 194.25 198.174 194.222 198.444H188.09C188.137 199.2 188.394 199.793 188.86 200.222C189.336 200.642 189.91 200.852 190.582 200.852C191.133 200.852 191.59 200.726 191.954 200.474C192.328 200.213 192.589 199.868 192.738 199.438H194.11C193.905 200.176 193.494 200.778 192.878 201.244C192.262 201.702 191.497 201.93 190.582 201.93C189.854 201.93 189.201 201.767 188.622 201.44C188.053 201.114 187.605 200.652 187.278 200.054C186.952 199.448 186.788 198.748 186.788 197.954C186.788 197.161 186.947 196.466 187.264 195.868C187.582 195.271 188.025 194.814 188.594 194.496C189.173 194.17 189.836 194.006 190.582 194.006C191.31 194.006 191.954 194.165 192.514 194.482C193.074 194.8 193.504 195.238 193.802 195.798C194.11 196.349 194.264 196.974 194.264 197.674ZM192.948 197.408C192.948 196.923 192.841 196.508 192.626 196.162C192.412 195.808 192.118 195.542 191.744 195.364C191.38 195.178 190.974 195.084 190.526 195.084C189.882 195.084 189.332 195.29 188.874 195.7C188.426 196.111 188.17 196.68 188.104 197.408H192.948ZM196.352 201.888C196.109 201.888 195.904 201.804 195.736 201.636C195.568 201.468 195.484 201.263 195.484 201.02C195.484 200.778 195.568 200.572 195.736 200.404C195.904 200.236 196.109 200.152 196.352 200.152C196.585 200.152 196.781 200.236 196.94 200.404C197.108 200.572 197.192 200.778 197.192 201.02C197.192 201.263 197.108 201.468 196.94 201.636C196.781 201.804 196.585 201.888 196.352 201.888Z" fill="#5C5C5C"/>
<rect x="63.9999" y="6" width="85" height="85" rx="42.5" fill="#EFB411"/>
<path d="M171.915 51.429V9.52388C171.915 4.27241 168.259 0 163.765 0H92.0407C87.5465 0 83.8902 4.27241 83.8902 9.52388V38.0955C81.194 38.0955 78.9999 40.6594 78.9999 43.8099V100.953C78.9999 104.104 81.194 106.667 83.8902 106.667H119.752C122.449 106.667 124.643 104.104 124.643 100.953H138.304C139.842 100.953 141.258 100.134 142.191 98.7074C143.123 97.2807 143.426 95.4674 143.022 93.736L139.817 80.0006H149.094V100.953C149.094 104.104 151.288 106.667 153.984 106.667H171.915C174.612 106.667 176.806 104.104 176.806 100.953V57.1433C176.806 53.9928 174.612 51.429 171.915 51.429ZM121.382 100.953C121.382 102.003 120.651 102.858 119.752 102.858H83.8902C82.992 102.858 82.2601 102.003 82.2601 100.953V97.1436H121.382V100.953ZM121.382 93.334H82.2601V51.429H121.382V93.334ZM121.382 47.6194H82.2601V43.8099C82.2601 42.7603 82.992 41.9051 83.8902 41.9051H119.752C120.651 41.9051 121.382 42.7603 121.382 43.8099V47.6194ZM139.878 94.7379C140.013 95.315 139.912 95.9188 139.6 96.395C139.289 96.8712 138.818 97.1436 138.304 97.1436H124.643V93.334H139.55L139.878 94.7379ZM124.643 89.5245V80.0006H136.438L138.661 89.5245H124.643ZM149.094 76.1911H124.643V64.7624H149.094V76.1911ZM149.094 57.1433V60.9528H124.643V43.8099C124.643 40.6594 122.449 38.0955 119.752 38.0955H87.1504V9.52388C87.1504 6.37338 89.3445 3.80955 92.0407 3.80955H163.765C166.461 3.80955 168.655 6.37338 168.655 9.52388V51.429H153.984C151.288 51.429 149.094 53.9928 149.094 57.1433ZM173.546 100.953C173.546 102.003 172.814 102.858 171.915 102.858H153.984C153.086 102.858 152.354 102.003 152.354 100.953V97.1436H173.546V100.953ZM173.546 93.334H152.354V64.7624H173.546V93.334ZM173.546 60.9528H152.354V57.1433C152.354 56.0938 153.086 55.2385 153.984 55.2385H171.915C172.814 55.2385 173.546 56.0938 173.546 57.1433V60.9528Z" fill="#5C5C5C"/>
</svg>
