<svg width="113" height="107" viewBox="0 0 113 107" fill="none" xmlns="http://www.w3.org/2000/svg">
<rect y="6" width="85" height="85" rx="42.5" fill="#EFB411"/>
<path d="M107.916 51.429V9.52388C107.916 4.27241 104.259 0 99.7651 0H28.0408C23.5466 0 19.8903 4.27241 19.8903 9.52388V38.0955C17.1941 38.0955 15 40.6594 15 43.8099V100.953C15 104.104 17.1941 106.667 19.8903 106.667H55.7525C58.4486 106.667 60.6428 104.104 60.6428 100.953H74.3046C75.8418 100.953 77.2583 100.134 78.1908 98.7074C79.1232 97.2807 79.4264 95.4674 79.0221 93.736L75.8173 80.0006H85.0942V100.953C85.0942 104.104 87.2883 106.667 89.9845 106.667H107.916C110.612 106.667 112.806 104.104 112.806 100.953V57.1433C112.806 53.9928 110.612 51.429 107.916 51.429ZM57.3826 100.953C57.3826 102.003 56.6506 102.858 55.7525 102.858H19.8903C18.9921 102.858 18.2602 102.003 18.2602 100.953V97.1436H57.3826V100.953ZM57.3826 93.334H18.2602V51.429H57.3826V93.334ZM57.3826 47.6194H18.2602V43.8099C18.2602 42.7603 18.9921 41.9051 19.8903 41.9051H55.7525C56.6506 41.9051 57.3826 42.7603 57.3826 43.8099V47.6194ZM75.8777 94.7379C76.013 95.315 75.9119 95.9188 75.6005 96.395C75.2892 96.8712 74.8181 97.1436 74.3046 97.1436H60.6428V93.334H75.55L75.8777 94.7379ZM60.6428 89.5245V80.0006H72.4381L74.6616 89.5245H60.6428ZM85.0942 76.1911H60.6428V64.7624H85.0942V76.1911ZM85.0942 57.1433V60.9528H60.6428V43.8099C60.6428 40.6594 58.4486 38.0955 55.7525 38.0955H23.1505V9.52388C23.1505 6.37338 25.3446 3.80955 28.0408 3.80955H99.7651C102.461 3.80955 104.655 6.37338 104.655 9.52388V51.429H89.9845C87.2883 51.429 85.0942 53.9928 85.0942 57.1433ZM109.546 100.953C109.546 102.003 108.814 102.858 107.916 102.858H89.9845C89.0863 102.858 88.3544 102.003 88.3544 100.953V97.1436H109.546V100.953ZM109.546 93.334H88.3544V64.7624H109.546V93.334ZM109.546 60.9528H88.3544V57.1433C88.3544 56.0938 89.0863 55.2385 89.9845 55.2385H107.916C108.814 55.2385 109.546 56.0938 109.546 57.1433V60.9528Z" fill="#5C5C5C"/>
</svg>
