<svg width="96" height="70" viewBox="0 0 96 70" fill="none" xmlns="http://www.w3.org/2000/svg">
<path d="M89.805 0.519989L95.565 10.6C90.381 11.944 85.677 14.632 81.453 18.664C77.421 22.504 75.405 27.112 75.405 32.488C75.405 37.864 76.845 41.608 79.725 43.72C82.797 45.64 87.309 46.6 93.261 46.6V53.8C93.261 58.024 92.205 61.768 90.093 65.032C87.981 68.104 84.045 69.64 78.285 69.64C69.069 69.64 62.445 66.664 58.413 60.712C54.381 54.76 52.365 48.136 52.365 40.84C52.365 32.776 54.285 25.96 58.125 20.392C61.965 14.632 66.765 10.12 72.525 6.85599C78.477 3.39999 84.237 1.28799 89.805 0.519989ZM37.965 0.519989L43.725 10.6C38.541 11.944 33.837 14.632 29.613 18.664C25.581 22.504 23.565 27.112 23.565 32.488C23.565 37.864 25.005 41.608 27.885 43.72C30.957 45.64 35.469 46.6 41.421 46.6V53.8C41.421 58.024 40.365 61.768 38.253 65.032C36.141 68.104 32.205 69.64 26.445 69.64C17.229 69.64 10.605 66.664 6.573 60.712C2.541 54.76 0.525 48.136 0.525 40.84C0.525 32.776 2.445 25.96 6.285 20.392C10.125 14.632 14.925 10.12 20.685 6.85599C26.637 3.39999 32.397 1.28799 37.965 0.519989Z" fill="#FFC000"/>
</svg>
