<svg width="86" height="120" viewBox="0 0 86 120" fill="none" xmlns="http://www.w3.org/2000/svg">
<rect y="18" width="85" height="85" rx="42.5" fill="#EFB411"/>
<path d="M12.3406 54.3539C11.5488 56.822 12.1671 59.6061 13.8877 61.3115C17.1474 65.1233 23.8514 78.8834 27.1698 88.5796C29.4345 95.1929 34.407 101.684 38.1796 105.966C39.8032 107.833 40.7147 110.385 40.71 113.048V113.778C40.71 117.084 43.0035 119.764 45.8334 119.764H73.156C75.9858 119.764 78.2794 117.084 78.2794 113.778V107.648C78.2637 107.141 78.4287 106.648 78.7351 106.289C85.0381 99.5545 85.11 88.3119 85.11 87.8369V56.2474C85.1733 51.9743 82.4162 48.3617 78.7765 47.9488C77.4085 47.8438 76.0452 48.2229 74.864 49.0358V45.9329C74.8781 43.0573 73.5601 40.3983 71.4182 38.9816C69.2771 37.5648 66.6474 37.6123 64.5446 39.1067C64.3257 36.4148 62.942 34.0417 60.8791 32.8186C58.8154 31.5955 56.36 31.6914 54.3713 33.0744V29.7695C58.6098 26.9589 61.2207 21.6956 61.2027 16.0012C61.2027 7.18472 55.0858 0.0379639 47.5406 0.0379639C39.9955 0.0379639 33.8793 7.18472 33.8793 16.0012C33.8614 21.6956 36.4723 26.9589 40.71 29.7695V61.8961C40.7584 64.2519 40.4841 66.6004 39.897 68.8547C39.7141 69.5206 39.2474 70.0285 38.6658 70.1957C38.1186 70.3573 37.5386 70.1792 37.1289 69.7243C35.7953 68.2382 34.6102 66.5793 33.5979 64.7799C30.6344 59.5997 23.1776 49.9237 18.51 49.9237C15.8881 49.8597 13.4765 51.5916 12.3406 54.3539V54.3539ZM37.2947 16.0012C37.2947 9.38885 41.8818 4.02878 47.5406 4.02878C53.1995 4.02878 57.7866 9.38885 57.7866 16.0012C57.803 19.4157 56.5585 22.6721 54.3713 24.9374V16.0012C54.3713 11.593 51.3132 8.0196 47.5406 8.0196C43.7681 8.0196 40.71 11.593 40.71 16.0012V24.9374C38.5235 22.6721 37.2782 19.4157 37.2947 16.0012ZM30.7509 66.995C31.9086 69.0465 33.2626 70.9374 34.7861 72.6318C36.0423 74.0202 37.8192 74.5619 39.496 74.0668C41.2048 73.569 42.5767 72.0837 43.1333 70.1317C43.84 67.4663 44.1753 64.6858 44.1253 61.8961V16.0012C44.1253 13.7971 45.6544 12.0104 47.5406 12.0104C49.4269 12.0104 50.956 13.7971 50.956 16.0012V57.9053C50.956 59.0078 51.7205 59.9012 52.664 59.9012C53.6068 59.9012 54.3713 59.0078 54.3713 57.9053V39.9471C54.3713 37.743 55.9011 35.9563 57.7866 35.9563C59.6729 35.9563 61.2027 37.743 61.2027 39.9471V57.9053C61.2027 59.0078 61.9672 59.9012 62.91 59.9012C63.8535 59.9012 64.6181 59.0078 64.6181 57.9053V45.9329C64.6181 43.7287 66.1471 41.942 68.0334 41.942C69.9197 41.942 71.4487 43.7287 71.4487 45.9329V59.9012C71.4487 61.0028 72.2132 61.8961 73.156 61.8961C74.0995 61.8961 74.864 61.0028 74.864 59.9012V55.9104C74.8617 54.8517 75.2228 53.8359 75.8662 53.0906C76.5705 52.2749 77.5406 51.8519 78.5303 51.9296C80.3751 52.2109 81.74 54.0743 81.6947 56.2474V87.8369C81.6947 87.9347 81.6079 97.8144 76.4283 103.346C75.4159 104.462 74.8484 106.022 74.864 107.648V113.778C74.864 114.88 74.0995 115.774 73.156 115.774H45.8334C44.8898 115.774 44.1253 114.88 44.1253 113.778V113.048C44.1277 109.307 42.8417 105.723 40.5583 103.102C37.6652 99.8203 32.491 93.3724 30.3428 87.0952C26.8282 76.8345 19.8748 62.6643 16.3024 58.4899C15.4894 57.5409 15.2174 56.6621 15.4941 55.8802C16.1132 54.627 17.2717 53.8716 18.51 53.9145C20.8309 53.9145 27.1237 60.6374 30.7509 66.995V66.995Z" fill="#5C5C5C"/>
<path d="M76.5723 85.8403C77.5158 85.8403 78.2803 84.947 78.2803 83.8445V71.872C78.2803 70.7704 77.5158 69.8771 76.5723 69.8771C75.6295 69.8771 74.865 70.7704 74.865 71.872V83.8445C74.865 84.947 75.6295 85.8403 76.5723 85.8403V85.8403Z" fill="#5C5C5C"/>
<path d="M74.8628 97.8121C75.3154 97.8121 75.75 97.602 76.0697 97.2275C77.3689 95.8226 78.1593 93.8897 78.2781 91.8253C78.2765 90.7475 77.5339 89.8714 76.6115 89.8587C75.6789 89.8376 74.9026 90.6908 74.8628 91.7797C74.7346 92.7927 74.3077 93.7217 73.655 94.4058C73.1672 94.9768 73.021 95.8345 73.2852 96.5799C73.5495 97.3262 74.1717 97.8121 74.8628 97.8121V97.8121Z" fill="#5C5C5C"/>
<path d="M49.2472 111.781H50.9545C51.898 111.781 52.6626 110.888 52.6626 109.786C52.6626 108.684 51.898 107.791 50.9545 107.791H49.2472C48.3037 107.791 47.5392 108.684 47.5392 109.786C47.5392 110.888 48.3037 111.781 49.2472 111.781Z" fill="#5C5C5C"/>
<path d="M57.7863 111.781H69.7403C70.6839 111.781 71.4484 110.888 71.4484 109.786C71.4484 108.684 70.6839 107.791 69.7403 107.791H57.7863C56.8436 107.791 56.079 108.684 56.079 109.786C56.079 110.888 56.8436 111.781 57.7863 111.781Z" fill="#5C5C5C"/>
<path d="M33.8792 33.0389C34.5609 33.0389 35.1768 32.5667 35.4473 31.8359C35.7178 31.1052 35.5912 30.2566 35.1245 29.6766C29.2077 22.369 28.8864 11.0524 34.3764 3.30282C34.7821 2.75567 34.9025 1.99478 34.6914 1.31427C34.4796 0.633754 33.9691 0.140497 33.357 0.0254035C32.7449 -0.0896898 32.1282 0.191649 31.7443 0.760722C25.1591 10.0595 25.5406 23.6369 32.6347 32.4105C32.9576 32.8115 33.4078 33.0389 33.8792 33.0389Z" fill="#5C5C5C"/>
<path d="M63.4818 27.7529C63.8844 27.9941 64.3535 28.0388 64.7842 27.8762C65.2157 27.7136 65.5737 27.3583 65.7801 26.887C69.5136 18.392 68.5536 8.11393 63.3396 0.760724C62.9565 0.19165 62.339 -0.08969 61.7269 0.0254035C61.1156 0.140497 60.6051 0.633756 60.3933 1.31427C60.1814 1.99478 60.3018 2.75568 60.7083 3.30283C65.0531 9.42837 65.8528 17.991 62.7423 25.0674C62.3116 26.0475 62.6431 27.2496 63.4818 27.7529Z" fill="#5C5C5C"/>
</svg>
