<svg width="256" height="200" viewBox="0 0 256 200" fill="none" xmlns="http://www.w3.org/2000/svg">
<path d="M54.0631 151.24C58.5631 151.24 60.6431 148.82 60.6431 145.5V137.66H56.5431V145.38C56.5431 146.66 55.7031 147.68 54.0631 147.68C52.4031 147.68 51.5631 146.66 51.5631 145.38V137.66H47.4631V145.52C47.4631 148.82 49.5631 151.24 54.0631 151.24ZM72.8551 151V144.14C72.8551 142.46 71.8751 141.1 69.6351 141.1C67.9351 141.1 66.8751 141.8 66.3151 142.44V141.34H62.7151V151H66.3151V145.04C66.6151 144.7 67.0351 144.28 67.8551 144.28C68.7151 144.28 69.2551 144.66 69.2551 145.66V151H72.8551ZM78.4635 151V137.66H74.8635V151H78.4635ZM82.269 140.64C83.389 140.64 84.289 139.74 84.289 138.62C84.289 137.5 83.389 136.6 82.269 136.6C81.149 136.6 80.249 137.5 80.249 138.62C80.249 139.74 81.149 140.64 82.269 140.64ZM84.069 151V141.34H80.469V151H84.069ZM102.014 151V144C102.014 142 100.814 141.1 99.0345 141.1C97.4745 141.1 96.2145 141.96 95.6545 142.8C95.2145 141.6 94.2345 141.1 92.8745 141.1C91.3145 141.1 90.0945 141.9 89.6745 142.44V141.34H86.0745V151H89.6745V145.04C89.9145 144.76 90.3545 144.28 91.1345 144.28C91.9545 144.28 92.2345 144.78 92.2345 145.36V151H95.8345V145.04C96.0745 144.76 96.5145 144.28 97.3145 144.28C98.1145 144.28 98.4145 144.78 98.4145 145.36V151H102.014ZM105.824 140.64C106.944 140.64 107.844 139.74 107.844 138.62C107.844 137.5 106.944 136.6 105.824 136.6C104.704 136.6 103.804 137.5 103.804 138.62C103.804 139.74 104.704 140.64 105.824 140.64ZM107.624 151V141.34H104.024V151H107.624ZM113.689 151.24C114.909 151.24 115.749 150.94 116.129 150.6L115.489 147.88C115.409 147.96 115.089 148.06 114.769 148.06C114.289 148.06 113.969 147.66 113.969 147.16V144.46H115.929V141.34H113.969V138.7H110.369V141.34H108.769V144.46H110.369V148.2C110.369 150.22 111.549 151.24 113.689 151.24ZM121.986 151.24C123.426 151.24 125.146 150.86 126.106 150.04L124.626 147.82C124.146 148.24 122.946 148.5 122.406 148.5C121.226 148.5 120.526 147.9 120.326 147.28H126.886V146.54C126.886 143.14 124.706 141.1 121.866 141.1C118.746 141.1 116.606 143.36 116.606 146.16C116.606 149.34 118.966 151.24 121.986 151.24ZM123.466 145H120.286C120.406 144.56 120.766 143.84 121.866 143.84C123.026 143.84 123.366 144.58 123.466 145ZM138.045 151V137.66H134.445V142.36C133.685 141.44 132.705 141.1 131.725 141.1C129.345 141.1 127.465 142.96 127.465 146.16C127.465 149.48 129.385 151.24 131.725 151.24C132.705 151.24 133.625 150.9 134.445 149.98V151H138.045ZM132.945 148.06C131.965 148.06 131.145 147.36 131.145 146.16C131.145 144.96 131.965 144.28 132.945 144.28C133.425 144.28 134.105 144.5 134.445 144.92V147.4C134.105 147.82 133.425 148.06 132.945 148.06ZM158.697 151L153.777 137.66H148.697L143.777 151H148.357L148.837 149.44H153.637L154.117 151H158.697ZM152.557 145.92H149.917L151.237 141.62L152.557 145.92ZM164.096 151.24C166.296 151.24 167.656 150.22 168.196 149.42L165.876 147.22C165.576 147.66 165.016 148.06 164.256 148.06C163.236 148.06 162.356 147.4 162.356 146.16C162.356 144.92 163.236 144.28 164.256 144.28C165.016 144.28 165.576 144.64 165.876 145.1L168.196 142.92C167.656 142.1 166.296 141.1 164.096 141.1C161.036 141.1 158.676 143.1 158.676 146.16C158.676 149.24 161.036 151.24 164.096 151.24ZM174.135 151.24C176.335 151.24 177.695 150.22 178.235 149.42L175.915 147.22C175.615 147.66 175.055 148.06 174.295 148.06C173.275 148.06 172.395 147.4 172.395 146.16C172.395 144.92 173.275 144.28 174.295 144.28C175.055 144.28 175.615 144.64 175.915 145.1L178.235 142.92C177.695 142.1 176.335 141.1 174.135 141.1C171.075 141.1 168.715 143.1 168.715 146.16C168.715 149.24 171.075 151.24 174.135 151.24ZM184.134 151.24C185.574 151.24 187.294 150.86 188.254 150.04L186.774 147.82C186.294 148.24 185.094 148.5 184.554 148.5C183.374 148.5 182.674 147.9 182.474 147.28H189.034V146.54C189.034 143.14 186.854 141.1 184.014 141.1C180.894 141.1 178.754 143.36 178.754 146.16C178.754 149.34 181.114 151.24 184.134 151.24ZM185.614 145H182.434C182.554 144.56 182.914 143.84 184.014 143.84C185.174 143.84 185.514 144.58 185.614 145ZM194.194 151.24C197.054 151.24 198.774 149.84 198.774 147.92C198.774 143.9 193.294 144.9 193.294 144.1C193.294 143.88 193.674 143.68 194.194 143.68C195.314 143.68 196.434 144.18 197.034 144.68L198.354 142.34C197.234 141.6 195.794 141.1 194.174 141.1C191.374 141.1 189.854 142.66 189.854 144.4C189.854 148.4 195.334 147.22 195.334 148.14C195.334 148.38 195.114 148.56 194.374 148.56C193.294 148.56 191.654 147.94 190.894 147.34L189.454 149.76C190.494 150.62 192.414 151.24 194.194 151.24ZM203.998 151.24C206.858 151.24 208.578 149.84 208.578 147.92C208.578 143.9 203.098 144.9 203.098 144.1C203.098 143.88 203.478 143.68 203.998 143.68C205.118 143.68 206.238 144.18 206.838 144.68L208.158 142.34C207.038 141.6 205.598 141.1 203.978 141.1C201.178 141.1 199.658 142.66 199.658 144.4C199.658 148.4 205.138 147.22 205.138 148.14C205.138 148.38 204.918 148.56 204.178 148.56C203.098 148.56 201.458 147.94 200.698 147.34L199.258 149.76C200.298 150.62 202.218 151.24 203.998 151.24Z" fill="#1F5FBC"/>
<path d="M47.2271 168.267L44.3991 178.025H42.9711L40.7031 170.171L38.3511 178.025L36.9371 178.039L34.2071 168.267H35.5651L37.6931 176.541L40.0451 168.267H41.4731L43.7131 176.513L45.8551 168.267H47.2271ZM55.6213 173.895C55.6213 174.138 55.6073 174.394 55.5793 174.665H49.4473C49.494 175.421 49.7506 176.014 50.2173 176.443C50.6933 176.863 51.2673 177.073 51.9393 177.073C52.49 177.073 52.9473 176.947 53.3113 176.695C53.6846 176.434 53.946 176.088 54.0953 175.659H55.4673C55.262 176.396 54.8513 176.998 54.2353 177.465C53.6193 177.922 52.854 178.151 51.9393 178.151C51.2113 178.151 50.558 177.988 49.9793 177.661C49.41 177.334 48.962 176.872 48.6353 176.275C48.3086 175.668 48.1453 174.968 48.1453 174.175C48.1453 173.382 48.304 172.686 48.6213 172.089C48.9386 171.492 49.382 171.034 49.9513 170.717C50.53 170.39 51.1926 170.227 51.9393 170.227C52.6673 170.227 53.3113 170.386 53.8713 170.703C54.4313 171.02 54.8606 171.459 55.1593 172.019C55.4673 172.57 55.6213 173.195 55.6213 173.895ZM54.3053 173.629C54.3053 173.144 54.198 172.728 53.9833 172.383C53.7686 172.028 53.4746 171.762 53.1013 171.585C52.7373 171.398 52.3313 171.305 51.8833 171.305C51.2393 171.305 50.6886 171.51 50.2313 171.921C49.7833 172.332 49.5266 172.901 49.4613 173.629H54.3053ZM62.3094 171.767C62.5614 171.328 62.9347 170.964 63.4294 170.675C63.9334 170.376 64.5167 170.227 65.1794 170.227C65.8607 170.227 66.4767 170.39 67.0274 170.717C67.5874 171.044 68.026 171.506 68.3434 172.103C68.6607 172.691 68.8194 173.377 68.8194 174.161C68.8194 174.936 68.6607 175.626 68.3434 176.233C68.026 176.84 67.5874 177.311 67.0274 177.647C66.4767 177.983 65.8607 178.151 65.1794 178.151C64.526 178.151 63.9474 178.006 63.4434 177.717C62.9487 177.418 62.5707 177.05 62.3094 176.611V181.665H61.0354V170.353H62.3094V171.767ZM67.5174 174.161C67.5174 173.582 67.4007 173.078 67.1674 172.649C66.934 172.22 66.6167 171.893 66.2154 171.669C65.8234 171.445 65.3894 171.333 64.9134 171.333C64.4467 171.333 64.0127 171.45 63.6114 171.683C63.2194 171.907 62.902 172.238 62.6594 172.677C62.426 173.106 62.3094 173.606 62.3094 174.175C62.3094 174.754 62.426 175.262 62.6594 175.701C62.902 176.13 63.2194 176.462 63.6114 176.695C64.0127 176.919 64.4467 177.031 64.9134 177.031C65.3894 177.031 65.8234 176.919 66.2154 176.695C66.6167 176.462 66.934 176.13 67.1674 175.701C67.4007 175.262 67.5174 174.749 67.5174 174.161ZM71.7703 171.599C71.9943 171.16 72.3116 170.82 72.7223 170.577C73.1423 170.334 73.651 170.213 74.2483 170.213V171.529H73.9123C72.4843 171.529 71.7703 172.304 71.7703 173.853V178.025H70.4963V170.353H71.7703V171.599ZM79.065 178.151C78.3463 178.151 77.693 177.988 77.105 177.661C76.5263 177.334 76.069 176.872 75.733 176.275C75.4063 175.668 75.243 174.968 75.243 174.175C75.243 173.391 75.411 172.7 75.747 172.103C76.0923 171.496 76.559 171.034 77.147 170.717C77.735 170.39 78.393 170.227 79.121 170.227C79.849 170.227 80.507 170.39 81.095 170.717C81.683 171.034 82.145 171.492 82.481 172.089C82.8263 172.686 82.999 173.382 82.999 174.175C82.999 174.968 82.8216 175.668 82.467 176.275C82.1216 176.872 81.6503 177.334 81.053 177.661C80.4556 177.988 79.793 178.151 79.065 178.151ZM79.065 177.031C79.5223 177.031 79.9516 176.924 80.353 176.709C80.7543 176.494 81.0763 176.172 81.319 175.743C81.571 175.314 81.697 174.791 81.697 174.175C81.697 173.559 81.5756 173.036 81.333 172.607C81.0903 172.178 80.773 171.86 80.381 171.655C79.989 171.44 79.5643 171.333 79.107 171.333C78.6403 171.333 78.211 171.44 77.819 171.655C77.4363 171.86 77.1283 172.178 76.895 172.607C76.6616 173.036 76.545 173.559 76.545 174.175C76.545 174.8 76.657 175.328 76.881 175.757C77.1143 176.186 77.4223 176.508 77.805 176.723C78.1876 176.928 78.6076 177.031 79.065 177.031ZM87.53 176.849L89.91 170.353H91.268L88.258 178.025H86.774L83.764 170.353H85.136L87.53 176.849ZM93.1797 169.107C92.937 169.107 92.7317 169.023 92.5637 168.855C92.3957 168.687 92.3117 168.482 92.3117 168.239C92.3117 167.996 92.3957 167.791 92.5637 167.623C92.7317 167.455 92.937 167.371 93.1797 167.371C93.413 167.371 93.609 167.455 93.7677 167.623C93.9357 167.791 94.0197 167.996 94.0197 168.239C94.0197 168.482 93.9357 168.687 93.7677 168.855C93.609 169.023 93.413 169.107 93.1797 169.107ZM93.7957 170.353V178.025H92.5217V170.353H93.7957ZM95.491 174.161C95.491 173.377 95.6497 172.691 95.967 172.103C96.2843 171.506 96.7183 171.044 97.269 170.717C97.829 170.39 98.4543 170.227 99.145 170.227C99.7423 170.227 100.298 170.367 100.811 170.647C101.324 170.918 101.716 171.277 101.987 171.725V167.665H103.275V178.025H101.987V176.583C101.735 177.04 101.362 177.418 100.867 177.717C100.372 178.006 99.7937 178.151 99.131 178.151C98.4497 178.151 97.829 177.983 97.269 177.647C96.7183 177.311 96.2843 176.84 95.967 176.233C95.6497 175.626 95.491 174.936 95.491 174.161ZM101.987 174.175C101.987 173.596 101.87 173.092 101.637 172.663C101.404 172.234 101.086 171.907 100.685 171.683C100.293 171.45 99.859 171.333 99.383 171.333C98.907 171.333 98.473 171.445 98.081 171.669C97.689 171.893 97.3763 172.22 97.143 172.649C96.9097 173.078 96.793 173.582 96.793 174.161C96.793 174.749 96.9097 175.262 97.143 175.701C97.3763 176.13 97.689 176.462 98.081 176.695C98.473 176.919 98.907 177.031 99.383 177.031C99.859 177.031 100.293 176.919 100.685 176.695C101.086 176.462 101.404 176.13 101.637 175.701C101.87 175.262 101.987 174.754 101.987 174.175ZM112.428 173.895C112.428 174.138 112.414 174.394 112.386 174.665H106.254C106.301 175.421 106.557 176.014 107.024 176.443C107.5 176.863 108.074 177.073 108.746 177.073C109.297 177.073 109.754 176.947 110.118 176.695C110.491 176.434 110.753 176.088 110.902 175.659H112.274C112.069 176.396 111.658 176.998 111.042 177.465C110.426 177.922 109.661 178.151 108.746 178.151C108.018 178.151 107.365 177.988 106.786 177.661C106.217 177.334 105.769 176.872 105.442 176.275C105.115 175.668 104.952 174.968 104.952 174.175C104.952 173.382 105.111 172.686 105.428 172.089C105.745 171.492 106.189 171.034 106.758 170.717C107.337 170.39 107.999 170.227 108.746 170.227C109.474 170.227 110.118 170.386 110.678 170.703C111.238 171.02 111.667 171.459 111.966 172.019C112.274 172.57 112.428 173.195 112.428 173.895ZM111.112 173.629C111.112 173.144 111.005 172.728 110.79 172.383C110.575 172.028 110.281 171.762 109.908 171.585C109.544 171.398 109.138 171.305 108.69 171.305C108.046 171.305 107.495 171.51 107.038 171.921C106.59 172.332 106.333 172.901 106.268 173.629H111.112ZM116.826 178.151C116.238 178.151 115.71 178.053 115.244 177.857C114.777 177.652 114.408 177.372 114.138 177.017C113.867 176.653 113.718 176.238 113.69 175.771H115.006C115.043 176.154 115.22 176.466 115.538 176.709C115.864 176.952 116.289 177.073 116.812 177.073C117.297 177.073 117.68 176.966 117.96 176.751C118.24 176.536 118.38 176.266 118.38 175.939C118.38 175.603 118.23 175.356 117.932 175.197C117.633 175.029 117.171 174.866 116.546 174.707C115.976 174.558 115.51 174.408 115.146 174.259C114.791 174.1 114.483 173.872 114.222 173.573C113.97 173.265 113.844 172.864 113.844 172.369C113.844 171.977 113.96 171.618 114.194 171.291C114.427 170.964 114.758 170.708 115.188 170.521C115.617 170.325 116.107 170.227 116.658 170.227C117.507 170.227 118.193 170.442 118.716 170.871C119.238 171.3 119.518 171.888 119.556 172.635H118.282C118.254 172.234 118.09 171.912 117.792 171.669C117.502 171.426 117.11 171.305 116.616 171.305C116.158 171.305 115.794 171.403 115.524 171.599C115.253 171.795 115.118 172.052 115.118 172.369C115.118 172.621 115.197 172.831 115.356 172.999C115.524 173.158 115.729 173.288 115.972 173.391C116.224 173.484 116.569 173.592 117.008 173.713C117.558 173.862 118.006 174.012 118.352 174.161C118.697 174.301 118.991 174.516 119.234 174.805C119.486 175.094 119.616 175.472 119.626 175.939C119.626 176.359 119.509 176.737 119.276 177.073C119.042 177.409 118.711 177.675 118.282 177.871C117.862 178.058 117.376 178.151 116.826 178.151ZM131.764 170.353L127.144 181.637H125.828L127.34 177.941L124.246 170.353H125.66L128.068 176.569L130.448 170.353H131.764ZM136.391 178.151C135.672 178.151 135.019 177.988 134.431 177.661C133.852 177.334 133.395 176.872 133.059 176.275C132.732 175.668 132.569 174.968 132.569 174.175C132.569 173.391 132.737 172.7 133.073 172.103C133.418 171.496 133.885 171.034 134.473 170.717C135.061 170.39 135.719 170.227 136.447 170.227C137.175 170.227 137.833 170.39 138.421 170.717C139.009 171.034 139.471 171.492 139.807 172.089C140.152 172.686 140.325 173.382 140.325 174.175C140.325 174.968 140.148 175.668 139.793 176.275C139.448 176.872 138.976 177.334 138.379 177.661C137.782 177.988 137.119 178.151 136.391 178.151ZM136.391 177.031C136.848 177.031 137.278 176.924 137.679 176.709C138.08 176.494 138.402 176.172 138.645 175.743C138.897 175.314 139.023 174.791 139.023 174.175C139.023 173.559 138.902 173.036 138.659 172.607C138.416 172.178 138.099 171.86 137.707 171.655C137.315 171.44 136.89 171.333 136.433 171.333C135.966 171.333 135.537 171.44 135.145 171.655C134.762 171.86 134.454 172.178 134.221 172.607C133.988 173.036 133.871 173.559 133.871 174.175C133.871 174.8 133.983 175.328 134.207 175.757C134.44 176.186 134.748 176.508 135.131 176.723C135.514 176.928 135.934 177.031 136.391 177.031ZM148.804 170.353V178.025H147.53V176.891C147.288 177.283 146.947 177.591 146.508 177.815C146.079 178.03 145.603 178.137 145.08 178.137C144.483 178.137 143.946 178.016 143.47 177.773C142.994 177.521 142.616 177.148 142.336 176.653C142.066 176.158 141.93 175.556 141.93 174.847V170.353H143.19V174.679C143.19 175.435 143.382 176.018 143.764 176.429C144.147 176.83 144.67 177.031 145.332 177.031C146.014 177.031 146.55 176.821 146.942 176.401C147.334 175.981 147.53 175.37 147.53 174.567V170.353H148.804ZM154.212 174.161C154.212 173.377 154.37 172.691 154.688 172.103C155.005 171.506 155.439 171.044 155.99 170.717C156.55 170.39 157.17 170.227 157.852 170.227C158.524 170.227 159.107 170.372 159.602 170.661C160.096 170.95 160.465 171.314 160.708 171.753V170.353H161.996V178.025H160.708V176.597C160.456 177.045 160.078 177.418 159.574 177.717C159.079 178.006 158.5 178.151 157.838 178.151C157.156 178.151 156.54 177.983 155.99 177.647C155.439 177.311 155.005 176.84 154.688 176.233C154.37 175.626 154.212 174.936 154.212 174.161ZM160.708 174.175C160.708 173.596 160.591 173.092 160.358 172.663C160.124 172.234 159.807 171.907 159.406 171.683C159.014 171.45 158.58 171.333 158.104 171.333C157.628 171.333 157.194 171.445 156.802 171.669C156.41 171.893 156.097 172.22 155.864 172.649C155.63 173.078 155.514 173.582 155.514 174.161C155.514 174.749 155.63 175.262 155.864 175.701C156.097 176.13 156.41 176.462 156.802 176.695C157.194 176.919 157.628 177.031 158.104 177.031C158.58 177.031 159.014 176.919 159.406 176.695C159.807 176.462 160.124 176.13 160.358 175.701C160.591 175.262 160.708 174.754 160.708 174.175ZM163.673 174.175C163.673 173.382 163.831 172.691 164.149 172.103C164.466 171.506 164.905 171.044 165.465 170.717C166.034 170.39 166.683 170.227 167.411 170.227C168.353 170.227 169.128 170.456 169.735 170.913C170.351 171.37 170.757 172.005 170.953 172.817H169.581C169.45 172.35 169.193 171.982 168.811 171.711C168.437 171.44 167.971 171.305 167.411 171.305C166.683 171.305 166.095 171.557 165.647 172.061C165.199 172.556 164.975 173.26 164.975 174.175C164.975 175.099 165.199 175.813 165.647 176.317C166.095 176.821 166.683 177.073 167.411 177.073C167.971 177.073 168.437 176.942 168.811 176.681C169.184 176.42 169.441 176.046 169.581 175.561H170.953C170.747 176.345 170.337 176.975 169.721 177.451C169.105 177.918 168.335 178.151 167.411 178.151C166.683 178.151 166.034 177.988 165.465 177.661C164.905 177.334 164.466 176.872 164.149 176.275C163.831 175.678 163.673 174.978 163.673 174.175ZM172.177 174.175C172.177 173.382 172.335 172.691 172.653 172.103C172.97 171.506 173.409 171.044 173.969 170.717C174.538 170.39 175.187 170.227 175.915 170.227C176.857 170.227 177.632 170.456 178.239 170.913C178.855 171.37 179.261 172.005 179.457 172.817H178.085C177.954 172.35 177.697 171.982 177.315 171.711C176.941 171.44 176.475 171.305 175.915 171.305C175.187 171.305 174.599 171.557 174.151 172.061C173.703 172.556 173.479 173.26 173.479 174.175C173.479 175.099 173.703 175.813 174.151 176.317C174.599 176.821 175.187 177.073 175.915 177.073C176.475 177.073 176.941 176.942 177.315 176.681C177.688 176.42 177.945 176.046 178.085 175.561H179.457C179.251 176.345 178.841 176.975 178.225 177.451C177.609 177.918 176.839 178.151 175.915 178.151C175.187 178.151 174.538 177.988 173.969 177.661C173.409 177.334 172.97 176.872 172.653 176.275C172.335 175.678 172.177 174.978 172.177 174.175ZM188.156 173.895C188.156 174.138 188.142 174.394 188.114 174.665H181.982C182.029 175.421 182.286 176.014 182.752 176.443C183.228 176.863 183.802 177.073 184.474 177.073C185.025 177.073 185.482 176.947 185.846 176.695C186.22 176.434 186.481 176.088 186.63 175.659H188.002C187.797 176.396 187.386 176.998 186.77 177.465C186.154 177.922 185.389 178.151 184.474 178.151C183.746 178.151 183.093 177.988 182.514 177.661C181.945 177.334 181.497 176.872 181.17 176.275C180.844 175.668 180.68 174.968 180.68 174.175C180.68 173.382 180.839 172.686 181.156 172.089C181.474 171.492 181.917 171.034 182.486 170.717C183.065 170.39 183.728 170.227 184.474 170.227C185.202 170.227 185.846 170.386 186.406 170.703C186.966 171.02 187.396 171.459 187.694 172.019C188.002 172.57 188.156 173.195 188.156 173.895ZM186.84 173.629C186.84 173.144 186.733 172.728 186.518 172.383C186.304 172.028 186.01 171.762 185.636 171.585C185.272 171.398 184.866 171.305 184.418 171.305C183.774 171.305 183.224 171.51 182.766 171.921C182.318 172.332 182.062 172.901 181.996 173.629H186.84ZM192.554 178.151C191.966 178.151 191.439 178.053 190.972 177.857C190.505 177.652 190.137 177.372 189.866 177.017C189.595 176.653 189.446 176.238 189.418 175.771H190.734C190.771 176.154 190.949 176.466 191.266 176.709C191.593 176.952 192.017 177.073 192.54 177.073C193.025 177.073 193.408 176.966 193.688 176.751C193.968 176.536 194.108 176.266 194.108 175.939C194.108 175.603 193.959 175.356 193.66 175.197C193.361 175.029 192.899 174.866 192.274 174.707C191.705 174.558 191.238 174.408 190.874 174.259C190.519 174.1 190.211 173.872 189.95 173.573C189.698 173.265 189.572 172.864 189.572 172.369C189.572 171.977 189.689 171.618 189.922 171.291C190.155 170.964 190.487 170.708 190.916 170.521C191.345 170.325 191.835 170.227 192.386 170.227C193.235 170.227 193.921 170.442 194.444 170.871C194.967 171.3 195.247 171.888 195.284 172.635H194.01C193.982 172.234 193.819 171.912 193.52 171.669C193.231 171.426 192.839 171.305 192.344 171.305C191.887 171.305 191.523 171.403 191.252 171.599C190.981 171.795 190.846 172.052 190.846 172.369C190.846 172.621 190.925 172.831 191.084 172.999C191.252 173.158 191.457 173.288 191.7 173.391C191.952 173.484 192.297 173.592 192.736 173.713C193.287 173.862 193.735 174.012 194.08 174.161C194.425 174.301 194.719 174.516 194.962 174.805C195.214 175.094 195.345 175.472 195.354 175.939C195.354 176.359 195.237 176.737 195.004 177.073C194.771 177.409 194.439 177.675 194.01 177.871C193.59 178.058 193.105 178.151 192.554 178.151ZM199.869 178.151C199.281 178.151 198.753 178.053 198.287 177.857C197.82 177.652 197.451 177.372 197.181 177.017C196.91 176.653 196.761 176.238 196.733 175.771H198.049C198.086 176.154 198.263 176.466 198.581 176.709C198.907 176.952 199.332 177.073 199.855 177.073C200.34 177.073 200.723 176.966 201.003 176.751C201.283 176.536 201.423 176.266 201.423 175.939C201.423 175.603 201.273 175.356 200.975 175.197C200.676 175.029 200.214 174.866 199.589 174.707C199.019 174.558 198.553 174.408 198.189 174.259C197.834 174.1 197.526 173.872 197.265 173.573C197.013 173.265 196.887 172.864 196.887 172.369C196.887 171.977 197.003 171.618 197.237 171.291C197.47 170.964 197.801 170.708 198.231 170.521C198.66 170.325 199.15 170.227 199.701 170.227C200.55 170.227 201.236 170.442 201.759 170.871C202.281 171.3 202.561 171.888 202.599 172.635H201.325C201.297 172.234 201.133 171.912 200.835 171.669C200.545 171.426 200.153 171.305 199.659 171.305C199.201 171.305 198.837 171.403 198.567 171.599C198.296 171.795 198.161 172.052 198.161 172.369C198.161 172.621 198.24 172.831 198.399 172.999C198.567 173.158 198.772 173.288 199.015 173.391C199.267 173.484 199.612 173.592 200.051 173.713C200.601 173.862 201.049 174.012 201.395 174.161C201.74 174.301 202.034 174.516 202.277 174.805C202.529 175.094 202.659 175.472 202.669 175.939C202.669 176.359 202.552 176.737 202.319 177.073C202.085 177.409 201.754 177.675 201.325 177.871C200.905 178.058 200.419 178.151 199.869 178.151ZM209.753 171.403V175.925C209.753 176.298 209.833 176.564 209.991 176.723C210.15 176.872 210.425 176.947 210.817 176.947H211.755V178.025H210.607C209.898 178.025 209.366 177.862 209.011 177.535C208.657 177.208 208.479 176.672 208.479 175.925V171.403H207.485V170.353H208.479V168.421H209.753V170.353H211.755V171.403H209.753ZM216.645 178.151C215.926 178.151 215.273 177.988 214.685 177.661C214.106 177.334 213.649 176.872 213.313 176.275C212.986 175.668 212.823 174.968 212.823 174.175C212.823 173.391 212.991 172.7 213.327 172.103C213.672 171.496 214.139 171.034 214.727 170.717C215.315 170.39 215.973 170.227 216.701 170.227C217.429 170.227 218.087 170.39 218.675 170.717C219.263 171.034 219.725 171.492 220.061 172.089C220.406 172.686 220.579 173.382 220.579 174.175C220.579 174.968 220.402 175.668 220.047 176.275C219.702 176.872 219.23 177.334 218.633 177.661C218.036 177.988 217.373 178.151 216.645 178.151ZM216.645 177.031C217.102 177.031 217.532 176.924 217.933 176.709C218.334 176.494 218.656 176.172 218.899 175.743C219.151 175.314 219.277 174.791 219.277 174.175C219.277 173.559 219.156 173.036 218.913 172.607C218.67 172.178 218.353 171.86 217.961 171.655C217.569 171.44 217.144 171.333 216.687 171.333C216.22 171.333 215.791 171.44 215.399 171.655C215.016 171.86 214.708 172.178 214.475 172.607C214.242 173.036 214.125 173.559 214.125 174.175C214.125 174.8 214.237 175.328 214.461 175.757C214.694 176.186 215.002 176.508 215.385 176.723C215.768 176.928 216.188 177.031 216.645 177.031ZM104.557 191.213C105.155 191.213 105.687 191.339 106.153 191.591C106.62 191.834 106.989 192.202 107.259 192.697C107.53 193.192 107.665 193.794 107.665 194.503V199.025H106.405V194.685C106.405 193.92 106.214 193.336 105.831 192.935C105.458 192.524 104.949 192.319 104.305 192.319C103.643 192.319 103.115 192.534 102.723 192.963C102.331 193.383 102.135 193.994 102.135 194.797V199.025H100.875V194.685C100.875 193.92 100.684 193.336 100.301 192.935C99.9279 192.524 99.4193 192.319 98.7753 192.319C98.1126 192.319 97.5853 192.534 97.1933 192.963C96.8013 193.383 96.6053 193.994 96.6053 194.797V199.025H95.3313V191.353H96.6053V192.459C96.8573 192.058 97.1933 191.75 97.6133 191.535C98.0426 191.32 98.5139 191.213 99.0273 191.213C99.6713 191.213 100.241 191.358 100.735 191.647C101.23 191.936 101.599 192.361 101.841 192.921C102.056 192.38 102.411 191.96 102.905 191.661C103.4 191.362 103.951 191.213 104.557 191.213ZM109.279 195.161C109.279 194.377 109.438 193.691 109.755 193.103C110.072 192.506 110.506 192.044 111.057 191.717C111.617 191.39 112.238 191.227 112.919 191.227C113.591 191.227 114.174 191.372 114.669 191.661C115.164 191.95 115.532 192.314 115.775 192.753V191.353H117.063V199.025H115.775V197.597C115.523 198.045 115.145 198.418 114.641 198.717C114.146 199.006 113.568 199.151 112.905 199.151C112.224 199.151 111.608 198.983 111.057 198.647C110.506 198.311 110.072 197.84 109.755 197.233C109.438 196.626 109.279 195.936 109.279 195.161ZM115.775 195.175C115.775 194.596 115.658 194.092 115.425 193.663C115.192 193.234 114.874 192.907 114.473 192.683C114.081 192.45 113.647 192.333 113.171 192.333C112.695 192.333 112.261 192.445 111.869 192.669C111.477 192.893 111.164 193.22 110.931 193.649C110.698 194.078 110.581 194.582 110.581 195.161C110.581 195.749 110.698 196.262 110.931 196.701C111.164 197.13 111.477 197.462 111.869 197.695C112.261 197.919 112.695 198.031 113.171 198.031C113.647 198.031 114.081 197.919 114.473 197.695C114.874 197.462 115.192 197.13 115.425 196.701C115.658 196.262 115.775 195.754 115.775 195.175ZM120.77 192.403V196.925C120.77 197.298 120.849 197.564 121.008 197.723C121.167 197.872 121.442 197.947 121.834 197.947H122.772V199.025H121.624C120.915 199.025 120.383 198.862 120.028 198.535C119.673 198.208 119.496 197.672 119.496 196.925V192.403H118.502V191.353H119.496V189.421H120.77V191.353H122.772V192.403H120.77ZM131.316 194.895C131.316 195.138 131.302 195.394 131.274 195.665H125.142C125.188 196.421 125.445 197.014 125.912 197.443C126.388 197.863 126.962 198.073 127.634 198.073C128.184 198.073 128.642 197.947 129.006 197.695C129.379 197.434 129.64 197.088 129.79 196.659H131.162C130.956 197.396 130.546 197.998 129.93 198.465C129.314 198.922 128.548 199.151 127.634 199.151C126.906 199.151 126.252 198.988 125.674 198.661C125.104 198.334 124.656 197.872 124.33 197.275C124.003 196.668 123.84 195.968 123.84 195.175C123.84 194.382 123.998 193.686 124.316 193.089C124.633 192.492 125.076 192.034 125.646 191.717C126.224 191.39 126.887 191.227 127.634 191.227C128.362 191.227 129.006 191.386 129.566 191.703C130.126 192.02 130.555 192.459 130.854 193.019C131.162 193.57 131.316 194.195 131.316 194.895ZM130 194.629C130 194.144 129.892 193.728 129.678 193.383C129.463 193.028 129.169 192.762 128.796 192.585C128.432 192.398 128.026 192.305 127.578 192.305C126.934 192.305 126.383 192.51 125.926 192.921C125.478 193.332 125.221 193.901 125.156 194.629H130ZM134.271 192.599C134.495 192.16 134.813 191.82 135.223 191.577C135.643 191.334 136.152 191.213 136.749 191.213V192.529H136.413C134.985 192.529 134.271 193.304 134.271 194.853V199.025H132.997V191.353H134.271V192.599ZM138.878 190.107C138.635 190.107 138.43 190.023 138.262 189.855C138.094 189.687 138.01 189.482 138.01 189.239C138.01 188.996 138.094 188.791 138.262 188.623C138.43 188.455 138.635 188.371 138.878 188.371C139.111 188.371 139.307 188.455 139.466 188.623C139.634 188.791 139.718 188.996 139.718 189.239C139.718 189.482 139.634 189.687 139.466 189.855C139.307 190.023 139.111 190.107 138.878 190.107ZM139.494 191.353V199.025H138.22V191.353H139.494ZM141.189 195.161C141.189 194.377 141.348 193.691 141.665 193.103C141.983 192.506 142.417 192.044 142.967 191.717C143.527 191.39 144.148 191.227 144.829 191.227C145.501 191.227 146.085 191.372 146.579 191.661C147.074 191.95 147.443 192.314 147.685 192.753V191.353H148.973V199.025H147.685V197.597C147.433 198.045 147.055 198.418 146.551 198.717C146.057 199.006 145.478 199.151 144.815 199.151C144.134 199.151 143.518 198.983 142.967 198.647C142.417 198.311 141.983 197.84 141.665 197.233C141.348 196.626 141.189 195.936 141.189 195.161ZM147.685 195.175C147.685 194.596 147.569 194.092 147.335 193.663C147.102 193.234 146.785 192.907 146.383 192.683C145.991 192.45 145.557 192.333 145.081 192.333C144.605 192.333 144.171 192.445 143.779 192.669C143.387 192.893 143.075 193.22 142.841 193.649C142.608 194.078 142.491 194.582 142.491 195.161C142.491 195.749 142.608 196.262 142.841 196.701C143.075 197.13 143.387 197.462 143.779 197.695C144.171 197.919 144.605 198.031 145.081 198.031C145.557 198.031 145.991 197.919 146.383 197.695C146.785 197.462 147.102 197.13 147.335 196.701C147.569 196.262 147.685 195.754 147.685 195.175ZM152.4 188.665V199.025H151.126V188.665H152.4ZM157.288 199.151C156.699 199.151 156.172 199.053 155.705 198.857C155.239 198.652 154.87 198.372 154.599 198.017C154.329 197.653 154.179 197.238 154.151 196.771H155.467C155.505 197.154 155.682 197.466 155.999 197.709C156.326 197.952 156.751 198.073 157.273 198.073C157.759 198.073 158.142 197.966 158.422 197.751C158.702 197.536 158.842 197.266 158.842 196.939C158.842 196.603 158.692 196.356 158.394 196.197C158.095 196.029 157.633 195.866 157.007 195.707C156.438 195.558 155.971 195.408 155.607 195.259C155.253 195.1 154.945 194.872 154.683 194.573C154.431 194.265 154.305 193.864 154.305 193.369C154.305 192.977 154.422 192.618 154.655 192.291C154.889 191.964 155.22 191.708 155.649 191.521C156.079 191.325 156.569 191.227 157.119 191.227C157.969 191.227 158.655 191.442 159.178 191.871C159.7 192.3 159.98 192.888 160.018 193.635H158.744C158.715 193.234 158.552 192.912 158.253 192.669C157.964 192.426 157.572 192.305 157.077 192.305C156.62 192.305 156.256 192.403 155.985 192.599C155.715 192.795 155.579 193.052 155.579 193.369C155.579 193.621 155.659 193.831 155.817 193.999C155.985 194.158 156.191 194.288 156.433 194.391C156.685 194.484 157.031 194.592 157.469 194.713C158.02 194.862 158.468 195.012 158.814 195.161C159.159 195.301 159.453 195.516 159.696 195.805C159.948 196.094 160.078 196.472 160.087 196.939C160.087 197.359 159.971 197.737 159.737 198.073C159.504 198.409 159.173 198.675 158.744 198.871C158.324 199.058 157.838 199.151 157.288 199.151Z" fill="#5C5C5C"/>
<rect x="71.9999" y="18" width="85" height="85" rx="42.5" fill="#EFB411"/>
<path d="M84.3405 54.3539C83.5486 56.822 84.167 59.6061 85.8875 61.3115C89.1473 65.1233 95.8513 78.8834 99.1697 88.5796C101.434 95.1929 106.407 101.684 110.179 105.966C111.803 107.833 112.715 110.385 112.71 113.048V113.778C112.71 117.084 115.003 119.764 117.833 119.764H145.156C147.986 119.764 150.279 117.084 150.279 113.778V107.648C150.264 107.141 150.429 106.648 150.735 106.289C157.038 99.5545 157.11 88.3119 157.11 87.8369V56.2474C157.173 51.9743 154.416 48.3617 150.776 47.9488C149.408 47.8438 148.045 48.2229 146.864 49.0358V45.9329C146.878 43.0573 145.56 40.3983 143.418 38.9816C141.277 37.5648 138.647 37.6123 136.544 39.1067C136.326 36.4148 134.942 34.0417 132.879 32.8186C130.815 31.5955 128.36 31.6914 126.371 33.0744V29.7695C130.61 26.9589 133.221 21.6956 133.203 16.0012C133.203 7.18472 127.086 0.0379639 119.541 0.0379639C111.995 0.0379639 105.879 7.18472 105.879 16.0012C105.861 21.6956 108.472 26.9589 112.71 29.7695V61.8961C112.758 64.2519 112.484 66.6004 111.897 68.8547C111.714 69.5206 111.247 70.0285 110.666 70.1957C110.118 70.3573 109.538 70.1792 109.129 69.7243C107.795 68.2382 106.61 66.5793 105.598 64.7799C102.634 59.5998 95.1775 49.9237 90.5098 49.9237C87.888 49.8597 85.4764 51.5916 84.3405 54.3539ZM109.295 16.0012C109.295 9.38885 113.882 4.02878 119.541 4.02878C125.199 4.02878 129.786 9.38885 129.786 16.0012C129.803 19.4157 128.558 22.6721 126.371 24.9374V16.0012C126.371 11.593 123.313 8.0196 119.541 8.0196C115.768 8.0196 112.71 11.593 112.71 16.0012V24.9374C110.523 22.6721 109.278 19.4157 109.295 16.0012ZM102.751 66.995C103.908 69.0465 105.262 70.9374 106.786 72.6318C108.042 74.0202 109.819 74.5619 111.496 74.0668C113.205 73.569 114.577 72.0837 115.133 70.1317C115.84 67.4663 116.175 64.6858 116.125 61.8961V16.0012C116.125 13.7971 117.654 12.0104 119.541 12.0104C121.427 12.0104 122.956 13.7971 122.956 16.0012V57.9053C122.956 59.0078 123.72 59.9012 124.664 59.9012C125.607 59.9012 126.371 59.0078 126.371 57.9053V39.9471C126.371 37.743 127.901 35.9563 129.786 35.9563C131.673 35.9563 133.203 37.743 133.203 39.9471V57.9053C133.203 59.0078 133.967 59.9012 134.91 59.9012C135.853 59.9012 136.618 59.0078 136.618 57.9053V45.9329C136.618 43.7287 138.147 41.942 140.033 41.942C141.92 41.942 143.449 43.7287 143.449 45.9329V59.9012C143.449 61.0028 144.213 61.8961 145.156 61.8961C146.099 61.8961 146.864 61.0028 146.864 59.9012V55.9104C146.862 54.8517 147.223 53.8359 147.866 53.0906C148.57 52.2749 149.541 51.8519 150.53 51.9296C152.375 52.2109 153.74 54.0743 153.695 56.2474V87.8369C153.695 87.9347 153.608 97.8144 148.428 103.346C147.416 104.462 146.848 106.022 146.864 107.648V113.778C146.864 114.88 146.099 115.774 145.156 115.774H117.833C116.89 115.774 116.125 114.88 116.125 113.778V113.048C116.128 109.307 114.842 105.723 112.558 103.102C109.665 99.8204 104.491 93.3724 102.343 87.0952C98.8281 76.8345 91.8747 62.6643 88.3023 58.4899C87.4893 57.5409 87.2173 56.6621 87.494 55.8802C88.1131 54.627 89.2716 53.8716 90.5098 53.9145C92.8308 53.9145 99.1236 60.6374 102.751 66.995Z" fill="#5C5C5C"/>
<path d="M148.572 85.8403C149.516 85.8403 150.28 84.947 150.28 83.8445V71.872C150.28 70.7704 149.516 69.8771 148.572 69.8771C147.629 69.8771 146.865 70.7704 146.865 71.872V83.8445C146.865 84.947 147.629 85.8403 148.572 85.8403Z" fill="#5C5C5C"/>
<path d="M146.863 97.8121C147.315 97.8121 147.75 97.602 148.07 97.2275C149.369 95.8226 150.159 93.8897 150.278 91.8253C150.276 90.7475 149.534 89.8714 148.611 89.8587C147.679 89.8376 146.902 90.6908 146.863 91.7797C146.734 92.7927 146.308 93.7217 145.655 94.4058C145.167 94.9768 145.021 95.8345 145.285 96.5799C145.549 97.3262 146.172 97.8121 146.863 97.8121Z" fill="#5C5C5C"/>
<path d="M121.247 111.781H122.954C123.898 111.781 124.662 110.888 124.662 109.786C124.662 108.684 123.898 107.791 122.954 107.791H121.247C120.304 107.791 119.539 108.684 119.539 109.786C119.539 110.888 120.304 111.781 121.247 111.781Z" fill="#5C5C5C"/>
<path d="M129.786 111.781H141.74C142.684 111.781 143.448 110.888 143.448 109.786C143.448 108.684 142.684 107.791 141.74 107.791H129.786C128.843 107.791 128.079 108.684 128.079 109.786C128.079 110.888 128.843 111.781 129.786 111.781Z" fill="#5C5C5C"/>
<path d="M105.879 33.0389C106.561 33.0389 107.177 32.5667 107.447 31.8359C107.718 31.1052 107.591 30.2566 107.124 29.6766C101.208 22.369 100.886 11.0524 106.376 3.30282C106.782 2.75567 106.902 1.99478 106.691 1.31427C106.479 0.633754 105.969 0.140497 105.357 0.0254035C104.745 -0.0896898 104.128 0.191649 103.744 0.760722C97.159 10.0595 97.5405 23.6369 104.635 32.4105C104.957 32.8115 105.408 33.0389 105.879 33.0389Z" fill="#5C5C5C"/>
<path d="M135.482 27.7529C135.884 27.9941 136.353 28.0388 136.784 27.8762C137.216 27.7136 137.574 27.3583 137.78 26.887C141.513 18.392 140.554 8.11393 135.339 0.760724C134.956 0.19165 134.339 -0.08969 133.727 0.0254035C133.115 0.140497 132.605 0.633756 132.393 1.31427C132.181 1.99478 132.302 2.75568 132.708 3.30283C137.053 9.42837 137.853 17.991 134.742 25.0674C134.311 26.0475 134.643 27.2496 135.482 27.7529Z" fill="#5C5C5C"/>
</svg>
